M48
; DRILL file {KiCad 7.0.11+dfsg-1build4} date Sun 31 Aug 2025 08:35:06 AM CDT
; FORMAT={-:-/ absolute / inch / decimal}
; #@! TF.CreationDate,2025-08-31T08:35:06-05:00
; #@! TF.GenerationSoftware,Kicad,Pcbnew,7.0.11+dfsg-1build4
; #@! TF.FileFunction,Plated,1,2,PTH
FMAT,2
INCH
; #@! TA.AperFunction,Plated,PTH,ViaDrill
T1C0.0157
; #@! TA.AperFunction,Plated,PTH,ComponentDrill
T2C0.0315
; #@! TA.AperFunction,Plated,PTH,ComponentDrill
T3C0.0394
; #@! TA.AperFunction,Plated,PTH,ComponentDrill
T4C0.0402
; #@! TA.AperFunction,Plated,PTH,ComponentDrill
T5C0.0433
; #@! TA.AperFunction,Plated,PTH,ComponentDrill
T6C0.0591
; #@! TA.AperFunction,Plated,PTH,ComponentDrill
T7C0.1260
%
G90
G05
T1
X2.5957Y-4.3551
X2.6012Y-4.1118
X2.6067Y-3.5815
X2.65Y-3.82
X2.6744Y-4.5846
X2.7071Y-2.5646
X2.7165Y-4.7638
X2.7224Y-2.7626
X2.7224Y-3.1224
X2.7268Y-2.9583
X2.7291Y-3.2941
X2.7953Y-4.9213
X2.8445Y-2.2846
X2.8571Y-2.178
X2.8697Y-2.4197
X2.8728Y-2.0902
X2.8807Y-2.5228
X2.898Y-1.9646
X2.9071Y-4.2488
X2.9134Y-5.1181
X2.9323Y-1.8858
X2.9374Y-3.3996
X2.987Y-4.176
X3.0291Y-3.4142
X3.0315Y-5.3543
X3.0378Y-4.0209
X3.0555Y-3.8736
X3.0642Y-3.7331
X3.0736Y-1.8795
X3.0752Y-3.5921
X3.0992Y-3.4713
X3.1713Y-1.8827
X3.2057Y-3.6689
X3.2112Y-3.7406
X3.2677Y-5.4331
X3.3374Y-3.6594
X3.3681Y-3.6169
X3.3717Y-3.4622
X3.3717Y-3.6823
X3.3732Y-3.5622
X3.3768Y-3.5106
X3.3984Y-3.726
X3.4071Y-3.7685
X3.4181Y-3.8142
X3.4205Y-3.8638
X3.4917Y-1.8882
X3.522Y-3.1634
X3.5433Y-5.4331
X3.6043Y-1.8736
X3.6126Y-2.4189
X3.7417Y-1.8701
X3.8189Y-5.4331
X3.8339Y-1.8846
X3.8386Y-4.1083
X3.963Y-1.8862
X4.0945Y-5.4331
X4.1189Y-1.8886
X4.1232Y-4.4138
X4.1287Y-4.5965
X4.1299Y-4.6626
X4.1315Y-4.1472
X4.1315Y-4.198
X4.1315Y-4.3547
X4.1327Y-4.4744
X4.1339Y-4.2846
X4.1394Y-4.5335
X4.1402Y-3.9146
X4.1512Y-3.4181
X4.1512Y-3.5713
X4.152Y-3.8437
X4.1602Y-3.765
X4.1646Y-3.6669
X4.165Y-3.4744
X4.2882Y-1.8992
X4.4488Y-5.4331
X4.4598Y-1.8949
X4.635Y-4.3343
X4.6378Y-3.6811
X4.639Y-3.9394
X4.639Y-4.2547
X4.6406Y-4.4114
X4.6417Y-3.6
X4.6417Y-3.8583
X4.6429Y-3.7638
X4.6516Y-4.0583
X4.6543Y-4.1559
X4.6563Y-3.5118
X4.6661Y-1.8992
X4.6673Y-3.4307
X4.8031Y-5.4331
X4.8224Y-1.8906
X4.9138Y-3.924
X4.9173Y-3.4075
X4.9476Y-1.9256
X4.9587Y-4.2484
X4.9606Y-5.4331
X4.9898Y-3.8976
X5.0059Y-3.8209
X5.0669Y-4.0803
X5.0831Y-4.0354
X5.0843Y-1.9224
X5.0882Y-3.9898
X5.0965Y-3.9461
X5.0992Y-3.7591
X5.2067Y-1.9433
X5.2219Y-3.8543
X5.2756Y-5.4331
X5.3051Y-3.4878
X5.322Y-1.9378
X5.3224Y-3.6913
X5.3268Y-3.7949
X5.348Y-5.2642
X5.3728Y-3.9378
X5.3972Y-4.063
X5.4224Y-5.2236
X5.4606Y-4.1925
X5.4874Y-2.1496
X5.5134Y-4.3157
X5.5709Y-2.1846
X5.6299Y-4.2965
X5.6634Y-2.2528
X5.6693Y-4.2063
X5.7177Y-4.0654
X5.7661Y-3.9402
X5.7689Y-2.4705
X5.7728Y-3.8217
X5.7874Y-4.5276
X5.7874Y-5.0
X5.7882Y-3.6917
X5.7902Y-3.5862
X5.7937Y-3.1811
X5.7984Y-3.3906
X5.8035Y-2.8063
X5.8193Y-2.6996
X5.8268Y-4.8425
X5.8283Y-2.9661
X5.8287Y-2.6118
T2
X2.85Y-3.36
X3.0071Y-2.0906
X3.0083Y-1.9642
X3.0198Y-2.8123
X3.0198Y-2.895
X3.0198Y-2.9973
X3.0198Y-3.08
X3.03Y-2.2256
X3.03Y-2.5256
X3.0469Y-3.36
X3.13Y-2.2256
X3.13Y-2.5256
X3.13Y-2.8123
X3.13Y-3.08
X3.1654Y-3.3646
X3.23Y-2.2256
X3.23Y-2.5256
X3.2772Y-4.7614
X3.298Y-2.8154
X3.298Y-3.1154
X3.3071Y-2.0906
X3.3083Y-1.9642
X3.33Y-2.2256
X3.33Y-2.5256
X3.4299Y-2.7772
X3.4299Y-2.974
X3.4638Y-2.4563
X3.4638Y-2.6531
X3.465Y-2.0472
X3.465Y-2.3472
X3.4654Y-3.3646
X3.474Y-4.7614
X3.5835Y-2.0228
X3.6047Y-4.5374
X3.61Y-2.21
X3.6539Y-3.2445
X3.6539Y-3.5445
X3.6539Y-3.6571
X3.6539Y-3.9571
X3.6598Y-4.2531
X3.6598Y-4.3516
X3.6835Y-2.0228
X3.7031Y-4.5374
X3.7776Y-3.6543
X3.7776Y-3.9543
X3.7783Y-3.2445
X3.7783Y-3.5445
X3.7835Y-2.0228
X3.91Y-2.04
X4.01Y-2.04
X4.11Y-2.04
X4.11Y-2.21
X4.3571Y-5.2031
X4.363Y-4.9748
X4.4555Y-5.2031
X4.4614Y-4.9748
X4.611Y-4.8646
X4.611Y-5.1646
X4.711Y-4.8646
X4.711Y-5.1646
X4.811Y-4.8646
X4.811Y-5.1646
X4.83Y-2.33
X4.911Y-4.8646
X4.911Y-5.1646
X4.9276Y-2.5331
X4.9284Y-2.33
X5.011Y-4.8646
X5.011Y-5.1646
X5.0276Y-2.5331
X5.072Y-2.0323
X5.0728Y-2.1587
X5.1Y-2.7
X5.1Y-3.0
X5.1Y-3.1
X5.1Y-3.4
X5.111Y-4.8646
X5.111Y-5.1646
X5.1165Y-4.3079
X5.1165Y-4.6079
X5.1276Y-2.5331
X5.211Y-4.8646
X5.211Y-5.1646
X5.2118Y-2.2894
X5.2217Y-2.5331
X5.2335Y-2.7008
X5.2335Y-3.0008
X5.2362Y-3.0996
X5.2362Y-3.3996
X5.2524Y-4.3083
X5.2524Y-4.6083
X5.311Y-4.8646
X5.311Y-5.1646
X5.3217Y-2.5331
X5.3606Y-2.7039
X5.3606Y-3.0039
X5.3709Y-3.1965
X5.3709Y-3.3933
X5.372Y-2.0323
X5.3728Y-2.1587
X5.4087Y-2.2894
X5.4217Y-2.5331
X5.4736Y-2.9646
X5.4752Y-2.8252
X5.5055Y-3.0929
X5.5055Y-3.3929
X5.5224Y-4.7925
X5.5224Y-4.8909
X5.5232Y-5.0713
X5.5232Y-5.1697
X5.5413Y-2.4035
X5.5413Y-2.7035
X5.6366Y-3.0953
X5.6366Y-3.3953
X5.6705Y-2.4063
X5.6705Y-2.7063
X5.6705Y-2.9646
X5.672Y-2.8252
X5.7087Y-4.8031
X5.7087Y-5.1031
T3
X3.3465Y-5.1181
X3.401Y-5.2299
X3.4555Y-5.1181
X3.51Y-5.2299
X3.5646Y-5.1181
X3.6191Y-5.2299
X3.6496Y-2.548
X3.6736Y-5.1181
X3.7281Y-5.2299
X3.7496Y-2.548
X3.7827Y-5.1181
X3.8496Y-2.548
X3.9496Y-2.548
T4
X4.0551Y-2.7252
X4.0551Y-2.8252
X4.0551Y-2.9252
X4.0551Y-3.0252
X4.0551Y-3.1252
X4.0551Y-3.2252
X4.0551Y-3.3252
X4.0551Y-3.4252
X4.0551Y-3.5252
X4.0551Y-3.6252
X4.0551Y-3.7252
X4.0551Y-3.8252
X4.0551Y-3.9252
X4.0551Y-4.0252
X4.0551Y-4.1252
X4.0551Y-4.2252
X4.0551Y-4.3252
X4.0551Y-4.4252
X4.0551Y-4.5252
X4.0551Y-4.6252
X4.3051Y-4.6161
X4.4051Y-4.6161
X4.5051Y-4.6161
X4.7551Y-2.7252
X4.7551Y-2.8252
X4.7551Y-2.9252
X4.7551Y-3.0252
X4.7551Y-3.1252
X4.7551Y-3.2252
X4.7551Y-3.3252
X4.7551Y-3.4252
X4.7551Y-3.5252
X4.7551Y-3.6252
X4.7551Y-3.7252
X4.7551Y-3.8252
X4.7551Y-3.9252
X4.7551Y-4.0252
X4.7551Y-4.1252
X4.7551Y-4.2252
X4.7551Y-4.3252
X4.7551Y-4.4252
X4.7551Y-4.5252
X4.7551Y-4.6252
T5
X3.2795Y-4.337
X3.2795Y-4.437
X3.2795Y-4.537
X3.6472Y-2.7776
X3.6472Y-3.0776
X3.7807Y-2.7776
X3.7807Y-3.0776
X3.8035Y-2.3563
X4.1035Y-2.3563
T7
X3.0724Y-5.1299
X4.0567Y-5.1299
T3
G00X2.7961Y-4.4319
M15
G01X2.7961Y-4.5106
M16
G05
G00X2.8761Y-2.9068
M15
G01X2.8761Y-2.9855
M16
G05
G00X2.9371Y-2.6765
M15
G01X2.878Y-2.6765
M16
G05
G00X2.9371Y-3.2158
M15
G01X2.878Y-3.2158
M16
G05
G00X2.8748Y-4.6563
M15
G01X2.9535Y-4.6563
M16
G05
G00X3.0323Y-4.4319
M15
G01X3.0323Y-4.5106
M16
G05
T6
G00X5.4358Y-4.498
M15
G01X5.3965Y-4.498
M16
G05
G00X5.613Y-4.4783
M15
G01X5.613Y-4.5177
M16
G05
M30
