%TF.GenerationSoftware,KiCad,Pcbnew,7.0.11+dfsg-1build4*%
%TF.CreationDate,2025-08-31T20:07:58-05:00*%
%TF.ProjectId,PicoParanoia,5069636f-5061-4726-916e-6f69612e6b69,rev?*%
%TF.SameCoordinates,Original*%
%TF.FileFunction,Drillmap*%
%TF.FilePolarity,Positive*%
%FSLAX45Y45*%
G04 Gerber Fmt 4.5, Leading zero omitted, Abs format (unit mm)*
G04 Created by KiCad (PCBNEW 7.0.11+dfsg-1build4) date 2025-08-31 20:07:58*
%MOMM*%
%LPD*%
G01*
G04 APERTURE LIST*
%ADD10C,0.100000*%
%ADD11C,0.200000*%
%ADD12C,0.150000*%
%ADD13C,0.180000*%
%ADD14C,0.320000*%
G04 APERTURE END LIST*
D10*
X6500000Y-4700000D02*
X14900000Y-4700000D01*
X14900000Y-13900000D01*
X6500000Y-13900000D01*
X6500000Y-4700000D01*
D11*
D10*
X7190000Y-9055000D02*
X7290000Y-9155000D01*
X7290000Y-9055000D02*
X7190000Y-9155000D01*
X7190000Y-9855000D02*
X7290000Y-9955000D01*
X7290000Y-9855000D02*
X7190000Y-9955000D01*
X14118000Y-9316000D02*
X14218000Y-9416000D01*
X14218000Y-9316000D02*
X14118000Y-9416000D01*
X14118000Y-10116000D02*
X14218000Y-10216000D01*
X14218000Y-10116000D02*
X14118000Y-10216000D01*
D12*
X11021500Y-7238000D02*
G75*
G03*
X10871500Y-7238000I-75000J0D01*
G01*
X10871500Y-7238000D02*
G75*
G03*
X11021500Y-7238000I75000J0D01*
G01*
X11506500Y-7238000D02*
G75*
G03*
X11356500Y-7238000I-75000J0D01*
G01*
X11356500Y-7238000D02*
G75*
G03*
X11506500Y-7238000I75000J0D01*
G01*
D13*
X10916500Y-6845000D02*
X10916500Y-7025000D01*
X10826500Y-6935000D02*
X11006500Y-6935000D01*
X11461500Y-6845000D02*
X11461500Y-7025000D01*
X11371500Y-6935000D02*
X11551500Y-6935000D01*
D11*
X14677711Y-11045711D02*
X14677711Y-10904289D01*
X14536289Y-10904289D01*
X14536289Y-11045711D01*
X14677711Y-11045711D01*
D10*
X14607000Y-10875000D02*
X14607000Y-10875000D01*
X14607000Y-10875000D02*
G75*
G03*
X14607000Y-11075000I0J-100000D01*
G01*
X14607000Y-11075000D02*
X14607000Y-11075000D01*
X14607000Y-11075000D02*
G75*
G03*
X14607000Y-10875000I0J100000D01*
G01*
D11*
X14677711Y-11945711D02*
X14677711Y-11804289D01*
X14536289Y-11804289D01*
X14536289Y-11945711D01*
X14677711Y-11945711D01*
D10*
X14607000Y-11775000D02*
X14607000Y-11775000D01*
X14607000Y-11775000D02*
G75*
G03*
X14607000Y-11975000I0J-100000D01*
G01*
X14607000Y-11975000D02*
X14607000Y-11975000D01*
X14607000Y-11975000D02*
G75*
G03*
X14607000Y-11775000I0J100000D01*
G01*
D14*
X6900000Y-5260000D02*
X7060000Y-5100000D01*
X6900000Y-4940000D01*
X6740000Y-5100000D01*
X6900000Y-5260000D01*
X6900000Y-13660000D02*
X7060000Y-13500000D01*
X6900000Y-13340000D01*
X6740000Y-13500000D01*
X6900000Y-13660000D01*
X14500000Y-5260000D02*
X14660000Y-5100000D01*
X14500000Y-4940000D01*
X14340000Y-5100000D01*
X14500000Y-5260000D01*
X14500000Y-13660000D02*
X14660000Y-13500000D01*
X14500000Y-13340000D01*
X14340000Y-13500000D01*
X14500000Y-13660000D01*
D11*
X6755777Y-14216484D02*
X6755777Y-14016484D01*
X6755777Y-14016484D02*
X6803396Y-14016484D01*
X6803396Y-14016484D02*
X6831967Y-14026008D01*
X6831967Y-14026008D02*
X6851015Y-14045055D01*
X6851015Y-14045055D02*
X6860539Y-14064103D01*
X6860539Y-14064103D02*
X6870062Y-14102198D01*
X6870062Y-14102198D02*
X6870062Y-14130769D01*
X6870062Y-14130769D02*
X6860539Y-14168865D01*
X6860539Y-14168865D02*
X6851015Y-14187912D01*
X6851015Y-14187912D02*
X6831967Y-14206960D01*
X6831967Y-14206960D02*
X6803396Y-14216484D01*
X6803396Y-14216484D02*
X6755777Y-14216484D01*
X6955777Y-14216484D02*
X6955777Y-14083150D01*
X6955777Y-14121246D02*
X6965301Y-14102198D01*
X6965301Y-14102198D02*
X6974824Y-14092674D01*
X6974824Y-14092674D02*
X6993872Y-14083150D01*
X6993872Y-14083150D02*
X7012920Y-14083150D01*
X7079586Y-14216484D02*
X7079586Y-14083150D01*
X7079586Y-14016484D02*
X7070062Y-14026008D01*
X7070062Y-14026008D02*
X7079586Y-14035531D01*
X7079586Y-14035531D02*
X7089110Y-14026008D01*
X7089110Y-14026008D02*
X7079586Y-14016484D01*
X7079586Y-14016484D02*
X7079586Y-14035531D01*
X7203396Y-14216484D02*
X7184348Y-14206960D01*
X7184348Y-14206960D02*
X7174824Y-14187912D01*
X7174824Y-14187912D02*
X7174824Y-14016484D01*
X7308158Y-14216484D02*
X7289110Y-14206960D01*
X7289110Y-14206960D02*
X7279586Y-14187912D01*
X7279586Y-14187912D02*
X7279586Y-14016484D01*
X7536729Y-14216484D02*
X7536729Y-14016484D01*
X7536729Y-14016484D02*
X7603396Y-14159341D01*
X7603396Y-14159341D02*
X7670062Y-14016484D01*
X7670062Y-14016484D02*
X7670062Y-14216484D01*
X7851015Y-14216484D02*
X7851015Y-14111722D01*
X7851015Y-14111722D02*
X7841491Y-14092674D01*
X7841491Y-14092674D02*
X7822443Y-14083150D01*
X7822443Y-14083150D02*
X7784348Y-14083150D01*
X7784348Y-14083150D02*
X7765301Y-14092674D01*
X7851015Y-14206960D02*
X7831967Y-14216484D01*
X7831967Y-14216484D02*
X7784348Y-14216484D01*
X7784348Y-14216484D02*
X7765301Y-14206960D01*
X7765301Y-14206960D02*
X7755777Y-14187912D01*
X7755777Y-14187912D02*
X7755777Y-14168865D01*
X7755777Y-14168865D02*
X7765301Y-14149817D01*
X7765301Y-14149817D02*
X7784348Y-14140293D01*
X7784348Y-14140293D02*
X7831967Y-14140293D01*
X7831967Y-14140293D02*
X7851015Y-14130769D01*
X7946253Y-14083150D02*
X7946253Y-14283150D01*
X7946253Y-14092674D02*
X7965301Y-14083150D01*
X7965301Y-14083150D02*
X8003396Y-14083150D01*
X8003396Y-14083150D02*
X8022443Y-14092674D01*
X8022443Y-14092674D02*
X8031967Y-14102198D01*
X8031967Y-14102198D02*
X8041491Y-14121246D01*
X8041491Y-14121246D02*
X8041491Y-14178388D01*
X8041491Y-14178388D02*
X8031967Y-14197436D01*
X8031967Y-14197436D02*
X8022443Y-14206960D01*
X8022443Y-14206960D02*
X8003396Y-14216484D01*
X8003396Y-14216484D02*
X7965301Y-14216484D01*
X7965301Y-14216484D02*
X7946253Y-14206960D01*
X8127205Y-14197436D02*
X8136729Y-14206960D01*
X8136729Y-14206960D02*
X8127205Y-14216484D01*
X8127205Y-14216484D02*
X8117682Y-14206960D01*
X8117682Y-14206960D02*
X8127205Y-14197436D01*
X8127205Y-14197436D02*
X8127205Y-14216484D01*
X8127205Y-14092674D02*
X8136729Y-14102198D01*
X8136729Y-14102198D02*
X8127205Y-14111722D01*
X8127205Y-14111722D02*
X8117682Y-14102198D01*
X8117682Y-14102198D02*
X8127205Y-14092674D01*
X8127205Y-14092674D02*
X8127205Y-14111722D01*
D10*
X6395000Y-14495000D02*
X6495000Y-14595000D01*
X6495000Y-14495000D02*
X6395000Y-14595000D01*
D11*
X6860539Y-14636484D02*
X6746253Y-14636484D01*
X6803396Y-14636484D02*
X6803396Y-14436484D01*
X6803396Y-14436484D02*
X6784348Y-14465055D01*
X6784348Y-14465055D02*
X6765301Y-14484103D01*
X6765301Y-14484103D02*
X6746253Y-14493627D01*
X6946253Y-14617436D02*
X6955777Y-14626960D01*
X6955777Y-14626960D02*
X6946253Y-14636484D01*
X6946253Y-14636484D02*
X6936729Y-14626960D01*
X6936729Y-14626960D02*
X6946253Y-14617436D01*
X6946253Y-14617436D02*
X6946253Y-14636484D01*
X7079586Y-14436484D02*
X7098634Y-14436484D01*
X7098634Y-14436484D02*
X7117682Y-14446008D01*
X7117682Y-14446008D02*
X7127205Y-14455531D01*
X7127205Y-14455531D02*
X7136729Y-14474579D01*
X7136729Y-14474579D02*
X7146253Y-14512674D01*
X7146253Y-14512674D02*
X7146253Y-14560293D01*
X7146253Y-14560293D02*
X7136729Y-14598388D01*
X7136729Y-14598388D02*
X7127205Y-14617436D01*
X7127205Y-14617436D02*
X7117682Y-14626960D01*
X7117682Y-14626960D02*
X7098634Y-14636484D01*
X7098634Y-14636484D02*
X7079586Y-14636484D01*
X7079586Y-14636484D02*
X7060539Y-14626960D01*
X7060539Y-14626960D02*
X7051015Y-14617436D01*
X7051015Y-14617436D02*
X7041491Y-14598388D01*
X7041491Y-14598388D02*
X7031967Y-14560293D01*
X7031967Y-14560293D02*
X7031967Y-14512674D01*
X7031967Y-14512674D02*
X7041491Y-14474579D01*
X7041491Y-14474579D02*
X7051015Y-14455531D01*
X7051015Y-14455531D02*
X7060539Y-14446008D01*
X7060539Y-14446008D02*
X7079586Y-14436484D01*
X7270062Y-14436484D02*
X7289110Y-14436484D01*
X7289110Y-14436484D02*
X7308158Y-14446008D01*
X7308158Y-14446008D02*
X7317682Y-14455531D01*
X7317682Y-14455531D02*
X7327205Y-14474579D01*
X7327205Y-14474579D02*
X7336729Y-14512674D01*
X7336729Y-14512674D02*
X7336729Y-14560293D01*
X7336729Y-14560293D02*
X7327205Y-14598388D01*
X7327205Y-14598388D02*
X7317682Y-14617436D01*
X7317682Y-14617436D02*
X7308158Y-14626960D01*
X7308158Y-14626960D02*
X7289110Y-14636484D01*
X7289110Y-14636484D02*
X7270062Y-14636484D01*
X7270062Y-14636484D02*
X7251015Y-14626960D01*
X7251015Y-14626960D02*
X7241491Y-14617436D01*
X7241491Y-14617436D02*
X7231967Y-14598388D01*
X7231967Y-14598388D02*
X7222443Y-14560293D01*
X7222443Y-14560293D02*
X7222443Y-14512674D01*
X7222443Y-14512674D02*
X7231967Y-14474579D01*
X7231967Y-14474579D02*
X7241491Y-14455531D01*
X7241491Y-14455531D02*
X7251015Y-14446008D01*
X7251015Y-14446008D02*
X7270062Y-14436484D01*
X7460539Y-14436484D02*
X7479586Y-14436484D01*
X7479586Y-14436484D02*
X7498634Y-14446008D01*
X7498634Y-14446008D02*
X7508158Y-14455531D01*
X7508158Y-14455531D02*
X7517682Y-14474579D01*
X7517682Y-14474579D02*
X7527205Y-14512674D01*
X7527205Y-14512674D02*
X7527205Y-14560293D01*
X7527205Y-14560293D02*
X7517682Y-14598388D01*
X7517682Y-14598388D02*
X7508158Y-14617436D01*
X7508158Y-14617436D02*
X7498634Y-14626960D01*
X7498634Y-14626960D02*
X7479586Y-14636484D01*
X7479586Y-14636484D02*
X7460539Y-14636484D01*
X7460539Y-14636484D02*
X7441491Y-14626960D01*
X7441491Y-14626960D02*
X7431967Y-14617436D01*
X7431967Y-14617436D02*
X7422443Y-14598388D01*
X7422443Y-14598388D02*
X7412920Y-14560293D01*
X7412920Y-14560293D02*
X7412920Y-14512674D01*
X7412920Y-14512674D02*
X7422443Y-14474579D01*
X7422443Y-14474579D02*
X7431967Y-14455531D01*
X7431967Y-14455531D02*
X7441491Y-14446008D01*
X7441491Y-14446008D02*
X7460539Y-14436484D01*
X7612920Y-14636484D02*
X7612920Y-14503150D01*
X7612920Y-14522198D02*
X7622443Y-14512674D01*
X7622443Y-14512674D02*
X7641491Y-14503150D01*
X7641491Y-14503150D02*
X7670063Y-14503150D01*
X7670063Y-14503150D02*
X7689110Y-14512674D01*
X7689110Y-14512674D02*
X7698634Y-14531722D01*
X7698634Y-14531722D02*
X7698634Y-14636484D01*
X7698634Y-14531722D02*
X7708158Y-14512674D01*
X7708158Y-14512674D02*
X7727205Y-14503150D01*
X7727205Y-14503150D02*
X7755777Y-14503150D01*
X7755777Y-14503150D02*
X7774824Y-14512674D01*
X7774824Y-14512674D02*
X7784348Y-14531722D01*
X7784348Y-14531722D02*
X7784348Y-14636484D01*
X7879586Y-14636484D02*
X7879586Y-14503150D01*
X7879586Y-14522198D02*
X7889110Y-14512674D01*
X7889110Y-14512674D02*
X7908158Y-14503150D01*
X7908158Y-14503150D02*
X7936729Y-14503150D01*
X7936729Y-14503150D02*
X7955777Y-14512674D01*
X7955777Y-14512674D02*
X7965301Y-14531722D01*
X7965301Y-14531722D02*
X7965301Y-14636484D01*
X7965301Y-14531722D02*
X7974824Y-14512674D01*
X7974824Y-14512674D02*
X7993872Y-14503150D01*
X7993872Y-14503150D02*
X8022443Y-14503150D01*
X8022443Y-14503150D02*
X8041491Y-14512674D01*
X8041491Y-14512674D02*
X8051015Y-14531722D01*
X8051015Y-14531722D02*
X8051015Y-14636484D01*
X8441491Y-14426960D02*
X8270063Y-14684103D01*
X8698634Y-14436484D02*
X8717682Y-14436484D01*
X8717682Y-14436484D02*
X8736729Y-14446008D01*
X8736729Y-14446008D02*
X8746253Y-14455531D01*
X8746253Y-14455531D02*
X8755777Y-14474579D01*
X8755777Y-14474579D02*
X8765301Y-14512674D01*
X8765301Y-14512674D02*
X8765301Y-14560293D01*
X8765301Y-14560293D02*
X8755777Y-14598388D01*
X8755777Y-14598388D02*
X8746253Y-14617436D01*
X8746253Y-14617436D02*
X8736729Y-14626960D01*
X8736729Y-14626960D02*
X8717682Y-14636484D01*
X8717682Y-14636484D02*
X8698634Y-14636484D01*
X8698634Y-14636484D02*
X8679587Y-14626960D01*
X8679587Y-14626960D02*
X8670063Y-14617436D01*
X8670063Y-14617436D02*
X8660539Y-14598388D01*
X8660539Y-14598388D02*
X8651015Y-14560293D01*
X8651015Y-14560293D02*
X8651015Y-14512674D01*
X8651015Y-14512674D02*
X8660539Y-14474579D01*
X8660539Y-14474579D02*
X8670063Y-14455531D01*
X8670063Y-14455531D02*
X8679587Y-14446008D01*
X8679587Y-14446008D02*
X8698634Y-14436484D01*
X8851015Y-14617436D02*
X8860539Y-14626960D01*
X8860539Y-14626960D02*
X8851015Y-14636484D01*
X8851015Y-14636484D02*
X8841491Y-14626960D01*
X8841491Y-14626960D02*
X8851015Y-14617436D01*
X8851015Y-14617436D02*
X8851015Y-14636484D01*
X8984348Y-14436484D02*
X9003396Y-14436484D01*
X9003396Y-14436484D02*
X9022444Y-14446008D01*
X9022444Y-14446008D02*
X9031968Y-14455531D01*
X9031968Y-14455531D02*
X9041491Y-14474579D01*
X9041491Y-14474579D02*
X9051015Y-14512674D01*
X9051015Y-14512674D02*
X9051015Y-14560293D01*
X9051015Y-14560293D02*
X9041491Y-14598388D01*
X9041491Y-14598388D02*
X9031968Y-14617436D01*
X9031968Y-14617436D02*
X9022444Y-14626960D01*
X9022444Y-14626960D02*
X9003396Y-14636484D01*
X9003396Y-14636484D02*
X8984348Y-14636484D01*
X8984348Y-14636484D02*
X8965301Y-14626960D01*
X8965301Y-14626960D02*
X8955777Y-14617436D01*
X8955777Y-14617436D02*
X8946253Y-14598388D01*
X8946253Y-14598388D02*
X8936729Y-14560293D01*
X8936729Y-14560293D02*
X8936729Y-14512674D01*
X8936729Y-14512674D02*
X8946253Y-14474579D01*
X8946253Y-14474579D02*
X8955777Y-14455531D01*
X8955777Y-14455531D02*
X8965301Y-14446008D01*
X8965301Y-14446008D02*
X8984348Y-14436484D01*
X9117682Y-14436484D02*
X9241491Y-14436484D01*
X9241491Y-14436484D02*
X9174825Y-14512674D01*
X9174825Y-14512674D02*
X9203396Y-14512674D01*
X9203396Y-14512674D02*
X9222444Y-14522198D01*
X9222444Y-14522198D02*
X9231968Y-14531722D01*
X9231968Y-14531722D02*
X9241491Y-14550769D01*
X9241491Y-14550769D02*
X9241491Y-14598388D01*
X9241491Y-14598388D02*
X9231968Y-14617436D01*
X9231968Y-14617436D02*
X9222444Y-14626960D01*
X9222444Y-14626960D02*
X9203396Y-14636484D01*
X9203396Y-14636484D02*
X9146253Y-14636484D01*
X9146253Y-14636484D02*
X9127206Y-14626960D01*
X9127206Y-14626960D02*
X9117682Y-14617436D01*
X9336729Y-14636484D02*
X9374825Y-14636484D01*
X9374825Y-14636484D02*
X9393872Y-14626960D01*
X9393872Y-14626960D02*
X9403396Y-14617436D01*
X9403396Y-14617436D02*
X9422444Y-14588865D01*
X9422444Y-14588865D02*
X9431968Y-14550769D01*
X9431968Y-14550769D02*
X9431968Y-14474579D01*
X9431968Y-14474579D02*
X9422444Y-14455531D01*
X9422444Y-14455531D02*
X9412920Y-14446008D01*
X9412920Y-14446008D02*
X9393872Y-14436484D01*
X9393872Y-14436484D02*
X9355777Y-14436484D01*
X9355777Y-14436484D02*
X9336729Y-14446008D01*
X9336729Y-14446008D02*
X9327206Y-14455531D01*
X9327206Y-14455531D02*
X9317682Y-14474579D01*
X9317682Y-14474579D02*
X9317682Y-14522198D01*
X9317682Y-14522198D02*
X9327206Y-14541246D01*
X9327206Y-14541246D02*
X9336729Y-14550769D01*
X9336729Y-14550769D02*
X9355777Y-14560293D01*
X9355777Y-14560293D02*
X9393872Y-14560293D01*
X9393872Y-14560293D02*
X9412920Y-14550769D01*
X9412920Y-14550769D02*
X9422444Y-14541246D01*
X9422444Y-14541246D02*
X9431968Y-14522198D01*
X9603396Y-14503150D02*
X9603396Y-14636484D01*
X9555777Y-14426960D02*
X9508158Y-14569817D01*
X9508158Y-14569817D02*
X9631968Y-14569817D01*
X9698634Y-14436484D02*
X9698634Y-14474579D01*
X9774825Y-14436484D02*
X9774825Y-14474579D01*
X10070063Y-14712674D02*
X10060539Y-14703150D01*
X10060539Y-14703150D02*
X10041491Y-14674579D01*
X10041491Y-14674579D02*
X10031968Y-14655531D01*
X10031968Y-14655531D02*
X10022444Y-14626960D01*
X10022444Y-14626960D02*
X10012920Y-14579341D01*
X10012920Y-14579341D02*
X10012920Y-14541246D01*
X10012920Y-14541246D02*
X10022444Y-14493627D01*
X10022444Y-14493627D02*
X10031968Y-14465055D01*
X10031968Y-14465055D02*
X10041491Y-14446008D01*
X10041491Y-14446008D02*
X10060539Y-14417436D01*
X10060539Y-14417436D02*
X10070063Y-14407912D01*
X10231968Y-14503150D02*
X10231968Y-14636484D01*
X10184349Y-14426960D02*
X10136730Y-14569817D01*
X10136730Y-14569817D02*
X10260539Y-14569817D01*
X10489111Y-14636484D02*
X10489111Y-14436484D01*
X10574825Y-14636484D02*
X10574825Y-14531722D01*
X10574825Y-14531722D02*
X10565301Y-14512674D01*
X10565301Y-14512674D02*
X10546253Y-14503150D01*
X10546253Y-14503150D02*
X10517682Y-14503150D01*
X10517682Y-14503150D02*
X10498634Y-14512674D01*
X10498634Y-14512674D02*
X10489111Y-14522198D01*
X10698634Y-14636484D02*
X10679587Y-14626960D01*
X10679587Y-14626960D02*
X10670063Y-14617436D01*
X10670063Y-14617436D02*
X10660539Y-14598388D01*
X10660539Y-14598388D02*
X10660539Y-14541246D01*
X10660539Y-14541246D02*
X10670063Y-14522198D01*
X10670063Y-14522198D02*
X10679587Y-14512674D01*
X10679587Y-14512674D02*
X10698634Y-14503150D01*
X10698634Y-14503150D02*
X10727206Y-14503150D01*
X10727206Y-14503150D02*
X10746253Y-14512674D01*
X10746253Y-14512674D02*
X10755777Y-14522198D01*
X10755777Y-14522198D02*
X10765301Y-14541246D01*
X10765301Y-14541246D02*
X10765301Y-14598388D01*
X10765301Y-14598388D02*
X10755777Y-14617436D01*
X10755777Y-14617436D02*
X10746253Y-14626960D01*
X10746253Y-14626960D02*
X10727206Y-14636484D01*
X10727206Y-14636484D02*
X10698634Y-14636484D01*
X10879587Y-14636484D02*
X10860539Y-14626960D01*
X10860539Y-14626960D02*
X10851015Y-14607912D01*
X10851015Y-14607912D02*
X10851015Y-14436484D01*
X11031968Y-14626960D02*
X11012920Y-14636484D01*
X11012920Y-14636484D02*
X10974825Y-14636484D01*
X10974825Y-14636484D02*
X10955777Y-14626960D01*
X10955777Y-14626960D02*
X10946253Y-14607912D01*
X10946253Y-14607912D02*
X10946253Y-14531722D01*
X10946253Y-14531722D02*
X10955777Y-14512674D01*
X10955777Y-14512674D02*
X10974825Y-14503150D01*
X10974825Y-14503150D02*
X11012920Y-14503150D01*
X11012920Y-14503150D02*
X11031968Y-14512674D01*
X11031968Y-14512674D02*
X11041492Y-14531722D01*
X11041492Y-14531722D02*
X11041492Y-14550769D01*
X11041492Y-14550769D02*
X10946253Y-14569817D01*
X11117682Y-14626960D02*
X11136730Y-14636484D01*
X11136730Y-14636484D02*
X11174825Y-14636484D01*
X11174825Y-14636484D02*
X11193872Y-14626960D01*
X11193872Y-14626960D02*
X11203396Y-14607912D01*
X11203396Y-14607912D02*
X11203396Y-14598388D01*
X11203396Y-14598388D02*
X11193872Y-14579341D01*
X11193872Y-14579341D02*
X11174825Y-14569817D01*
X11174825Y-14569817D02*
X11146253Y-14569817D01*
X11146253Y-14569817D02*
X11127206Y-14560293D01*
X11127206Y-14560293D02*
X11117682Y-14541246D01*
X11117682Y-14541246D02*
X11117682Y-14531722D01*
X11117682Y-14531722D02*
X11127206Y-14512674D01*
X11127206Y-14512674D02*
X11146253Y-14503150D01*
X11146253Y-14503150D02*
X11174825Y-14503150D01*
X11174825Y-14503150D02*
X11193872Y-14512674D01*
X11270063Y-14712674D02*
X11279587Y-14703150D01*
X11279587Y-14703150D02*
X11298634Y-14674579D01*
X11298634Y-14674579D02*
X11308158Y-14655531D01*
X11308158Y-14655531D02*
X11317682Y-14626960D01*
X11317682Y-14626960D02*
X11327206Y-14579341D01*
X11327206Y-14579341D02*
X11327206Y-14541246D01*
X11327206Y-14541246D02*
X11317682Y-14493627D01*
X11317682Y-14493627D02*
X11308158Y-14465055D01*
X11308158Y-14465055D02*
X11298634Y-14446008D01*
X11298634Y-14446008D02*
X11279587Y-14417436D01*
X11279587Y-14417436D02*
X11270063Y-14407912D01*
X11631968Y-14712674D02*
X11622444Y-14703150D01*
X11622444Y-14703150D02*
X11603396Y-14674579D01*
X11603396Y-14674579D02*
X11593872Y-14655531D01*
X11593872Y-14655531D02*
X11584349Y-14626960D01*
X11584349Y-14626960D02*
X11574825Y-14579341D01*
X11574825Y-14579341D02*
X11574825Y-14541246D01*
X11574825Y-14541246D02*
X11584349Y-14493627D01*
X11584349Y-14493627D02*
X11593872Y-14465055D01*
X11593872Y-14465055D02*
X11603396Y-14446008D01*
X11603396Y-14446008D02*
X11622444Y-14417436D01*
X11622444Y-14417436D02*
X11631968Y-14407912D01*
X11708158Y-14503150D02*
X11708158Y-14636484D01*
X11708158Y-14522198D02*
X11717682Y-14512674D01*
X11717682Y-14512674D02*
X11736730Y-14503150D01*
X11736730Y-14503150D02*
X11765301Y-14503150D01*
X11765301Y-14503150D02*
X11784349Y-14512674D01*
X11784349Y-14512674D02*
X11793872Y-14531722D01*
X11793872Y-14531722D02*
X11793872Y-14636484D01*
X11917682Y-14636484D02*
X11898634Y-14626960D01*
X11898634Y-14626960D02*
X11889111Y-14617436D01*
X11889111Y-14617436D02*
X11879587Y-14598388D01*
X11879587Y-14598388D02*
X11879587Y-14541246D01*
X11879587Y-14541246D02*
X11889111Y-14522198D01*
X11889111Y-14522198D02*
X11898634Y-14512674D01*
X11898634Y-14512674D02*
X11917682Y-14503150D01*
X11917682Y-14503150D02*
X11946253Y-14503150D01*
X11946253Y-14503150D02*
X11965301Y-14512674D01*
X11965301Y-14512674D02*
X11974825Y-14522198D01*
X11974825Y-14522198D02*
X11984349Y-14541246D01*
X11984349Y-14541246D02*
X11984349Y-14598388D01*
X11984349Y-14598388D02*
X11974825Y-14617436D01*
X11974825Y-14617436D02*
X11965301Y-14626960D01*
X11965301Y-14626960D02*
X11946253Y-14636484D01*
X11946253Y-14636484D02*
X11917682Y-14636484D01*
X12041492Y-14503150D02*
X12117682Y-14503150D01*
X12070063Y-14436484D02*
X12070063Y-14607912D01*
X12070063Y-14607912D02*
X12079587Y-14626960D01*
X12079587Y-14626960D02*
X12098634Y-14636484D01*
X12098634Y-14636484D02*
X12117682Y-14636484D01*
X12336730Y-14503150D02*
X12336730Y-14703150D01*
X12336730Y-14512674D02*
X12355777Y-14503150D01*
X12355777Y-14503150D02*
X12393873Y-14503150D01*
X12393873Y-14503150D02*
X12412920Y-14512674D01*
X12412920Y-14512674D02*
X12422444Y-14522198D01*
X12422444Y-14522198D02*
X12431968Y-14541246D01*
X12431968Y-14541246D02*
X12431968Y-14598388D01*
X12431968Y-14598388D02*
X12422444Y-14617436D01*
X12422444Y-14617436D02*
X12412920Y-14626960D01*
X12412920Y-14626960D02*
X12393873Y-14636484D01*
X12393873Y-14636484D02*
X12355777Y-14636484D01*
X12355777Y-14636484D02*
X12336730Y-14626960D01*
X12546253Y-14636484D02*
X12527206Y-14626960D01*
X12527206Y-14626960D02*
X12517682Y-14607912D01*
X12517682Y-14607912D02*
X12517682Y-14436484D01*
X12708158Y-14636484D02*
X12708158Y-14531722D01*
X12708158Y-14531722D02*
X12698634Y-14512674D01*
X12698634Y-14512674D02*
X12679587Y-14503150D01*
X12679587Y-14503150D02*
X12641492Y-14503150D01*
X12641492Y-14503150D02*
X12622444Y-14512674D01*
X12708158Y-14626960D02*
X12689111Y-14636484D01*
X12689111Y-14636484D02*
X12641492Y-14636484D01*
X12641492Y-14636484D02*
X12622444Y-14626960D01*
X12622444Y-14626960D02*
X12612920Y-14607912D01*
X12612920Y-14607912D02*
X12612920Y-14588865D01*
X12612920Y-14588865D02*
X12622444Y-14569817D01*
X12622444Y-14569817D02*
X12641492Y-14560293D01*
X12641492Y-14560293D02*
X12689111Y-14560293D01*
X12689111Y-14560293D02*
X12708158Y-14550769D01*
X12774825Y-14503150D02*
X12851015Y-14503150D01*
X12803396Y-14436484D02*
X12803396Y-14607912D01*
X12803396Y-14607912D02*
X12812920Y-14626960D01*
X12812920Y-14626960D02*
X12831968Y-14636484D01*
X12831968Y-14636484D02*
X12851015Y-14636484D01*
X12993873Y-14626960D02*
X12974825Y-14636484D01*
X12974825Y-14636484D02*
X12936730Y-14636484D01*
X12936730Y-14636484D02*
X12917682Y-14626960D01*
X12917682Y-14626960D02*
X12908158Y-14607912D01*
X12908158Y-14607912D02*
X12908158Y-14531722D01*
X12908158Y-14531722D02*
X12917682Y-14512674D01*
X12917682Y-14512674D02*
X12936730Y-14503150D01*
X12936730Y-14503150D02*
X12974825Y-14503150D01*
X12974825Y-14503150D02*
X12993873Y-14512674D01*
X12993873Y-14512674D02*
X13003396Y-14531722D01*
X13003396Y-14531722D02*
X13003396Y-14550769D01*
X13003396Y-14550769D02*
X12908158Y-14569817D01*
X13174825Y-14636484D02*
X13174825Y-14436484D01*
X13174825Y-14626960D02*
X13155777Y-14636484D01*
X13155777Y-14636484D02*
X13117682Y-14636484D01*
X13117682Y-14636484D02*
X13098634Y-14626960D01*
X13098634Y-14626960D02*
X13089111Y-14617436D01*
X13089111Y-14617436D02*
X13079587Y-14598388D01*
X13079587Y-14598388D02*
X13079587Y-14541246D01*
X13079587Y-14541246D02*
X13089111Y-14522198D01*
X13089111Y-14522198D02*
X13098634Y-14512674D01*
X13098634Y-14512674D02*
X13117682Y-14503150D01*
X13117682Y-14503150D02*
X13155777Y-14503150D01*
X13155777Y-14503150D02*
X13174825Y-14512674D01*
X13251015Y-14712674D02*
X13260539Y-14703150D01*
X13260539Y-14703150D02*
X13279587Y-14674579D01*
X13279587Y-14674579D02*
X13289111Y-14655531D01*
X13289111Y-14655531D02*
X13298634Y-14626960D01*
X13298634Y-14626960D02*
X13308158Y-14579341D01*
X13308158Y-14579341D02*
X13308158Y-14541246D01*
X13308158Y-14541246D02*
X13298634Y-14493627D01*
X13298634Y-14493627D02*
X13289111Y-14465055D01*
X13289111Y-14465055D02*
X13279587Y-14446008D01*
X13279587Y-14446008D02*
X13260539Y-14417436D01*
X13260539Y-14417436D02*
X13251015Y-14407912D01*
D12*
X6495000Y-14809000D02*
G75*
G03*
X6345000Y-14809000I-75000J0D01*
G01*
X6345000Y-14809000D02*
G75*
G03*
X6495000Y-14809000I75000J0D01*
G01*
D11*
X6860539Y-14900484D02*
X6746253Y-14900484D01*
X6803396Y-14900484D02*
X6803396Y-14700484D01*
X6803396Y-14700484D02*
X6784348Y-14729055D01*
X6784348Y-14729055D02*
X6765301Y-14748103D01*
X6765301Y-14748103D02*
X6746253Y-14757627D01*
X6946253Y-14881436D02*
X6955777Y-14890960D01*
X6955777Y-14890960D02*
X6946253Y-14900484D01*
X6946253Y-14900484D02*
X6936729Y-14890960D01*
X6936729Y-14890960D02*
X6946253Y-14881436D01*
X6946253Y-14881436D02*
X6946253Y-14900484D01*
X7136729Y-14700484D02*
X7041491Y-14700484D01*
X7041491Y-14700484D02*
X7031967Y-14795722D01*
X7031967Y-14795722D02*
X7041491Y-14786198D01*
X7041491Y-14786198D02*
X7060539Y-14776674D01*
X7060539Y-14776674D02*
X7108158Y-14776674D01*
X7108158Y-14776674D02*
X7127205Y-14786198D01*
X7127205Y-14786198D02*
X7136729Y-14795722D01*
X7136729Y-14795722D02*
X7146253Y-14814769D01*
X7146253Y-14814769D02*
X7146253Y-14862388D01*
X7146253Y-14862388D02*
X7136729Y-14881436D01*
X7136729Y-14881436D02*
X7127205Y-14890960D01*
X7127205Y-14890960D02*
X7108158Y-14900484D01*
X7108158Y-14900484D02*
X7060539Y-14900484D01*
X7060539Y-14900484D02*
X7041491Y-14890960D01*
X7041491Y-14890960D02*
X7031967Y-14881436D01*
X7270062Y-14700484D02*
X7289110Y-14700484D01*
X7289110Y-14700484D02*
X7308158Y-14710008D01*
X7308158Y-14710008D02*
X7317682Y-14719531D01*
X7317682Y-14719531D02*
X7327205Y-14738579D01*
X7327205Y-14738579D02*
X7336729Y-14776674D01*
X7336729Y-14776674D02*
X7336729Y-14824293D01*
X7336729Y-14824293D02*
X7327205Y-14862388D01*
X7327205Y-14862388D02*
X7317682Y-14881436D01*
X7317682Y-14881436D02*
X7308158Y-14890960D01*
X7308158Y-14890960D02*
X7289110Y-14900484D01*
X7289110Y-14900484D02*
X7270062Y-14900484D01*
X7270062Y-14900484D02*
X7251015Y-14890960D01*
X7251015Y-14890960D02*
X7241491Y-14881436D01*
X7241491Y-14881436D02*
X7231967Y-14862388D01*
X7231967Y-14862388D02*
X7222443Y-14824293D01*
X7222443Y-14824293D02*
X7222443Y-14776674D01*
X7222443Y-14776674D02*
X7231967Y-14738579D01*
X7231967Y-14738579D02*
X7241491Y-14719531D01*
X7241491Y-14719531D02*
X7251015Y-14710008D01*
X7251015Y-14710008D02*
X7270062Y-14700484D01*
X7460539Y-14700484D02*
X7479586Y-14700484D01*
X7479586Y-14700484D02*
X7498634Y-14710008D01*
X7498634Y-14710008D02*
X7508158Y-14719531D01*
X7508158Y-14719531D02*
X7517682Y-14738579D01*
X7517682Y-14738579D02*
X7527205Y-14776674D01*
X7527205Y-14776674D02*
X7527205Y-14824293D01*
X7527205Y-14824293D02*
X7517682Y-14862388D01*
X7517682Y-14862388D02*
X7508158Y-14881436D01*
X7508158Y-14881436D02*
X7498634Y-14890960D01*
X7498634Y-14890960D02*
X7479586Y-14900484D01*
X7479586Y-14900484D02*
X7460539Y-14900484D01*
X7460539Y-14900484D02*
X7441491Y-14890960D01*
X7441491Y-14890960D02*
X7431967Y-14881436D01*
X7431967Y-14881436D02*
X7422443Y-14862388D01*
X7422443Y-14862388D02*
X7412920Y-14824293D01*
X7412920Y-14824293D02*
X7412920Y-14776674D01*
X7412920Y-14776674D02*
X7422443Y-14738579D01*
X7422443Y-14738579D02*
X7431967Y-14719531D01*
X7431967Y-14719531D02*
X7441491Y-14710008D01*
X7441491Y-14710008D02*
X7460539Y-14700484D01*
X7612920Y-14900484D02*
X7612920Y-14767150D01*
X7612920Y-14786198D02*
X7622443Y-14776674D01*
X7622443Y-14776674D02*
X7641491Y-14767150D01*
X7641491Y-14767150D02*
X7670063Y-14767150D01*
X7670063Y-14767150D02*
X7689110Y-14776674D01*
X7689110Y-14776674D02*
X7698634Y-14795722D01*
X7698634Y-14795722D02*
X7698634Y-14900484D01*
X7698634Y-14795722D02*
X7708158Y-14776674D01*
X7708158Y-14776674D02*
X7727205Y-14767150D01*
X7727205Y-14767150D02*
X7755777Y-14767150D01*
X7755777Y-14767150D02*
X7774824Y-14776674D01*
X7774824Y-14776674D02*
X7784348Y-14795722D01*
X7784348Y-14795722D02*
X7784348Y-14900484D01*
X7879586Y-14900484D02*
X7879586Y-14767150D01*
X7879586Y-14786198D02*
X7889110Y-14776674D01*
X7889110Y-14776674D02*
X7908158Y-14767150D01*
X7908158Y-14767150D02*
X7936729Y-14767150D01*
X7936729Y-14767150D02*
X7955777Y-14776674D01*
X7955777Y-14776674D02*
X7965301Y-14795722D01*
X7965301Y-14795722D02*
X7965301Y-14900484D01*
X7965301Y-14795722D02*
X7974824Y-14776674D01*
X7974824Y-14776674D02*
X7993872Y-14767150D01*
X7993872Y-14767150D02*
X8022443Y-14767150D01*
X8022443Y-14767150D02*
X8041491Y-14776674D01*
X8041491Y-14776674D02*
X8051015Y-14795722D01*
X8051015Y-14795722D02*
X8051015Y-14900484D01*
X8441491Y-14690960D02*
X8270063Y-14948103D01*
X8698634Y-14700484D02*
X8717682Y-14700484D01*
X8717682Y-14700484D02*
X8736729Y-14710008D01*
X8736729Y-14710008D02*
X8746253Y-14719531D01*
X8746253Y-14719531D02*
X8755777Y-14738579D01*
X8755777Y-14738579D02*
X8765301Y-14776674D01*
X8765301Y-14776674D02*
X8765301Y-14824293D01*
X8765301Y-14824293D02*
X8755777Y-14862388D01*
X8755777Y-14862388D02*
X8746253Y-14881436D01*
X8746253Y-14881436D02*
X8736729Y-14890960D01*
X8736729Y-14890960D02*
X8717682Y-14900484D01*
X8717682Y-14900484D02*
X8698634Y-14900484D01*
X8698634Y-14900484D02*
X8679587Y-14890960D01*
X8679587Y-14890960D02*
X8670063Y-14881436D01*
X8670063Y-14881436D02*
X8660539Y-14862388D01*
X8660539Y-14862388D02*
X8651015Y-14824293D01*
X8651015Y-14824293D02*
X8651015Y-14776674D01*
X8651015Y-14776674D02*
X8660539Y-14738579D01*
X8660539Y-14738579D02*
X8670063Y-14719531D01*
X8670063Y-14719531D02*
X8679587Y-14710008D01*
X8679587Y-14710008D02*
X8698634Y-14700484D01*
X8851015Y-14881436D02*
X8860539Y-14890960D01*
X8860539Y-14890960D02*
X8851015Y-14900484D01*
X8851015Y-14900484D02*
X8841491Y-14890960D01*
X8841491Y-14890960D02*
X8851015Y-14881436D01*
X8851015Y-14881436D02*
X8851015Y-14900484D01*
X8984348Y-14700484D02*
X9003396Y-14700484D01*
X9003396Y-14700484D02*
X9022444Y-14710008D01*
X9022444Y-14710008D02*
X9031968Y-14719531D01*
X9031968Y-14719531D02*
X9041491Y-14738579D01*
X9041491Y-14738579D02*
X9051015Y-14776674D01*
X9051015Y-14776674D02*
X9051015Y-14824293D01*
X9051015Y-14824293D02*
X9041491Y-14862388D01*
X9041491Y-14862388D02*
X9031968Y-14881436D01*
X9031968Y-14881436D02*
X9022444Y-14890960D01*
X9022444Y-14890960D02*
X9003396Y-14900484D01*
X9003396Y-14900484D02*
X8984348Y-14900484D01*
X8984348Y-14900484D02*
X8965301Y-14890960D01*
X8965301Y-14890960D02*
X8955777Y-14881436D01*
X8955777Y-14881436D02*
X8946253Y-14862388D01*
X8946253Y-14862388D02*
X8936729Y-14824293D01*
X8936729Y-14824293D02*
X8936729Y-14776674D01*
X8936729Y-14776674D02*
X8946253Y-14738579D01*
X8946253Y-14738579D02*
X8955777Y-14719531D01*
X8955777Y-14719531D02*
X8965301Y-14710008D01*
X8965301Y-14710008D02*
X8984348Y-14700484D01*
X9231968Y-14700484D02*
X9136729Y-14700484D01*
X9136729Y-14700484D02*
X9127206Y-14795722D01*
X9127206Y-14795722D02*
X9136729Y-14786198D01*
X9136729Y-14786198D02*
X9155777Y-14776674D01*
X9155777Y-14776674D02*
X9203396Y-14776674D01*
X9203396Y-14776674D02*
X9222444Y-14786198D01*
X9222444Y-14786198D02*
X9231968Y-14795722D01*
X9231968Y-14795722D02*
X9241491Y-14814769D01*
X9241491Y-14814769D02*
X9241491Y-14862388D01*
X9241491Y-14862388D02*
X9231968Y-14881436D01*
X9231968Y-14881436D02*
X9222444Y-14890960D01*
X9222444Y-14890960D02*
X9203396Y-14900484D01*
X9203396Y-14900484D02*
X9155777Y-14900484D01*
X9155777Y-14900484D02*
X9136729Y-14890960D01*
X9136729Y-14890960D02*
X9127206Y-14881436D01*
X9336729Y-14900484D02*
X9374825Y-14900484D01*
X9374825Y-14900484D02*
X9393872Y-14890960D01*
X9393872Y-14890960D02*
X9403396Y-14881436D01*
X9403396Y-14881436D02*
X9422444Y-14852865D01*
X9422444Y-14852865D02*
X9431968Y-14814769D01*
X9431968Y-14814769D02*
X9431968Y-14738579D01*
X9431968Y-14738579D02*
X9422444Y-14719531D01*
X9422444Y-14719531D02*
X9412920Y-14710008D01*
X9412920Y-14710008D02*
X9393872Y-14700484D01*
X9393872Y-14700484D02*
X9355777Y-14700484D01*
X9355777Y-14700484D02*
X9336729Y-14710008D01*
X9336729Y-14710008D02*
X9327206Y-14719531D01*
X9327206Y-14719531D02*
X9317682Y-14738579D01*
X9317682Y-14738579D02*
X9317682Y-14786198D01*
X9317682Y-14786198D02*
X9327206Y-14805246D01*
X9327206Y-14805246D02*
X9336729Y-14814769D01*
X9336729Y-14814769D02*
X9355777Y-14824293D01*
X9355777Y-14824293D02*
X9393872Y-14824293D01*
X9393872Y-14824293D02*
X9412920Y-14814769D01*
X9412920Y-14814769D02*
X9422444Y-14805246D01*
X9422444Y-14805246D02*
X9431968Y-14786198D01*
X9622444Y-14900484D02*
X9508158Y-14900484D01*
X9565301Y-14900484D02*
X9565301Y-14700484D01*
X9565301Y-14700484D02*
X9546253Y-14729055D01*
X9546253Y-14729055D02*
X9527206Y-14748103D01*
X9527206Y-14748103D02*
X9508158Y-14757627D01*
X9698634Y-14700484D02*
X9698634Y-14738579D01*
X9774825Y-14700484D02*
X9774825Y-14738579D01*
X10070063Y-14976674D02*
X10060539Y-14967150D01*
X10060539Y-14967150D02*
X10041491Y-14938579D01*
X10041491Y-14938579D02*
X10031968Y-14919531D01*
X10031968Y-14919531D02*
X10022444Y-14890960D01*
X10022444Y-14890960D02*
X10012920Y-14843341D01*
X10012920Y-14843341D02*
X10012920Y-14805246D01*
X10012920Y-14805246D02*
X10022444Y-14757627D01*
X10022444Y-14757627D02*
X10031968Y-14729055D01*
X10031968Y-14729055D02*
X10041491Y-14710008D01*
X10041491Y-14710008D02*
X10060539Y-14681436D01*
X10060539Y-14681436D02*
X10070063Y-14671912D01*
X10136730Y-14719531D02*
X10146253Y-14710008D01*
X10146253Y-14710008D02*
X10165301Y-14700484D01*
X10165301Y-14700484D02*
X10212920Y-14700484D01*
X10212920Y-14700484D02*
X10231968Y-14710008D01*
X10231968Y-14710008D02*
X10241491Y-14719531D01*
X10241491Y-14719531D02*
X10251015Y-14738579D01*
X10251015Y-14738579D02*
X10251015Y-14757627D01*
X10251015Y-14757627D02*
X10241491Y-14786198D01*
X10241491Y-14786198D02*
X10127206Y-14900484D01*
X10127206Y-14900484D02*
X10251015Y-14900484D01*
X10489111Y-14900484D02*
X10489111Y-14700484D01*
X10574825Y-14900484D02*
X10574825Y-14795722D01*
X10574825Y-14795722D02*
X10565301Y-14776674D01*
X10565301Y-14776674D02*
X10546253Y-14767150D01*
X10546253Y-14767150D02*
X10517682Y-14767150D01*
X10517682Y-14767150D02*
X10498634Y-14776674D01*
X10498634Y-14776674D02*
X10489111Y-14786198D01*
X10698634Y-14900484D02*
X10679587Y-14890960D01*
X10679587Y-14890960D02*
X10670063Y-14881436D01*
X10670063Y-14881436D02*
X10660539Y-14862388D01*
X10660539Y-14862388D02*
X10660539Y-14805246D01*
X10660539Y-14805246D02*
X10670063Y-14786198D01*
X10670063Y-14786198D02*
X10679587Y-14776674D01*
X10679587Y-14776674D02*
X10698634Y-14767150D01*
X10698634Y-14767150D02*
X10727206Y-14767150D01*
X10727206Y-14767150D02*
X10746253Y-14776674D01*
X10746253Y-14776674D02*
X10755777Y-14786198D01*
X10755777Y-14786198D02*
X10765301Y-14805246D01*
X10765301Y-14805246D02*
X10765301Y-14862388D01*
X10765301Y-14862388D02*
X10755777Y-14881436D01*
X10755777Y-14881436D02*
X10746253Y-14890960D01*
X10746253Y-14890960D02*
X10727206Y-14900484D01*
X10727206Y-14900484D02*
X10698634Y-14900484D01*
X10879587Y-14900484D02*
X10860539Y-14890960D01*
X10860539Y-14890960D02*
X10851015Y-14871912D01*
X10851015Y-14871912D02*
X10851015Y-14700484D01*
X11031968Y-14890960D02*
X11012920Y-14900484D01*
X11012920Y-14900484D02*
X10974825Y-14900484D01*
X10974825Y-14900484D02*
X10955777Y-14890960D01*
X10955777Y-14890960D02*
X10946253Y-14871912D01*
X10946253Y-14871912D02*
X10946253Y-14795722D01*
X10946253Y-14795722D02*
X10955777Y-14776674D01*
X10955777Y-14776674D02*
X10974825Y-14767150D01*
X10974825Y-14767150D02*
X11012920Y-14767150D01*
X11012920Y-14767150D02*
X11031968Y-14776674D01*
X11031968Y-14776674D02*
X11041492Y-14795722D01*
X11041492Y-14795722D02*
X11041492Y-14814769D01*
X11041492Y-14814769D02*
X10946253Y-14833817D01*
X11117682Y-14890960D02*
X11136730Y-14900484D01*
X11136730Y-14900484D02*
X11174825Y-14900484D01*
X11174825Y-14900484D02*
X11193872Y-14890960D01*
X11193872Y-14890960D02*
X11203396Y-14871912D01*
X11203396Y-14871912D02*
X11203396Y-14862388D01*
X11203396Y-14862388D02*
X11193872Y-14843341D01*
X11193872Y-14843341D02*
X11174825Y-14833817D01*
X11174825Y-14833817D02*
X11146253Y-14833817D01*
X11146253Y-14833817D02*
X11127206Y-14824293D01*
X11127206Y-14824293D02*
X11117682Y-14805246D01*
X11117682Y-14805246D02*
X11117682Y-14795722D01*
X11117682Y-14795722D02*
X11127206Y-14776674D01*
X11127206Y-14776674D02*
X11146253Y-14767150D01*
X11146253Y-14767150D02*
X11174825Y-14767150D01*
X11174825Y-14767150D02*
X11193872Y-14776674D01*
X11270063Y-14976674D02*
X11279587Y-14967150D01*
X11279587Y-14967150D02*
X11298634Y-14938579D01*
X11298634Y-14938579D02*
X11308158Y-14919531D01*
X11308158Y-14919531D02*
X11317682Y-14890960D01*
X11317682Y-14890960D02*
X11327206Y-14843341D01*
X11327206Y-14843341D02*
X11327206Y-14805246D01*
X11327206Y-14805246D02*
X11317682Y-14757627D01*
X11317682Y-14757627D02*
X11308158Y-14729055D01*
X11308158Y-14729055D02*
X11298634Y-14710008D01*
X11298634Y-14710008D02*
X11279587Y-14681436D01*
X11279587Y-14681436D02*
X11270063Y-14671912D01*
X11631968Y-14976674D02*
X11622444Y-14967150D01*
X11622444Y-14967150D02*
X11603396Y-14938579D01*
X11603396Y-14938579D02*
X11593872Y-14919531D01*
X11593872Y-14919531D02*
X11584349Y-14890960D01*
X11584349Y-14890960D02*
X11574825Y-14843341D01*
X11574825Y-14843341D02*
X11574825Y-14805246D01*
X11574825Y-14805246D02*
X11584349Y-14757627D01*
X11584349Y-14757627D02*
X11593872Y-14729055D01*
X11593872Y-14729055D02*
X11603396Y-14710008D01*
X11603396Y-14710008D02*
X11622444Y-14681436D01*
X11622444Y-14681436D02*
X11631968Y-14671912D01*
X11708158Y-14767150D02*
X11708158Y-14900484D01*
X11708158Y-14786198D02*
X11717682Y-14776674D01*
X11717682Y-14776674D02*
X11736730Y-14767150D01*
X11736730Y-14767150D02*
X11765301Y-14767150D01*
X11765301Y-14767150D02*
X11784349Y-14776674D01*
X11784349Y-14776674D02*
X11793872Y-14795722D01*
X11793872Y-14795722D02*
X11793872Y-14900484D01*
X11917682Y-14900484D02*
X11898634Y-14890960D01*
X11898634Y-14890960D02*
X11889111Y-14881436D01*
X11889111Y-14881436D02*
X11879587Y-14862388D01*
X11879587Y-14862388D02*
X11879587Y-14805246D01*
X11879587Y-14805246D02*
X11889111Y-14786198D01*
X11889111Y-14786198D02*
X11898634Y-14776674D01*
X11898634Y-14776674D02*
X11917682Y-14767150D01*
X11917682Y-14767150D02*
X11946253Y-14767150D01*
X11946253Y-14767150D02*
X11965301Y-14776674D01*
X11965301Y-14776674D02*
X11974825Y-14786198D01*
X11974825Y-14786198D02*
X11984349Y-14805246D01*
X11984349Y-14805246D02*
X11984349Y-14862388D01*
X11984349Y-14862388D02*
X11974825Y-14881436D01*
X11974825Y-14881436D02*
X11965301Y-14890960D01*
X11965301Y-14890960D02*
X11946253Y-14900484D01*
X11946253Y-14900484D02*
X11917682Y-14900484D01*
X12041492Y-14767150D02*
X12117682Y-14767150D01*
X12070063Y-14700484D02*
X12070063Y-14871912D01*
X12070063Y-14871912D02*
X12079587Y-14890960D01*
X12079587Y-14890960D02*
X12098634Y-14900484D01*
X12098634Y-14900484D02*
X12117682Y-14900484D01*
X12336730Y-14767150D02*
X12336730Y-14967150D01*
X12336730Y-14776674D02*
X12355777Y-14767150D01*
X12355777Y-14767150D02*
X12393873Y-14767150D01*
X12393873Y-14767150D02*
X12412920Y-14776674D01*
X12412920Y-14776674D02*
X12422444Y-14786198D01*
X12422444Y-14786198D02*
X12431968Y-14805246D01*
X12431968Y-14805246D02*
X12431968Y-14862388D01*
X12431968Y-14862388D02*
X12422444Y-14881436D01*
X12422444Y-14881436D02*
X12412920Y-14890960D01*
X12412920Y-14890960D02*
X12393873Y-14900484D01*
X12393873Y-14900484D02*
X12355777Y-14900484D01*
X12355777Y-14900484D02*
X12336730Y-14890960D01*
X12546253Y-14900484D02*
X12527206Y-14890960D01*
X12527206Y-14890960D02*
X12517682Y-14871912D01*
X12517682Y-14871912D02*
X12517682Y-14700484D01*
X12708158Y-14900484D02*
X12708158Y-14795722D01*
X12708158Y-14795722D02*
X12698634Y-14776674D01*
X12698634Y-14776674D02*
X12679587Y-14767150D01*
X12679587Y-14767150D02*
X12641492Y-14767150D01*
X12641492Y-14767150D02*
X12622444Y-14776674D01*
X12708158Y-14890960D02*
X12689111Y-14900484D01*
X12689111Y-14900484D02*
X12641492Y-14900484D01*
X12641492Y-14900484D02*
X12622444Y-14890960D01*
X12622444Y-14890960D02*
X12612920Y-14871912D01*
X12612920Y-14871912D02*
X12612920Y-14852865D01*
X12612920Y-14852865D02*
X12622444Y-14833817D01*
X12622444Y-14833817D02*
X12641492Y-14824293D01*
X12641492Y-14824293D02*
X12689111Y-14824293D01*
X12689111Y-14824293D02*
X12708158Y-14814769D01*
X12774825Y-14767150D02*
X12851015Y-14767150D01*
X12803396Y-14700484D02*
X12803396Y-14871912D01*
X12803396Y-14871912D02*
X12812920Y-14890960D01*
X12812920Y-14890960D02*
X12831968Y-14900484D01*
X12831968Y-14900484D02*
X12851015Y-14900484D01*
X12993873Y-14890960D02*
X12974825Y-14900484D01*
X12974825Y-14900484D02*
X12936730Y-14900484D01*
X12936730Y-14900484D02*
X12917682Y-14890960D01*
X12917682Y-14890960D02*
X12908158Y-14871912D01*
X12908158Y-14871912D02*
X12908158Y-14795722D01*
X12908158Y-14795722D02*
X12917682Y-14776674D01*
X12917682Y-14776674D02*
X12936730Y-14767150D01*
X12936730Y-14767150D02*
X12974825Y-14767150D01*
X12974825Y-14767150D02*
X12993873Y-14776674D01*
X12993873Y-14776674D02*
X13003396Y-14795722D01*
X13003396Y-14795722D02*
X13003396Y-14814769D01*
X13003396Y-14814769D02*
X12908158Y-14833817D01*
X13174825Y-14900484D02*
X13174825Y-14700484D01*
X13174825Y-14890960D02*
X13155777Y-14900484D01*
X13155777Y-14900484D02*
X13117682Y-14900484D01*
X13117682Y-14900484D02*
X13098634Y-14890960D01*
X13098634Y-14890960D02*
X13089111Y-14881436D01*
X13089111Y-14881436D02*
X13079587Y-14862388D01*
X13079587Y-14862388D02*
X13079587Y-14805246D01*
X13079587Y-14805246D02*
X13089111Y-14786198D01*
X13089111Y-14786198D02*
X13098634Y-14776674D01*
X13098634Y-14776674D02*
X13117682Y-14767150D01*
X13117682Y-14767150D02*
X13155777Y-14767150D01*
X13155777Y-14767150D02*
X13174825Y-14776674D01*
X13251015Y-14976674D02*
X13260539Y-14967150D01*
X13260539Y-14967150D02*
X13279587Y-14938579D01*
X13279587Y-14938579D02*
X13289111Y-14919531D01*
X13289111Y-14919531D02*
X13298634Y-14890960D01*
X13298634Y-14890960D02*
X13308158Y-14843341D01*
X13308158Y-14843341D02*
X13308158Y-14805246D01*
X13308158Y-14805246D02*
X13298634Y-14757627D01*
X13298634Y-14757627D02*
X13289111Y-14729055D01*
X13289111Y-14729055D02*
X13279587Y-14710008D01*
X13279587Y-14710008D02*
X13260539Y-14681436D01*
X13260539Y-14681436D02*
X13251015Y-14671912D01*
D13*
X6405000Y-14989000D02*
X6405000Y-15169000D01*
X6315000Y-15079000D02*
X6495000Y-15079000D01*
D11*
X6860539Y-15170484D02*
X6746253Y-15170484D01*
X6803396Y-15170484D02*
X6803396Y-14970484D01*
X6803396Y-14970484D02*
X6784348Y-14999055D01*
X6784348Y-14999055D02*
X6765301Y-15018103D01*
X6765301Y-15018103D02*
X6746253Y-15027627D01*
X6946253Y-15151436D02*
X6955777Y-15160960D01*
X6955777Y-15160960D02*
X6946253Y-15170484D01*
X6946253Y-15170484D02*
X6936729Y-15160960D01*
X6936729Y-15160960D02*
X6946253Y-15151436D01*
X6946253Y-15151436D02*
X6946253Y-15170484D01*
X7070062Y-15056198D02*
X7051015Y-15046674D01*
X7051015Y-15046674D02*
X7041491Y-15037150D01*
X7041491Y-15037150D02*
X7031967Y-15018103D01*
X7031967Y-15018103D02*
X7031967Y-15008579D01*
X7031967Y-15008579D02*
X7041491Y-14989531D01*
X7041491Y-14989531D02*
X7051015Y-14980008D01*
X7051015Y-14980008D02*
X7070062Y-14970484D01*
X7070062Y-14970484D02*
X7108158Y-14970484D01*
X7108158Y-14970484D02*
X7127205Y-14980008D01*
X7127205Y-14980008D02*
X7136729Y-14989531D01*
X7136729Y-14989531D02*
X7146253Y-15008579D01*
X7146253Y-15008579D02*
X7146253Y-15018103D01*
X7146253Y-15018103D02*
X7136729Y-15037150D01*
X7136729Y-15037150D02*
X7127205Y-15046674D01*
X7127205Y-15046674D02*
X7108158Y-15056198D01*
X7108158Y-15056198D02*
X7070062Y-15056198D01*
X7070062Y-15056198D02*
X7051015Y-15065722D01*
X7051015Y-15065722D02*
X7041491Y-15075246D01*
X7041491Y-15075246D02*
X7031967Y-15094293D01*
X7031967Y-15094293D02*
X7031967Y-15132388D01*
X7031967Y-15132388D02*
X7041491Y-15151436D01*
X7041491Y-15151436D02*
X7051015Y-15160960D01*
X7051015Y-15160960D02*
X7070062Y-15170484D01*
X7070062Y-15170484D02*
X7108158Y-15170484D01*
X7108158Y-15170484D02*
X7127205Y-15160960D01*
X7127205Y-15160960D02*
X7136729Y-15151436D01*
X7136729Y-15151436D02*
X7146253Y-15132388D01*
X7146253Y-15132388D02*
X7146253Y-15094293D01*
X7146253Y-15094293D02*
X7136729Y-15075246D01*
X7136729Y-15075246D02*
X7127205Y-15065722D01*
X7127205Y-15065722D02*
X7108158Y-15056198D01*
X7270062Y-14970484D02*
X7289110Y-14970484D01*
X7289110Y-14970484D02*
X7308158Y-14980008D01*
X7308158Y-14980008D02*
X7317682Y-14989531D01*
X7317682Y-14989531D02*
X7327205Y-15008579D01*
X7327205Y-15008579D02*
X7336729Y-15046674D01*
X7336729Y-15046674D02*
X7336729Y-15094293D01*
X7336729Y-15094293D02*
X7327205Y-15132388D01*
X7327205Y-15132388D02*
X7317682Y-15151436D01*
X7317682Y-15151436D02*
X7308158Y-15160960D01*
X7308158Y-15160960D02*
X7289110Y-15170484D01*
X7289110Y-15170484D02*
X7270062Y-15170484D01*
X7270062Y-15170484D02*
X7251015Y-15160960D01*
X7251015Y-15160960D02*
X7241491Y-15151436D01*
X7241491Y-15151436D02*
X7231967Y-15132388D01*
X7231967Y-15132388D02*
X7222443Y-15094293D01*
X7222443Y-15094293D02*
X7222443Y-15046674D01*
X7222443Y-15046674D02*
X7231967Y-15008579D01*
X7231967Y-15008579D02*
X7241491Y-14989531D01*
X7241491Y-14989531D02*
X7251015Y-14980008D01*
X7251015Y-14980008D02*
X7270062Y-14970484D01*
X7460539Y-14970484D02*
X7479586Y-14970484D01*
X7479586Y-14970484D02*
X7498634Y-14980008D01*
X7498634Y-14980008D02*
X7508158Y-14989531D01*
X7508158Y-14989531D02*
X7517682Y-15008579D01*
X7517682Y-15008579D02*
X7527205Y-15046674D01*
X7527205Y-15046674D02*
X7527205Y-15094293D01*
X7527205Y-15094293D02*
X7517682Y-15132388D01*
X7517682Y-15132388D02*
X7508158Y-15151436D01*
X7508158Y-15151436D02*
X7498634Y-15160960D01*
X7498634Y-15160960D02*
X7479586Y-15170484D01*
X7479586Y-15170484D02*
X7460539Y-15170484D01*
X7460539Y-15170484D02*
X7441491Y-15160960D01*
X7441491Y-15160960D02*
X7431967Y-15151436D01*
X7431967Y-15151436D02*
X7422443Y-15132388D01*
X7422443Y-15132388D02*
X7412920Y-15094293D01*
X7412920Y-15094293D02*
X7412920Y-15046674D01*
X7412920Y-15046674D02*
X7422443Y-15008579D01*
X7422443Y-15008579D02*
X7431967Y-14989531D01*
X7431967Y-14989531D02*
X7441491Y-14980008D01*
X7441491Y-14980008D02*
X7460539Y-14970484D01*
X7612920Y-15170484D02*
X7612920Y-15037150D01*
X7612920Y-15056198D02*
X7622443Y-15046674D01*
X7622443Y-15046674D02*
X7641491Y-15037150D01*
X7641491Y-15037150D02*
X7670063Y-15037150D01*
X7670063Y-15037150D02*
X7689110Y-15046674D01*
X7689110Y-15046674D02*
X7698634Y-15065722D01*
X7698634Y-15065722D02*
X7698634Y-15170484D01*
X7698634Y-15065722D02*
X7708158Y-15046674D01*
X7708158Y-15046674D02*
X7727205Y-15037150D01*
X7727205Y-15037150D02*
X7755777Y-15037150D01*
X7755777Y-15037150D02*
X7774824Y-15046674D01*
X7774824Y-15046674D02*
X7784348Y-15065722D01*
X7784348Y-15065722D02*
X7784348Y-15170484D01*
X7879586Y-15170484D02*
X7879586Y-15037150D01*
X7879586Y-15056198D02*
X7889110Y-15046674D01*
X7889110Y-15046674D02*
X7908158Y-15037150D01*
X7908158Y-15037150D02*
X7936729Y-15037150D01*
X7936729Y-15037150D02*
X7955777Y-15046674D01*
X7955777Y-15046674D02*
X7965301Y-15065722D01*
X7965301Y-15065722D02*
X7965301Y-15170484D01*
X7965301Y-15065722D02*
X7974824Y-15046674D01*
X7974824Y-15046674D02*
X7993872Y-15037150D01*
X7993872Y-15037150D02*
X8022443Y-15037150D01*
X8022443Y-15037150D02*
X8041491Y-15046674D01*
X8041491Y-15046674D02*
X8051015Y-15065722D01*
X8051015Y-15065722D02*
X8051015Y-15170484D01*
X8441491Y-14960960D02*
X8270063Y-15218103D01*
X8698634Y-14970484D02*
X8717682Y-14970484D01*
X8717682Y-14970484D02*
X8736729Y-14980008D01*
X8736729Y-14980008D02*
X8746253Y-14989531D01*
X8746253Y-14989531D02*
X8755777Y-15008579D01*
X8755777Y-15008579D02*
X8765301Y-15046674D01*
X8765301Y-15046674D02*
X8765301Y-15094293D01*
X8765301Y-15094293D02*
X8755777Y-15132388D01*
X8755777Y-15132388D02*
X8746253Y-15151436D01*
X8746253Y-15151436D02*
X8736729Y-15160960D01*
X8736729Y-15160960D02*
X8717682Y-15170484D01*
X8717682Y-15170484D02*
X8698634Y-15170484D01*
X8698634Y-15170484D02*
X8679587Y-15160960D01*
X8679587Y-15160960D02*
X8670063Y-15151436D01*
X8670063Y-15151436D02*
X8660539Y-15132388D01*
X8660539Y-15132388D02*
X8651015Y-15094293D01*
X8651015Y-15094293D02*
X8651015Y-15046674D01*
X8651015Y-15046674D02*
X8660539Y-15008579D01*
X8660539Y-15008579D02*
X8670063Y-14989531D01*
X8670063Y-14989531D02*
X8679587Y-14980008D01*
X8679587Y-14980008D02*
X8698634Y-14970484D01*
X8851015Y-15151436D02*
X8860539Y-15160960D01*
X8860539Y-15160960D02*
X8851015Y-15170484D01*
X8851015Y-15170484D02*
X8841491Y-15160960D01*
X8841491Y-15160960D02*
X8851015Y-15151436D01*
X8851015Y-15151436D02*
X8851015Y-15170484D01*
X8984348Y-14970484D02*
X9003396Y-14970484D01*
X9003396Y-14970484D02*
X9022444Y-14980008D01*
X9022444Y-14980008D02*
X9031968Y-14989531D01*
X9031968Y-14989531D02*
X9041491Y-15008579D01*
X9041491Y-15008579D02*
X9051015Y-15046674D01*
X9051015Y-15046674D02*
X9051015Y-15094293D01*
X9051015Y-15094293D02*
X9041491Y-15132388D01*
X9041491Y-15132388D02*
X9031968Y-15151436D01*
X9031968Y-15151436D02*
X9022444Y-15160960D01*
X9022444Y-15160960D02*
X9003396Y-15170484D01*
X9003396Y-15170484D02*
X8984348Y-15170484D01*
X8984348Y-15170484D02*
X8965301Y-15160960D01*
X8965301Y-15160960D02*
X8955777Y-15151436D01*
X8955777Y-15151436D02*
X8946253Y-15132388D01*
X8946253Y-15132388D02*
X8936729Y-15094293D01*
X8936729Y-15094293D02*
X8936729Y-15046674D01*
X8936729Y-15046674D02*
X8946253Y-15008579D01*
X8946253Y-15008579D02*
X8955777Y-14989531D01*
X8955777Y-14989531D02*
X8965301Y-14980008D01*
X8965301Y-14980008D02*
X8984348Y-14970484D01*
X9117682Y-14970484D02*
X9251015Y-14970484D01*
X9251015Y-14970484D02*
X9165301Y-15170484D01*
X9365301Y-14970484D02*
X9384349Y-14970484D01*
X9384349Y-14970484D02*
X9403396Y-14980008D01*
X9403396Y-14980008D02*
X9412920Y-14989531D01*
X9412920Y-14989531D02*
X9422444Y-15008579D01*
X9422444Y-15008579D02*
X9431968Y-15046674D01*
X9431968Y-15046674D02*
X9431968Y-15094293D01*
X9431968Y-15094293D02*
X9422444Y-15132388D01*
X9422444Y-15132388D02*
X9412920Y-15151436D01*
X9412920Y-15151436D02*
X9403396Y-15160960D01*
X9403396Y-15160960D02*
X9384349Y-15170484D01*
X9384349Y-15170484D02*
X9365301Y-15170484D01*
X9365301Y-15170484D02*
X9346253Y-15160960D01*
X9346253Y-15160960D02*
X9336729Y-15151436D01*
X9336729Y-15151436D02*
X9327206Y-15132388D01*
X9327206Y-15132388D02*
X9317682Y-15094293D01*
X9317682Y-15094293D02*
X9317682Y-15046674D01*
X9317682Y-15046674D02*
X9327206Y-15008579D01*
X9327206Y-15008579D02*
X9336729Y-14989531D01*
X9336729Y-14989531D02*
X9346253Y-14980008D01*
X9346253Y-14980008D02*
X9365301Y-14970484D01*
X9527206Y-15170484D02*
X9565301Y-15170484D01*
X9565301Y-15170484D02*
X9584349Y-15160960D01*
X9584349Y-15160960D02*
X9593872Y-15151436D01*
X9593872Y-15151436D02*
X9612920Y-15122865D01*
X9612920Y-15122865D02*
X9622444Y-15084769D01*
X9622444Y-15084769D02*
X9622444Y-15008579D01*
X9622444Y-15008579D02*
X9612920Y-14989531D01*
X9612920Y-14989531D02*
X9603396Y-14980008D01*
X9603396Y-14980008D02*
X9584349Y-14970484D01*
X9584349Y-14970484D02*
X9546253Y-14970484D01*
X9546253Y-14970484D02*
X9527206Y-14980008D01*
X9527206Y-14980008D02*
X9517682Y-14989531D01*
X9517682Y-14989531D02*
X9508158Y-15008579D01*
X9508158Y-15008579D02*
X9508158Y-15056198D01*
X9508158Y-15056198D02*
X9517682Y-15075246D01*
X9517682Y-15075246D02*
X9527206Y-15084769D01*
X9527206Y-15084769D02*
X9546253Y-15094293D01*
X9546253Y-15094293D02*
X9584349Y-15094293D01*
X9584349Y-15094293D02*
X9603396Y-15084769D01*
X9603396Y-15084769D02*
X9612920Y-15075246D01*
X9612920Y-15075246D02*
X9622444Y-15056198D01*
X9698634Y-14970484D02*
X9698634Y-15008579D01*
X9774825Y-14970484D02*
X9774825Y-15008579D01*
X10070063Y-15246674D02*
X10060539Y-15237150D01*
X10060539Y-15237150D02*
X10041491Y-15208579D01*
X10041491Y-15208579D02*
X10031968Y-15189531D01*
X10031968Y-15189531D02*
X10022444Y-15160960D01*
X10022444Y-15160960D02*
X10012920Y-15113341D01*
X10012920Y-15113341D02*
X10012920Y-15075246D01*
X10012920Y-15075246D02*
X10022444Y-15027627D01*
X10022444Y-15027627D02*
X10031968Y-14999055D01*
X10031968Y-14999055D02*
X10041491Y-14980008D01*
X10041491Y-14980008D02*
X10060539Y-14951436D01*
X10060539Y-14951436D02*
X10070063Y-14941912D01*
X10136730Y-14989531D02*
X10146253Y-14980008D01*
X10146253Y-14980008D02*
X10165301Y-14970484D01*
X10165301Y-14970484D02*
X10212920Y-14970484D01*
X10212920Y-14970484D02*
X10231968Y-14980008D01*
X10231968Y-14980008D02*
X10241491Y-14989531D01*
X10241491Y-14989531D02*
X10251015Y-15008579D01*
X10251015Y-15008579D02*
X10251015Y-15027627D01*
X10251015Y-15027627D02*
X10241491Y-15056198D01*
X10241491Y-15056198D02*
X10127206Y-15170484D01*
X10127206Y-15170484D02*
X10251015Y-15170484D01*
X10489111Y-15170484D02*
X10489111Y-14970484D01*
X10574825Y-15170484D02*
X10574825Y-15065722D01*
X10574825Y-15065722D02*
X10565301Y-15046674D01*
X10565301Y-15046674D02*
X10546253Y-15037150D01*
X10546253Y-15037150D02*
X10517682Y-15037150D01*
X10517682Y-15037150D02*
X10498634Y-15046674D01*
X10498634Y-15046674D02*
X10489111Y-15056198D01*
X10698634Y-15170484D02*
X10679587Y-15160960D01*
X10679587Y-15160960D02*
X10670063Y-15151436D01*
X10670063Y-15151436D02*
X10660539Y-15132388D01*
X10660539Y-15132388D02*
X10660539Y-15075246D01*
X10660539Y-15075246D02*
X10670063Y-15056198D01*
X10670063Y-15056198D02*
X10679587Y-15046674D01*
X10679587Y-15046674D02*
X10698634Y-15037150D01*
X10698634Y-15037150D02*
X10727206Y-15037150D01*
X10727206Y-15037150D02*
X10746253Y-15046674D01*
X10746253Y-15046674D02*
X10755777Y-15056198D01*
X10755777Y-15056198D02*
X10765301Y-15075246D01*
X10765301Y-15075246D02*
X10765301Y-15132388D01*
X10765301Y-15132388D02*
X10755777Y-15151436D01*
X10755777Y-15151436D02*
X10746253Y-15160960D01*
X10746253Y-15160960D02*
X10727206Y-15170484D01*
X10727206Y-15170484D02*
X10698634Y-15170484D01*
X10879587Y-15170484D02*
X10860539Y-15160960D01*
X10860539Y-15160960D02*
X10851015Y-15141912D01*
X10851015Y-15141912D02*
X10851015Y-14970484D01*
X11031968Y-15160960D02*
X11012920Y-15170484D01*
X11012920Y-15170484D02*
X10974825Y-15170484D01*
X10974825Y-15170484D02*
X10955777Y-15160960D01*
X10955777Y-15160960D02*
X10946253Y-15141912D01*
X10946253Y-15141912D02*
X10946253Y-15065722D01*
X10946253Y-15065722D02*
X10955777Y-15046674D01*
X10955777Y-15046674D02*
X10974825Y-15037150D01*
X10974825Y-15037150D02*
X11012920Y-15037150D01*
X11012920Y-15037150D02*
X11031968Y-15046674D01*
X11031968Y-15046674D02*
X11041492Y-15065722D01*
X11041492Y-15065722D02*
X11041492Y-15084769D01*
X11041492Y-15084769D02*
X10946253Y-15103817D01*
X11117682Y-15160960D02*
X11136730Y-15170484D01*
X11136730Y-15170484D02*
X11174825Y-15170484D01*
X11174825Y-15170484D02*
X11193872Y-15160960D01*
X11193872Y-15160960D02*
X11203396Y-15141912D01*
X11203396Y-15141912D02*
X11203396Y-15132388D01*
X11203396Y-15132388D02*
X11193872Y-15113341D01*
X11193872Y-15113341D02*
X11174825Y-15103817D01*
X11174825Y-15103817D02*
X11146253Y-15103817D01*
X11146253Y-15103817D02*
X11127206Y-15094293D01*
X11127206Y-15094293D02*
X11117682Y-15075246D01*
X11117682Y-15075246D02*
X11117682Y-15065722D01*
X11117682Y-15065722D02*
X11127206Y-15046674D01*
X11127206Y-15046674D02*
X11146253Y-15037150D01*
X11146253Y-15037150D02*
X11174825Y-15037150D01*
X11174825Y-15037150D02*
X11193872Y-15046674D01*
X11270063Y-15246674D02*
X11279587Y-15237150D01*
X11279587Y-15237150D02*
X11298634Y-15208579D01*
X11298634Y-15208579D02*
X11308158Y-15189531D01*
X11308158Y-15189531D02*
X11317682Y-15160960D01*
X11317682Y-15160960D02*
X11327206Y-15113341D01*
X11327206Y-15113341D02*
X11327206Y-15075246D01*
X11327206Y-15075246D02*
X11317682Y-15027627D01*
X11317682Y-15027627D02*
X11308158Y-14999055D01*
X11308158Y-14999055D02*
X11298634Y-14980008D01*
X11298634Y-14980008D02*
X11279587Y-14951436D01*
X11279587Y-14951436D02*
X11270063Y-14941912D01*
X11631968Y-15246674D02*
X11622444Y-15237150D01*
X11622444Y-15237150D02*
X11603396Y-15208579D01*
X11603396Y-15208579D02*
X11593872Y-15189531D01*
X11593872Y-15189531D02*
X11584349Y-15160960D01*
X11584349Y-15160960D02*
X11574825Y-15113341D01*
X11574825Y-15113341D02*
X11574825Y-15075246D01*
X11574825Y-15075246D02*
X11584349Y-15027627D01*
X11584349Y-15027627D02*
X11593872Y-14999055D01*
X11593872Y-14999055D02*
X11603396Y-14980008D01*
X11603396Y-14980008D02*
X11622444Y-14951436D01*
X11622444Y-14951436D02*
X11631968Y-14941912D01*
X11708158Y-15037150D02*
X11708158Y-15170484D01*
X11708158Y-15056198D02*
X11717682Y-15046674D01*
X11717682Y-15046674D02*
X11736730Y-15037150D01*
X11736730Y-15037150D02*
X11765301Y-15037150D01*
X11765301Y-15037150D02*
X11784349Y-15046674D01*
X11784349Y-15046674D02*
X11793872Y-15065722D01*
X11793872Y-15065722D02*
X11793872Y-15170484D01*
X11917682Y-15170484D02*
X11898634Y-15160960D01*
X11898634Y-15160960D02*
X11889111Y-15151436D01*
X11889111Y-15151436D02*
X11879587Y-15132388D01*
X11879587Y-15132388D02*
X11879587Y-15075246D01*
X11879587Y-15075246D02*
X11889111Y-15056198D01*
X11889111Y-15056198D02*
X11898634Y-15046674D01*
X11898634Y-15046674D02*
X11917682Y-15037150D01*
X11917682Y-15037150D02*
X11946253Y-15037150D01*
X11946253Y-15037150D02*
X11965301Y-15046674D01*
X11965301Y-15046674D02*
X11974825Y-15056198D01*
X11974825Y-15056198D02*
X11984349Y-15075246D01*
X11984349Y-15075246D02*
X11984349Y-15132388D01*
X11984349Y-15132388D02*
X11974825Y-15151436D01*
X11974825Y-15151436D02*
X11965301Y-15160960D01*
X11965301Y-15160960D02*
X11946253Y-15170484D01*
X11946253Y-15170484D02*
X11917682Y-15170484D01*
X12041492Y-15037150D02*
X12117682Y-15037150D01*
X12070063Y-14970484D02*
X12070063Y-15141912D01*
X12070063Y-15141912D02*
X12079587Y-15160960D01*
X12079587Y-15160960D02*
X12098634Y-15170484D01*
X12098634Y-15170484D02*
X12117682Y-15170484D01*
X12336730Y-15037150D02*
X12336730Y-15237150D01*
X12336730Y-15046674D02*
X12355777Y-15037150D01*
X12355777Y-15037150D02*
X12393873Y-15037150D01*
X12393873Y-15037150D02*
X12412920Y-15046674D01*
X12412920Y-15046674D02*
X12422444Y-15056198D01*
X12422444Y-15056198D02*
X12431968Y-15075246D01*
X12431968Y-15075246D02*
X12431968Y-15132388D01*
X12431968Y-15132388D02*
X12422444Y-15151436D01*
X12422444Y-15151436D02*
X12412920Y-15160960D01*
X12412920Y-15160960D02*
X12393873Y-15170484D01*
X12393873Y-15170484D02*
X12355777Y-15170484D01*
X12355777Y-15170484D02*
X12336730Y-15160960D01*
X12546253Y-15170484D02*
X12527206Y-15160960D01*
X12527206Y-15160960D02*
X12517682Y-15141912D01*
X12517682Y-15141912D02*
X12517682Y-14970484D01*
X12708158Y-15170484D02*
X12708158Y-15065722D01*
X12708158Y-15065722D02*
X12698634Y-15046674D01*
X12698634Y-15046674D02*
X12679587Y-15037150D01*
X12679587Y-15037150D02*
X12641492Y-15037150D01*
X12641492Y-15037150D02*
X12622444Y-15046674D01*
X12708158Y-15160960D02*
X12689111Y-15170484D01*
X12689111Y-15170484D02*
X12641492Y-15170484D01*
X12641492Y-15170484D02*
X12622444Y-15160960D01*
X12622444Y-15160960D02*
X12612920Y-15141912D01*
X12612920Y-15141912D02*
X12612920Y-15122865D01*
X12612920Y-15122865D02*
X12622444Y-15103817D01*
X12622444Y-15103817D02*
X12641492Y-15094293D01*
X12641492Y-15094293D02*
X12689111Y-15094293D01*
X12689111Y-15094293D02*
X12708158Y-15084769D01*
X12774825Y-15037150D02*
X12851015Y-15037150D01*
X12803396Y-14970484D02*
X12803396Y-15141912D01*
X12803396Y-15141912D02*
X12812920Y-15160960D01*
X12812920Y-15160960D02*
X12831968Y-15170484D01*
X12831968Y-15170484D02*
X12851015Y-15170484D01*
X12993873Y-15160960D02*
X12974825Y-15170484D01*
X12974825Y-15170484D02*
X12936730Y-15170484D01*
X12936730Y-15170484D02*
X12917682Y-15160960D01*
X12917682Y-15160960D02*
X12908158Y-15141912D01*
X12908158Y-15141912D02*
X12908158Y-15065722D01*
X12908158Y-15065722D02*
X12917682Y-15046674D01*
X12917682Y-15046674D02*
X12936730Y-15037150D01*
X12936730Y-15037150D02*
X12974825Y-15037150D01*
X12974825Y-15037150D02*
X12993873Y-15046674D01*
X12993873Y-15046674D02*
X13003396Y-15065722D01*
X13003396Y-15065722D02*
X13003396Y-15084769D01*
X13003396Y-15084769D02*
X12908158Y-15103817D01*
X13174825Y-15170484D02*
X13174825Y-14970484D01*
X13174825Y-15160960D02*
X13155777Y-15170484D01*
X13155777Y-15170484D02*
X13117682Y-15170484D01*
X13117682Y-15170484D02*
X13098634Y-15160960D01*
X13098634Y-15160960D02*
X13089111Y-15151436D01*
X13089111Y-15151436D02*
X13079587Y-15132388D01*
X13079587Y-15132388D02*
X13079587Y-15075246D01*
X13079587Y-15075246D02*
X13089111Y-15056198D01*
X13089111Y-15056198D02*
X13098634Y-15046674D01*
X13098634Y-15046674D02*
X13117682Y-15037150D01*
X13117682Y-15037150D02*
X13155777Y-15037150D01*
X13155777Y-15037150D02*
X13174825Y-15046674D01*
X13251015Y-15246674D02*
X13260539Y-15237150D01*
X13260539Y-15237150D02*
X13279587Y-15208579D01*
X13279587Y-15208579D02*
X13289111Y-15189531D01*
X13289111Y-15189531D02*
X13298634Y-15160960D01*
X13298634Y-15160960D02*
X13308158Y-15113341D01*
X13308158Y-15113341D02*
X13308158Y-15075246D01*
X13308158Y-15075246D02*
X13298634Y-15027627D01*
X13298634Y-15027627D02*
X13289111Y-14999055D01*
X13289111Y-14999055D02*
X13279587Y-14980008D01*
X13279587Y-14980008D02*
X13260539Y-14951436D01*
X13260539Y-14951436D02*
X13251015Y-14941912D01*
X6465711Y-15449711D02*
X6465711Y-15308289D01*
X6324289Y-15308289D01*
X6324289Y-15449711D01*
X6465711Y-15449711D01*
X6746253Y-15289531D02*
X6755777Y-15280008D01*
X6755777Y-15280008D02*
X6774824Y-15270484D01*
X6774824Y-15270484D02*
X6822443Y-15270484D01*
X6822443Y-15270484D02*
X6841491Y-15280008D01*
X6841491Y-15280008D02*
X6851015Y-15289531D01*
X6851015Y-15289531D02*
X6860539Y-15308579D01*
X6860539Y-15308579D02*
X6860539Y-15327627D01*
X6860539Y-15327627D02*
X6851015Y-15356198D01*
X6851015Y-15356198D02*
X6736729Y-15470484D01*
X6736729Y-15470484D02*
X6860539Y-15470484D01*
X6946253Y-15451436D02*
X6955777Y-15460960D01*
X6955777Y-15460960D02*
X6946253Y-15470484D01*
X6946253Y-15470484D02*
X6936729Y-15460960D01*
X6936729Y-15460960D02*
X6946253Y-15451436D01*
X6946253Y-15451436D02*
X6946253Y-15470484D01*
X7079586Y-15270484D02*
X7098634Y-15270484D01*
X7098634Y-15270484D02*
X7117682Y-15280008D01*
X7117682Y-15280008D02*
X7127205Y-15289531D01*
X7127205Y-15289531D02*
X7136729Y-15308579D01*
X7136729Y-15308579D02*
X7146253Y-15346674D01*
X7146253Y-15346674D02*
X7146253Y-15394293D01*
X7146253Y-15394293D02*
X7136729Y-15432388D01*
X7136729Y-15432388D02*
X7127205Y-15451436D01*
X7127205Y-15451436D02*
X7117682Y-15460960D01*
X7117682Y-15460960D02*
X7098634Y-15470484D01*
X7098634Y-15470484D02*
X7079586Y-15470484D01*
X7079586Y-15470484D02*
X7060539Y-15460960D01*
X7060539Y-15460960D02*
X7051015Y-15451436D01*
X7051015Y-15451436D02*
X7041491Y-15432388D01*
X7041491Y-15432388D02*
X7031967Y-15394293D01*
X7031967Y-15394293D02*
X7031967Y-15346674D01*
X7031967Y-15346674D02*
X7041491Y-15308579D01*
X7041491Y-15308579D02*
X7051015Y-15289531D01*
X7051015Y-15289531D02*
X7060539Y-15280008D01*
X7060539Y-15280008D02*
X7079586Y-15270484D01*
X7270062Y-15270484D02*
X7289110Y-15270484D01*
X7289110Y-15270484D02*
X7308158Y-15280008D01*
X7308158Y-15280008D02*
X7317682Y-15289531D01*
X7317682Y-15289531D02*
X7327205Y-15308579D01*
X7327205Y-15308579D02*
X7336729Y-15346674D01*
X7336729Y-15346674D02*
X7336729Y-15394293D01*
X7336729Y-15394293D02*
X7327205Y-15432388D01*
X7327205Y-15432388D02*
X7317682Y-15451436D01*
X7317682Y-15451436D02*
X7308158Y-15460960D01*
X7308158Y-15460960D02*
X7289110Y-15470484D01*
X7289110Y-15470484D02*
X7270062Y-15470484D01*
X7270062Y-15470484D02*
X7251015Y-15460960D01*
X7251015Y-15460960D02*
X7241491Y-15451436D01*
X7241491Y-15451436D02*
X7231967Y-15432388D01*
X7231967Y-15432388D02*
X7222443Y-15394293D01*
X7222443Y-15394293D02*
X7222443Y-15346674D01*
X7222443Y-15346674D02*
X7231967Y-15308579D01*
X7231967Y-15308579D02*
X7241491Y-15289531D01*
X7241491Y-15289531D02*
X7251015Y-15280008D01*
X7251015Y-15280008D02*
X7270062Y-15270484D01*
X7460539Y-15270484D02*
X7479586Y-15270484D01*
X7479586Y-15270484D02*
X7498634Y-15280008D01*
X7498634Y-15280008D02*
X7508158Y-15289531D01*
X7508158Y-15289531D02*
X7517682Y-15308579D01*
X7517682Y-15308579D02*
X7527205Y-15346674D01*
X7527205Y-15346674D02*
X7527205Y-15394293D01*
X7527205Y-15394293D02*
X7517682Y-15432388D01*
X7517682Y-15432388D02*
X7508158Y-15451436D01*
X7508158Y-15451436D02*
X7498634Y-15460960D01*
X7498634Y-15460960D02*
X7479586Y-15470484D01*
X7479586Y-15470484D02*
X7460539Y-15470484D01*
X7460539Y-15470484D02*
X7441491Y-15460960D01*
X7441491Y-15460960D02*
X7431967Y-15451436D01*
X7431967Y-15451436D02*
X7422443Y-15432388D01*
X7422443Y-15432388D02*
X7412920Y-15394293D01*
X7412920Y-15394293D02*
X7412920Y-15346674D01*
X7412920Y-15346674D02*
X7422443Y-15308579D01*
X7422443Y-15308579D02*
X7431967Y-15289531D01*
X7431967Y-15289531D02*
X7441491Y-15280008D01*
X7441491Y-15280008D02*
X7460539Y-15270484D01*
X7612920Y-15470484D02*
X7612920Y-15337150D01*
X7612920Y-15356198D02*
X7622443Y-15346674D01*
X7622443Y-15346674D02*
X7641491Y-15337150D01*
X7641491Y-15337150D02*
X7670063Y-15337150D01*
X7670063Y-15337150D02*
X7689110Y-15346674D01*
X7689110Y-15346674D02*
X7698634Y-15365722D01*
X7698634Y-15365722D02*
X7698634Y-15470484D01*
X7698634Y-15365722D02*
X7708158Y-15346674D01*
X7708158Y-15346674D02*
X7727205Y-15337150D01*
X7727205Y-15337150D02*
X7755777Y-15337150D01*
X7755777Y-15337150D02*
X7774824Y-15346674D01*
X7774824Y-15346674D02*
X7784348Y-15365722D01*
X7784348Y-15365722D02*
X7784348Y-15470484D01*
X7879586Y-15470484D02*
X7879586Y-15337150D01*
X7879586Y-15356198D02*
X7889110Y-15346674D01*
X7889110Y-15346674D02*
X7908158Y-15337150D01*
X7908158Y-15337150D02*
X7936729Y-15337150D01*
X7936729Y-15337150D02*
X7955777Y-15346674D01*
X7955777Y-15346674D02*
X7965301Y-15365722D01*
X7965301Y-15365722D02*
X7965301Y-15470484D01*
X7965301Y-15365722D02*
X7974824Y-15346674D01*
X7974824Y-15346674D02*
X7993872Y-15337150D01*
X7993872Y-15337150D02*
X8022443Y-15337150D01*
X8022443Y-15337150D02*
X8041491Y-15346674D01*
X8041491Y-15346674D02*
X8051015Y-15365722D01*
X8051015Y-15365722D02*
X8051015Y-15470484D01*
X8441491Y-15260960D02*
X8270063Y-15518103D01*
X8698634Y-15270484D02*
X8717682Y-15270484D01*
X8717682Y-15270484D02*
X8736729Y-15280008D01*
X8736729Y-15280008D02*
X8746253Y-15289531D01*
X8746253Y-15289531D02*
X8755777Y-15308579D01*
X8755777Y-15308579D02*
X8765301Y-15346674D01*
X8765301Y-15346674D02*
X8765301Y-15394293D01*
X8765301Y-15394293D02*
X8755777Y-15432388D01*
X8755777Y-15432388D02*
X8746253Y-15451436D01*
X8746253Y-15451436D02*
X8736729Y-15460960D01*
X8736729Y-15460960D02*
X8717682Y-15470484D01*
X8717682Y-15470484D02*
X8698634Y-15470484D01*
X8698634Y-15470484D02*
X8679587Y-15460960D01*
X8679587Y-15460960D02*
X8670063Y-15451436D01*
X8670063Y-15451436D02*
X8660539Y-15432388D01*
X8660539Y-15432388D02*
X8651015Y-15394293D01*
X8651015Y-15394293D02*
X8651015Y-15346674D01*
X8651015Y-15346674D02*
X8660539Y-15308579D01*
X8660539Y-15308579D02*
X8670063Y-15289531D01*
X8670063Y-15289531D02*
X8679587Y-15280008D01*
X8679587Y-15280008D02*
X8698634Y-15270484D01*
X8851015Y-15451436D02*
X8860539Y-15460960D01*
X8860539Y-15460960D02*
X8851015Y-15470484D01*
X8851015Y-15470484D02*
X8841491Y-15460960D01*
X8841491Y-15460960D02*
X8851015Y-15451436D01*
X8851015Y-15451436D02*
X8851015Y-15470484D01*
X8984348Y-15270484D02*
X9003396Y-15270484D01*
X9003396Y-15270484D02*
X9022444Y-15280008D01*
X9022444Y-15280008D02*
X9031968Y-15289531D01*
X9031968Y-15289531D02*
X9041491Y-15308579D01*
X9041491Y-15308579D02*
X9051015Y-15346674D01*
X9051015Y-15346674D02*
X9051015Y-15394293D01*
X9051015Y-15394293D02*
X9041491Y-15432388D01*
X9041491Y-15432388D02*
X9031968Y-15451436D01*
X9031968Y-15451436D02*
X9022444Y-15460960D01*
X9022444Y-15460960D02*
X9003396Y-15470484D01*
X9003396Y-15470484D02*
X8984348Y-15470484D01*
X8984348Y-15470484D02*
X8965301Y-15460960D01*
X8965301Y-15460960D02*
X8955777Y-15451436D01*
X8955777Y-15451436D02*
X8946253Y-15432388D01*
X8946253Y-15432388D02*
X8936729Y-15394293D01*
X8936729Y-15394293D02*
X8936729Y-15346674D01*
X8936729Y-15346674D02*
X8946253Y-15308579D01*
X8946253Y-15308579D02*
X8955777Y-15289531D01*
X8955777Y-15289531D02*
X8965301Y-15280008D01*
X8965301Y-15280008D02*
X8984348Y-15270484D01*
X9117682Y-15270484D02*
X9251015Y-15270484D01*
X9251015Y-15270484D02*
X9165301Y-15470484D01*
X9355777Y-15356198D02*
X9336729Y-15346674D01*
X9336729Y-15346674D02*
X9327206Y-15337150D01*
X9327206Y-15337150D02*
X9317682Y-15318103D01*
X9317682Y-15318103D02*
X9317682Y-15308579D01*
X9317682Y-15308579D02*
X9327206Y-15289531D01*
X9327206Y-15289531D02*
X9336729Y-15280008D01*
X9336729Y-15280008D02*
X9355777Y-15270484D01*
X9355777Y-15270484D02*
X9393872Y-15270484D01*
X9393872Y-15270484D02*
X9412920Y-15280008D01*
X9412920Y-15280008D02*
X9422444Y-15289531D01*
X9422444Y-15289531D02*
X9431968Y-15308579D01*
X9431968Y-15308579D02*
X9431968Y-15318103D01*
X9431968Y-15318103D02*
X9422444Y-15337150D01*
X9422444Y-15337150D02*
X9412920Y-15346674D01*
X9412920Y-15346674D02*
X9393872Y-15356198D01*
X9393872Y-15356198D02*
X9355777Y-15356198D01*
X9355777Y-15356198D02*
X9336729Y-15365722D01*
X9336729Y-15365722D02*
X9327206Y-15375246D01*
X9327206Y-15375246D02*
X9317682Y-15394293D01*
X9317682Y-15394293D02*
X9317682Y-15432388D01*
X9317682Y-15432388D02*
X9327206Y-15451436D01*
X9327206Y-15451436D02*
X9336729Y-15460960D01*
X9336729Y-15460960D02*
X9355777Y-15470484D01*
X9355777Y-15470484D02*
X9393872Y-15470484D01*
X9393872Y-15470484D02*
X9412920Y-15460960D01*
X9412920Y-15460960D02*
X9422444Y-15451436D01*
X9422444Y-15451436D02*
X9431968Y-15432388D01*
X9431968Y-15432388D02*
X9431968Y-15394293D01*
X9431968Y-15394293D02*
X9422444Y-15375246D01*
X9422444Y-15375246D02*
X9412920Y-15365722D01*
X9412920Y-15365722D02*
X9393872Y-15356198D01*
X9498634Y-15270484D02*
X9631968Y-15270484D01*
X9631968Y-15270484D02*
X9546253Y-15470484D01*
X9698634Y-15270484D02*
X9698634Y-15308579D01*
X9774825Y-15270484D02*
X9774825Y-15308579D01*
X10070063Y-15546674D02*
X10060539Y-15537150D01*
X10060539Y-15537150D02*
X10041491Y-15508579D01*
X10041491Y-15508579D02*
X10031968Y-15489531D01*
X10031968Y-15489531D02*
X10022444Y-15460960D01*
X10022444Y-15460960D02*
X10012920Y-15413341D01*
X10012920Y-15413341D02*
X10012920Y-15375246D01*
X10012920Y-15375246D02*
X10022444Y-15327627D01*
X10022444Y-15327627D02*
X10031968Y-15299055D01*
X10031968Y-15299055D02*
X10041491Y-15280008D01*
X10041491Y-15280008D02*
X10060539Y-15251436D01*
X10060539Y-15251436D02*
X10070063Y-15241912D01*
X10184349Y-15270484D02*
X10203396Y-15270484D01*
X10203396Y-15270484D02*
X10222444Y-15280008D01*
X10222444Y-15280008D02*
X10231968Y-15289531D01*
X10231968Y-15289531D02*
X10241491Y-15308579D01*
X10241491Y-15308579D02*
X10251015Y-15346674D01*
X10251015Y-15346674D02*
X10251015Y-15394293D01*
X10251015Y-15394293D02*
X10241491Y-15432388D01*
X10241491Y-15432388D02*
X10231968Y-15451436D01*
X10231968Y-15451436D02*
X10222444Y-15460960D01*
X10222444Y-15460960D02*
X10203396Y-15470484D01*
X10203396Y-15470484D02*
X10184349Y-15470484D01*
X10184349Y-15470484D02*
X10165301Y-15460960D01*
X10165301Y-15460960D02*
X10155777Y-15451436D01*
X10155777Y-15451436D02*
X10146253Y-15432388D01*
X10146253Y-15432388D02*
X10136730Y-15394293D01*
X10136730Y-15394293D02*
X10136730Y-15346674D01*
X10136730Y-15346674D02*
X10146253Y-15308579D01*
X10146253Y-15308579D02*
X10155777Y-15289531D01*
X10155777Y-15289531D02*
X10165301Y-15280008D01*
X10165301Y-15280008D02*
X10184349Y-15270484D01*
X10489111Y-15470484D02*
X10489111Y-15270484D01*
X10574825Y-15470484D02*
X10574825Y-15365722D01*
X10574825Y-15365722D02*
X10565301Y-15346674D01*
X10565301Y-15346674D02*
X10546253Y-15337150D01*
X10546253Y-15337150D02*
X10517682Y-15337150D01*
X10517682Y-15337150D02*
X10498634Y-15346674D01*
X10498634Y-15346674D02*
X10489111Y-15356198D01*
X10698634Y-15470484D02*
X10679587Y-15460960D01*
X10679587Y-15460960D02*
X10670063Y-15451436D01*
X10670063Y-15451436D02*
X10660539Y-15432388D01*
X10660539Y-15432388D02*
X10660539Y-15375246D01*
X10660539Y-15375246D02*
X10670063Y-15356198D01*
X10670063Y-15356198D02*
X10679587Y-15346674D01*
X10679587Y-15346674D02*
X10698634Y-15337150D01*
X10698634Y-15337150D02*
X10727206Y-15337150D01*
X10727206Y-15337150D02*
X10746253Y-15346674D01*
X10746253Y-15346674D02*
X10755777Y-15356198D01*
X10755777Y-15356198D02*
X10765301Y-15375246D01*
X10765301Y-15375246D02*
X10765301Y-15432388D01*
X10765301Y-15432388D02*
X10755777Y-15451436D01*
X10755777Y-15451436D02*
X10746253Y-15460960D01*
X10746253Y-15460960D02*
X10727206Y-15470484D01*
X10727206Y-15470484D02*
X10698634Y-15470484D01*
X10879587Y-15470484D02*
X10860539Y-15460960D01*
X10860539Y-15460960D02*
X10851015Y-15441912D01*
X10851015Y-15441912D02*
X10851015Y-15270484D01*
X11031968Y-15460960D02*
X11012920Y-15470484D01*
X11012920Y-15470484D02*
X10974825Y-15470484D01*
X10974825Y-15470484D02*
X10955777Y-15460960D01*
X10955777Y-15460960D02*
X10946253Y-15441912D01*
X10946253Y-15441912D02*
X10946253Y-15365722D01*
X10946253Y-15365722D02*
X10955777Y-15346674D01*
X10955777Y-15346674D02*
X10974825Y-15337150D01*
X10974825Y-15337150D02*
X11012920Y-15337150D01*
X11012920Y-15337150D02*
X11031968Y-15346674D01*
X11031968Y-15346674D02*
X11041492Y-15365722D01*
X11041492Y-15365722D02*
X11041492Y-15384769D01*
X11041492Y-15384769D02*
X10946253Y-15403817D01*
X11117682Y-15460960D02*
X11136730Y-15470484D01*
X11136730Y-15470484D02*
X11174825Y-15470484D01*
X11174825Y-15470484D02*
X11193872Y-15460960D01*
X11193872Y-15460960D02*
X11203396Y-15441912D01*
X11203396Y-15441912D02*
X11203396Y-15432388D01*
X11203396Y-15432388D02*
X11193872Y-15413341D01*
X11193872Y-15413341D02*
X11174825Y-15403817D01*
X11174825Y-15403817D02*
X11146253Y-15403817D01*
X11146253Y-15403817D02*
X11127206Y-15394293D01*
X11127206Y-15394293D02*
X11117682Y-15375246D01*
X11117682Y-15375246D02*
X11117682Y-15365722D01*
X11117682Y-15365722D02*
X11127206Y-15346674D01*
X11127206Y-15346674D02*
X11146253Y-15337150D01*
X11146253Y-15337150D02*
X11174825Y-15337150D01*
X11174825Y-15337150D02*
X11193872Y-15346674D01*
X11441492Y-15394293D02*
X11593873Y-15394293D01*
X11517682Y-15470484D02*
X11517682Y-15318103D01*
X11831968Y-15289531D02*
X11841492Y-15280008D01*
X11841492Y-15280008D02*
X11860539Y-15270484D01*
X11860539Y-15270484D02*
X11908158Y-15270484D01*
X11908158Y-15270484D02*
X11927206Y-15280008D01*
X11927206Y-15280008D02*
X11936730Y-15289531D01*
X11936730Y-15289531D02*
X11946253Y-15308579D01*
X11946253Y-15308579D02*
X11946253Y-15327627D01*
X11946253Y-15327627D02*
X11936730Y-15356198D01*
X11936730Y-15356198D02*
X11822444Y-15470484D01*
X11822444Y-15470484D02*
X11946253Y-15470484D01*
X12174825Y-15460960D02*
X12193873Y-15470484D01*
X12193873Y-15470484D02*
X12231968Y-15470484D01*
X12231968Y-15470484D02*
X12251015Y-15460960D01*
X12251015Y-15460960D02*
X12260539Y-15441912D01*
X12260539Y-15441912D02*
X12260539Y-15432388D01*
X12260539Y-15432388D02*
X12251015Y-15413341D01*
X12251015Y-15413341D02*
X12231968Y-15403817D01*
X12231968Y-15403817D02*
X12203396Y-15403817D01*
X12203396Y-15403817D02*
X12184349Y-15394293D01*
X12184349Y-15394293D02*
X12174825Y-15375246D01*
X12174825Y-15375246D02*
X12174825Y-15365722D01*
X12174825Y-15365722D02*
X12184349Y-15346674D01*
X12184349Y-15346674D02*
X12203396Y-15337150D01*
X12203396Y-15337150D02*
X12231968Y-15337150D01*
X12231968Y-15337150D02*
X12251015Y-15346674D01*
X12374825Y-15470484D02*
X12355777Y-15460960D01*
X12355777Y-15460960D02*
X12346254Y-15441912D01*
X12346254Y-15441912D02*
X12346254Y-15270484D01*
X12479587Y-15470484D02*
X12460539Y-15460960D01*
X12460539Y-15460960D02*
X12451015Y-15451436D01*
X12451015Y-15451436D02*
X12441492Y-15432388D01*
X12441492Y-15432388D02*
X12441492Y-15375246D01*
X12441492Y-15375246D02*
X12451015Y-15356198D01*
X12451015Y-15356198D02*
X12460539Y-15346674D01*
X12460539Y-15346674D02*
X12479587Y-15337150D01*
X12479587Y-15337150D02*
X12508158Y-15337150D01*
X12508158Y-15337150D02*
X12527206Y-15346674D01*
X12527206Y-15346674D02*
X12536730Y-15356198D01*
X12536730Y-15356198D02*
X12546254Y-15375246D01*
X12546254Y-15375246D02*
X12546254Y-15432388D01*
X12546254Y-15432388D02*
X12536730Y-15451436D01*
X12536730Y-15451436D02*
X12527206Y-15460960D01*
X12527206Y-15460960D02*
X12508158Y-15470484D01*
X12508158Y-15470484D02*
X12479587Y-15470484D01*
X12603396Y-15337150D02*
X12679587Y-15337150D01*
X12631968Y-15270484D02*
X12631968Y-15441912D01*
X12631968Y-15441912D02*
X12641492Y-15460960D01*
X12641492Y-15460960D02*
X12660539Y-15470484D01*
X12660539Y-15470484D02*
X12679587Y-15470484D01*
X12736730Y-15460960D02*
X12755777Y-15470484D01*
X12755777Y-15470484D02*
X12793873Y-15470484D01*
X12793873Y-15470484D02*
X12812920Y-15460960D01*
X12812920Y-15460960D02*
X12822444Y-15441912D01*
X12822444Y-15441912D02*
X12822444Y-15432388D01*
X12822444Y-15432388D02*
X12812920Y-15413341D01*
X12812920Y-15413341D02*
X12793873Y-15403817D01*
X12793873Y-15403817D02*
X12765301Y-15403817D01*
X12765301Y-15403817D02*
X12746254Y-15394293D01*
X12746254Y-15394293D02*
X12736730Y-15375246D01*
X12736730Y-15375246D02*
X12736730Y-15365722D01*
X12736730Y-15365722D02*
X12746254Y-15346674D01*
X12746254Y-15346674D02*
X12765301Y-15337150D01*
X12765301Y-15337150D02*
X12793873Y-15337150D01*
X12793873Y-15337150D02*
X12812920Y-15346674D01*
X12889111Y-15546674D02*
X12898635Y-15537150D01*
X12898635Y-15537150D02*
X12917682Y-15508579D01*
X12917682Y-15508579D02*
X12927206Y-15489531D01*
X12927206Y-15489531D02*
X12936730Y-15460960D01*
X12936730Y-15460960D02*
X12946254Y-15413341D01*
X12946254Y-15413341D02*
X12946254Y-15375246D01*
X12946254Y-15375246D02*
X12936730Y-15327627D01*
X12936730Y-15327627D02*
X12927206Y-15299055D01*
X12927206Y-15299055D02*
X12917682Y-15280008D01*
X12917682Y-15280008D02*
X12898635Y-15251436D01*
X12898635Y-15251436D02*
X12889111Y-15241912D01*
X13251016Y-15546674D02*
X13241492Y-15537150D01*
X13241492Y-15537150D02*
X13222444Y-15508579D01*
X13222444Y-15508579D02*
X13212920Y-15489531D01*
X13212920Y-15489531D02*
X13203396Y-15460960D01*
X13203396Y-15460960D02*
X13193873Y-15413341D01*
X13193873Y-15413341D02*
X13193873Y-15375246D01*
X13193873Y-15375246D02*
X13203396Y-15327627D01*
X13203396Y-15327627D02*
X13212920Y-15299055D01*
X13212920Y-15299055D02*
X13222444Y-15280008D01*
X13222444Y-15280008D02*
X13241492Y-15251436D01*
X13241492Y-15251436D02*
X13251016Y-15241912D01*
X13327206Y-15337150D02*
X13327206Y-15470484D01*
X13327206Y-15356198D02*
X13336730Y-15346674D01*
X13336730Y-15346674D02*
X13355777Y-15337150D01*
X13355777Y-15337150D02*
X13384349Y-15337150D01*
X13384349Y-15337150D02*
X13403396Y-15346674D01*
X13403396Y-15346674D02*
X13412920Y-15365722D01*
X13412920Y-15365722D02*
X13412920Y-15470484D01*
X13536730Y-15470484D02*
X13517682Y-15460960D01*
X13517682Y-15460960D02*
X13508158Y-15451436D01*
X13508158Y-15451436D02*
X13498635Y-15432388D01*
X13498635Y-15432388D02*
X13498635Y-15375246D01*
X13498635Y-15375246D02*
X13508158Y-15356198D01*
X13508158Y-15356198D02*
X13517682Y-15346674D01*
X13517682Y-15346674D02*
X13536730Y-15337150D01*
X13536730Y-15337150D02*
X13565301Y-15337150D01*
X13565301Y-15337150D02*
X13584349Y-15346674D01*
X13584349Y-15346674D02*
X13593873Y-15356198D01*
X13593873Y-15356198D02*
X13603396Y-15375246D01*
X13603396Y-15375246D02*
X13603396Y-15432388D01*
X13603396Y-15432388D02*
X13593873Y-15451436D01*
X13593873Y-15451436D02*
X13584349Y-15460960D01*
X13584349Y-15460960D02*
X13565301Y-15470484D01*
X13565301Y-15470484D02*
X13536730Y-15470484D01*
X13660539Y-15337150D02*
X13736730Y-15337150D01*
X13689111Y-15270484D02*
X13689111Y-15441912D01*
X13689111Y-15441912D02*
X13698635Y-15460960D01*
X13698635Y-15460960D02*
X13717682Y-15470484D01*
X13717682Y-15470484D02*
X13736730Y-15470484D01*
X13955777Y-15337150D02*
X13955777Y-15537150D01*
X13955777Y-15346674D02*
X13974825Y-15337150D01*
X13974825Y-15337150D02*
X14012920Y-15337150D01*
X14012920Y-15337150D02*
X14031968Y-15346674D01*
X14031968Y-15346674D02*
X14041492Y-15356198D01*
X14041492Y-15356198D02*
X14051016Y-15375246D01*
X14051016Y-15375246D02*
X14051016Y-15432388D01*
X14051016Y-15432388D02*
X14041492Y-15451436D01*
X14041492Y-15451436D02*
X14031968Y-15460960D01*
X14031968Y-15460960D02*
X14012920Y-15470484D01*
X14012920Y-15470484D02*
X13974825Y-15470484D01*
X13974825Y-15470484D02*
X13955777Y-15460960D01*
X14165301Y-15470484D02*
X14146254Y-15460960D01*
X14146254Y-15460960D02*
X14136730Y-15441912D01*
X14136730Y-15441912D02*
X14136730Y-15270484D01*
X14327206Y-15470484D02*
X14327206Y-15365722D01*
X14327206Y-15365722D02*
X14317682Y-15346674D01*
X14317682Y-15346674D02*
X14298635Y-15337150D01*
X14298635Y-15337150D02*
X14260539Y-15337150D01*
X14260539Y-15337150D02*
X14241492Y-15346674D01*
X14327206Y-15460960D02*
X14308158Y-15470484D01*
X14308158Y-15470484D02*
X14260539Y-15470484D01*
X14260539Y-15470484D02*
X14241492Y-15460960D01*
X14241492Y-15460960D02*
X14231968Y-15441912D01*
X14231968Y-15441912D02*
X14231968Y-15422865D01*
X14231968Y-15422865D02*
X14241492Y-15403817D01*
X14241492Y-15403817D02*
X14260539Y-15394293D01*
X14260539Y-15394293D02*
X14308158Y-15394293D01*
X14308158Y-15394293D02*
X14327206Y-15384769D01*
X14393873Y-15337150D02*
X14470063Y-15337150D01*
X14422444Y-15270484D02*
X14422444Y-15441912D01*
X14422444Y-15441912D02*
X14431968Y-15460960D01*
X14431968Y-15460960D02*
X14451016Y-15470484D01*
X14451016Y-15470484D02*
X14470063Y-15470484D01*
X14612920Y-15460960D02*
X14593873Y-15470484D01*
X14593873Y-15470484D02*
X14555777Y-15470484D01*
X14555777Y-15470484D02*
X14536730Y-15460960D01*
X14536730Y-15460960D02*
X14527206Y-15441912D01*
X14527206Y-15441912D02*
X14527206Y-15365722D01*
X14527206Y-15365722D02*
X14536730Y-15346674D01*
X14536730Y-15346674D02*
X14555777Y-15337150D01*
X14555777Y-15337150D02*
X14593873Y-15337150D01*
X14593873Y-15337150D02*
X14612920Y-15346674D01*
X14612920Y-15346674D02*
X14622444Y-15365722D01*
X14622444Y-15365722D02*
X14622444Y-15384769D01*
X14622444Y-15384769D02*
X14527206Y-15403817D01*
X14793873Y-15470484D02*
X14793873Y-15270484D01*
X14793873Y-15460960D02*
X14774825Y-15470484D01*
X14774825Y-15470484D02*
X14736730Y-15470484D01*
X14736730Y-15470484D02*
X14717682Y-15460960D01*
X14717682Y-15460960D02*
X14708158Y-15451436D01*
X14708158Y-15451436D02*
X14698635Y-15432388D01*
X14698635Y-15432388D02*
X14698635Y-15375246D01*
X14698635Y-15375246D02*
X14708158Y-15356198D01*
X14708158Y-15356198D02*
X14717682Y-15346674D01*
X14717682Y-15346674D02*
X14736730Y-15337150D01*
X14736730Y-15337150D02*
X14774825Y-15337150D01*
X14774825Y-15337150D02*
X14793873Y-15346674D01*
X14870063Y-15546674D02*
X14879587Y-15537150D01*
X14879587Y-15537150D02*
X14898635Y-15508579D01*
X14898635Y-15508579D02*
X14908158Y-15489531D01*
X14908158Y-15489531D02*
X14917682Y-15460960D01*
X14917682Y-15460960D02*
X14927206Y-15413341D01*
X14927206Y-15413341D02*
X14927206Y-15375246D01*
X14927206Y-15375246D02*
X14917682Y-15327627D01*
X14917682Y-15327627D02*
X14908158Y-15299055D01*
X14908158Y-15299055D02*
X14898635Y-15280008D01*
X14898635Y-15280008D02*
X14879587Y-15251436D01*
X14879587Y-15251436D02*
X14870063Y-15241912D01*
X6395000Y-15799000D02*
X6495000Y-15699000D01*
X6395000Y-15599000D01*
X6295000Y-15699000D01*
X6395000Y-15799000D01*
X6736729Y-15590484D02*
X6860539Y-15590484D01*
X6860539Y-15590484D02*
X6793872Y-15666674D01*
X6793872Y-15666674D02*
X6822443Y-15666674D01*
X6822443Y-15666674D02*
X6841491Y-15676198D01*
X6841491Y-15676198D02*
X6851015Y-15685722D01*
X6851015Y-15685722D02*
X6860539Y-15704769D01*
X6860539Y-15704769D02*
X6860539Y-15752388D01*
X6860539Y-15752388D02*
X6851015Y-15771436D01*
X6851015Y-15771436D02*
X6841491Y-15780960D01*
X6841491Y-15780960D02*
X6822443Y-15790484D01*
X6822443Y-15790484D02*
X6765301Y-15790484D01*
X6765301Y-15790484D02*
X6746253Y-15780960D01*
X6746253Y-15780960D02*
X6736729Y-15771436D01*
X6946253Y-15771436D02*
X6955777Y-15780960D01*
X6955777Y-15780960D02*
X6946253Y-15790484D01*
X6946253Y-15790484D02*
X6936729Y-15780960D01*
X6936729Y-15780960D02*
X6946253Y-15771436D01*
X6946253Y-15771436D02*
X6946253Y-15790484D01*
X7031967Y-15609531D02*
X7041491Y-15600008D01*
X7041491Y-15600008D02*
X7060539Y-15590484D01*
X7060539Y-15590484D02*
X7108158Y-15590484D01*
X7108158Y-15590484D02*
X7127205Y-15600008D01*
X7127205Y-15600008D02*
X7136729Y-15609531D01*
X7136729Y-15609531D02*
X7146253Y-15628579D01*
X7146253Y-15628579D02*
X7146253Y-15647627D01*
X7146253Y-15647627D02*
X7136729Y-15676198D01*
X7136729Y-15676198D02*
X7022443Y-15790484D01*
X7022443Y-15790484D02*
X7146253Y-15790484D01*
X7270062Y-15590484D02*
X7289110Y-15590484D01*
X7289110Y-15590484D02*
X7308158Y-15600008D01*
X7308158Y-15600008D02*
X7317682Y-15609531D01*
X7317682Y-15609531D02*
X7327205Y-15628579D01*
X7327205Y-15628579D02*
X7336729Y-15666674D01*
X7336729Y-15666674D02*
X7336729Y-15714293D01*
X7336729Y-15714293D02*
X7327205Y-15752388D01*
X7327205Y-15752388D02*
X7317682Y-15771436D01*
X7317682Y-15771436D02*
X7308158Y-15780960D01*
X7308158Y-15780960D02*
X7289110Y-15790484D01*
X7289110Y-15790484D02*
X7270062Y-15790484D01*
X7270062Y-15790484D02*
X7251015Y-15780960D01*
X7251015Y-15780960D02*
X7241491Y-15771436D01*
X7241491Y-15771436D02*
X7231967Y-15752388D01*
X7231967Y-15752388D02*
X7222443Y-15714293D01*
X7222443Y-15714293D02*
X7222443Y-15666674D01*
X7222443Y-15666674D02*
X7231967Y-15628579D01*
X7231967Y-15628579D02*
X7241491Y-15609531D01*
X7241491Y-15609531D02*
X7251015Y-15600008D01*
X7251015Y-15600008D02*
X7270062Y-15590484D01*
X7460539Y-15590484D02*
X7479586Y-15590484D01*
X7479586Y-15590484D02*
X7498634Y-15600008D01*
X7498634Y-15600008D02*
X7508158Y-15609531D01*
X7508158Y-15609531D02*
X7517682Y-15628579D01*
X7517682Y-15628579D02*
X7527205Y-15666674D01*
X7527205Y-15666674D02*
X7527205Y-15714293D01*
X7527205Y-15714293D02*
X7517682Y-15752388D01*
X7517682Y-15752388D02*
X7508158Y-15771436D01*
X7508158Y-15771436D02*
X7498634Y-15780960D01*
X7498634Y-15780960D02*
X7479586Y-15790484D01*
X7479586Y-15790484D02*
X7460539Y-15790484D01*
X7460539Y-15790484D02*
X7441491Y-15780960D01*
X7441491Y-15780960D02*
X7431967Y-15771436D01*
X7431967Y-15771436D02*
X7422443Y-15752388D01*
X7422443Y-15752388D02*
X7412920Y-15714293D01*
X7412920Y-15714293D02*
X7412920Y-15666674D01*
X7412920Y-15666674D02*
X7422443Y-15628579D01*
X7422443Y-15628579D02*
X7431967Y-15609531D01*
X7431967Y-15609531D02*
X7441491Y-15600008D01*
X7441491Y-15600008D02*
X7460539Y-15590484D01*
X7612920Y-15790484D02*
X7612920Y-15657150D01*
X7612920Y-15676198D02*
X7622443Y-15666674D01*
X7622443Y-15666674D02*
X7641491Y-15657150D01*
X7641491Y-15657150D02*
X7670063Y-15657150D01*
X7670063Y-15657150D02*
X7689110Y-15666674D01*
X7689110Y-15666674D02*
X7698634Y-15685722D01*
X7698634Y-15685722D02*
X7698634Y-15790484D01*
X7698634Y-15685722D02*
X7708158Y-15666674D01*
X7708158Y-15666674D02*
X7727205Y-15657150D01*
X7727205Y-15657150D02*
X7755777Y-15657150D01*
X7755777Y-15657150D02*
X7774824Y-15666674D01*
X7774824Y-15666674D02*
X7784348Y-15685722D01*
X7784348Y-15685722D02*
X7784348Y-15790484D01*
X7879586Y-15790484D02*
X7879586Y-15657150D01*
X7879586Y-15676198D02*
X7889110Y-15666674D01*
X7889110Y-15666674D02*
X7908158Y-15657150D01*
X7908158Y-15657150D02*
X7936729Y-15657150D01*
X7936729Y-15657150D02*
X7955777Y-15666674D01*
X7955777Y-15666674D02*
X7965301Y-15685722D01*
X7965301Y-15685722D02*
X7965301Y-15790484D01*
X7965301Y-15685722D02*
X7974824Y-15666674D01*
X7974824Y-15666674D02*
X7993872Y-15657150D01*
X7993872Y-15657150D02*
X8022443Y-15657150D01*
X8022443Y-15657150D02*
X8041491Y-15666674D01*
X8041491Y-15666674D02*
X8051015Y-15685722D01*
X8051015Y-15685722D02*
X8051015Y-15790484D01*
X8441491Y-15580960D02*
X8270063Y-15838103D01*
X8698634Y-15590484D02*
X8717682Y-15590484D01*
X8717682Y-15590484D02*
X8736729Y-15600008D01*
X8736729Y-15600008D02*
X8746253Y-15609531D01*
X8746253Y-15609531D02*
X8755777Y-15628579D01*
X8755777Y-15628579D02*
X8765301Y-15666674D01*
X8765301Y-15666674D02*
X8765301Y-15714293D01*
X8765301Y-15714293D02*
X8755777Y-15752388D01*
X8755777Y-15752388D02*
X8746253Y-15771436D01*
X8746253Y-15771436D02*
X8736729Y-15780960D01*
X8736729Y-15780960D02*
X8717682Y-15790484D01*
X8717682Y-15790484D02*
X8698634Y-15790484D01*
X8698634Y-15790484D02*
X8679587Y-15780960D01*
X8679587Y-15780960D02*
X8670063Y-15771436D01*
X8670063Y-15771436D02*
X8660539Y-15752388D01*
X8660539Y-15752388D02*
X8651015Y-15714293D01*
X8651015Y-15714293D02*
X8651015Y-15666674D01*
X8651015Y-15666674D02*
X8660539Y-15628579D01*
X8660539Y-15628579D02*
X8670063Y-15609531D01*
X8670063Y-15609531D02*
X8679587Y-15600008D01*
X8679587Y-15600008D02*
X8698634Y-15590484D01*
X8851015Y-15771436D02*
X8860539Y-15780960D01*
X8860539Y-15780960D02*
X8851015Y-15790484D01*
X8851015Y-15790484D02*
X8841491Y-15780960D01*
X8841491Y-15780960D02*
X8851015Y-15771436D01*
X8851015Y-15771436D02*
X8851015Y-15790484D01*
X9051015Y-15790484D02*
X8936729Y-15790484D01*
X8993872Y-15790484D02*
X8993872Y-15590484D01*
X8993872Y-15590484D02*
X8974825Y-15619055D01*
X8974825Y-15619055D02*
X8955777Y-15638103D01*
X8955777Y-15638103D02*
X8936729Y-15647627D01*
X9127206Y-15609531D02*
X9136729Y-15600008D01*
X9136729Y-15600008D02*
X9155777Y-15590484D01*
X9155777Y-15590484D02*
X9203396Y-15590484D01*
X9203396Y-15590484D02*
X9222444Y-15600008D01*
X9222444Y-15600008D02*
X9231968Y-15609531D01*
X9231968Y-15609531D02*
X9241491Y-15628579D01*
X9241491Y-15628579D02*
X9241491Y-15647627D01*
X9241491Y-15647627D02*
X9231968Y-15676198D01*
X9231968Y-15676198D02*
X9117682Y-15790484D01*
X9117682Y-15790484D02*
X9241491Y-15790484D01*
X9412920Y-15590484D02*
X9374825Y-15590484D01*
X9374825Y-15590484D02*
X9355777Y-15600008D01*
X9355777Y-15600008D02*
X9346253Y-15609531D01*
X9346253Y-15609531D02*
X9327206Y-15638103D01*
X9327206Y-15638103D02*
X9317682Y-15676198D01*
X9317682Y-15676198D02*
X9317682Y-15752388D01*
X9317682Y-15752388D02*
X9327206Y-15771436D01*
X9327206Y-15771436D02*
X9336729Y-15780960D01*
X9336729Y-15780960D02*
X9355777Y-15790484D01*
X9355777Y-15790484D02*
X9393872Y-15790484D01*
X9393872Y-15790484D02*
X9412920Y-15780960D01*
X9412920Y-15780960D02*
X9422444Y-15771436D01*
X9422444Y-15771436D02*
X9431968Y-15752388D01*
X9431968Y-15752388D02*
X9431968Y-15704769D01*
X9431968Y-15704769D02*
X9422444Y-15685722D01*
X9422444Y-15685722D02*
X9412920Y-15676198D01*
X9412920Y-15676198D02*
X9393872Y-15666674D01*
X9393872Y-15666674D02*
X9355777Y-15666674D01*
X9355777Y-15666674D02*
X9336729Y-15676198D01*
X9336729Y-15676198D02*
X9327206Y-15685722D01*
X9327206Y-15685722D02*
X9317682Y-15704769D01*
X9555777Y-15590484D02*
X9574825Y-15590484D01*
X9574825Y-15590484D02*
X9593872Y-15600008D01*
X9593872Y-15600008D02*
X9603396Y-15609531D01*
X9603396Y-15609531D02*
X9612920Y-15628579D01*
X9612920Y-15628579D02*
X9622444Y-15666674D01*
X9622444Y-15666674D02*
X9622444Y-15714293D01*
X9622444Y-15714293D02*
X9612920Y-15752388D01*
X9612920Y-15752388D02*
X9603396Y-15771436D01*
X9603396Y-15771436D02*
X9593872Y-15780960D01*
X9593872Y-15780960D02*
X9574825Y-15790484D01*
X9574825Y-15790484D02*
X9555777Y-15790484D01*
X9555777Y-15790484D02*
X9536729Y-15780960D01*
X9536729Y-15780960D02*
X9527206Y-15771436D01*
X9527206Y-15771436D02*
X9517682Y-15752388D01*
X9517682Y-15752388D02*
X9508158Y-15714293D01*
X9508158Y-15714293D02*
X9508158Y-15666674D01*
X9508158Y-15666674D02*
X9517682Y-15628579D01*
X9517682Y-15628579D02*
X9527206Y-15609531D01*
X9527206Y-15609531D02*
X9536729Y-15600008D01*
X9536729Y-15600008D02*
X9555777Y-15590484D01*
X9698634Y-15590484D02*
X9698634Y-15628579D01*
X9774825Y-15590484D02*
X9774825Y-15628579D01*
X10070063Y-15866674D02*
X10060539Y-15857150D01*
X10060539Y-15857150D02*
X10041491Y-15828579D01*
X10041491Y-15828579D02*
X10031968Y-15809531D01*
X10031968Y-15809531D02*
X10022444Y-15780960D01*
X10022444Y-15780960D02*
X10012920Y-15733341D01*
X10012920Y-15733341D02*
X10012920Y-15695246D01*
X10012920Y-15695246D02*
X10022444Y-15647627D01*
X10022444Y-15647627D02*
X10031968Y-15619055D01*
X10031968Y-15619055D02*
X10041491Y-15600008D01*
X10041491Y-15600008D02*
X10060539Y-15571436D01*
X10060539Y-15571436D02*
X10070063Y-15561912D01*
X10231968Y-15657150D02*
X10231968Y-15790484D01*
X10184349Y-15580960D02*
X10136730Y-15723817D01*
X10136730Y-15723817D02*
X10260539Y-15723817D01*
X10489111Y-15790484D02*
X10489111Y-15590484D01*
X10574825Y-15790484D02*
X10574825Y-15685722D01*
X10574825Y-15685722D02*
X10565301Y-15666674D01*
X10565301Y-15666674D02*
X10546253Y-15657150D01*
X10546253Y-15657150D02*
X10517682Y-15657150D01*
X10517682Y-15657150D02*
X10498634Y-15666674D01*
X10498634Y-15666674D02*
X10489111Y-15676198D01*
X10698634Y-15790484D02*
X10679587Y-15780960D01*
X10679587Y-15780960D02*
X10670063Y-15771436D01*
X10670063Y-15771436D02*
X10660539Y-15752388D01*
X10660539Y-15752388D02*
X10660539Y-15695246D01*
X10660539Y-15695246D02*
X10670063Y-15676198D01*
X10670063Y-15676198D02*
X10679587Y-15666674D01*
X10679587Y-15666674D02*
X10698634Y-15657150D01*
X10698634Y-15657150D02*
X10727206Y-15657150D01*
X10727206Y-15657150D02*
X10746253Y-15666674D01*
X10746253Y-15666674D02*
X10755777Y-15676198D01*
X10755777Y-15676198D02*
X10765301Y-15695246D01*
X10765301Y-15695246D02*
X10765301Y-15752388D01*
X10765301Y-15752388D02*
X10755777Y-15771436D01*
X10755777Y-15771436D02*
X10746253Y-15780960D01*
X10746253Y-15780960D02*
X10727206Y-15790484D01*
X10727206Y-15790484D02*
X10698634Y-15790484D01*
X10879587Y-15790484D02*
X10860539Y-15780960D01*
X10860539Y-15780960D02*
X10851015Y-15761912D01*
X10851015Y-15761912D02*
X10851015Y-15590484D01*
X11031968Y-15780960D02*
X11012920Y-15790484D01*
X11012920Y-15790484D02*
X10974825Y-15790484D01*
X10974825Y-15790484D02*
X10955777Y-15780960D01*
X10955777Y-15780960D02*
X10946253Y-15761912D01*
X10946253Y-15761912D02*
X10946253Y-15685722D01*
X10946253Y-15685722D02*
X10955777Y-15666674D01*
X10955777Y-15666674D02*
X10974825Y-15657150D01*
X10974825Y-15657150D02*
X11012920Y-15657150D01*
X11012920Y-15657150D02*
X11031968Y-15666674D01*
X11031968Y-15666674D02*
X11041492Y-15685722D01*
X11041492Y-15685722D02*
X11041492Y-15704769D01*
X11041492Y-15704769D02*
X10946253Y-15723817D01*
X11117682Y-15780960D02*
X11136730Y-15790484D01*
X11136730Y-15790484D02*
X11174825Y-15790484D01*
X11174825Y-15790484D02*
X11193872Y-15780960D01*
X11193872Y-15780960D02*
X11203396Y-15761912D01*
X11203396Y-15761912D02*
X11203396Y-15752388D01*
X11203396Y-15752388D02*
X11193872Y-15733341D01*
X11193872Y-15733341D02*
X11174825Y-15723817D01*
X11174825Y-15723817D02*
X11146253Y-15723817D01*
X11146253Y-15723817D02*
X11127206Y-15714293D01*
X11127206Y-15714293D02*
X11117682Y-15695246D01*
X11117682Y-15695246D02*
X11117682Y-15685722D01*
X11117682Y-15685722D02*
X11127206Y-15666674D01*
X11127206Y-15666674D02*
X11146253Y-15657150D01*
X11146253Y-15657150D02*
X11174825Y-15657150D01*
X11174825Y-15657150D02*
X11193872Y-15666674D01*
X11270063Y-15866674D02*
X11279587Y-15857150D01*
X11279587Y-15857150D02*
X11298634Y-15828579D01*
X11298634Y-15828579D02*
X11308158Y-15809531D01*
X11308158Y-15809531D02*
X11317682Y-15780960D01*
X11317682Y-15780960D02*
X11327206Y-15733341D01*
X11327206Y-15733341D02*
X11327206Y-15695246D01*
X11327206Y-15695246D02*
X11317682Y-15647627D01*
X11317682Y-15647627D02*
X11308158Y-15619055D01*
X11308158Y-15619055D02*
X11298634Y-15600008D01*
X11298634Y-15600008D02*
X11279587Y-15571436D01*
X11279587Y-15571436D02*
X11270063Y-15561912D01*
X11631968Y-15866674D02*
X11622444Y-15857150D01*
X11622444Y-15857150D02*
X11603396Y-15828579D01*
X11603396Y-15828579D02*
X11593872Y-15809531D01*
X11593872Y-15809531D02*
X11584349Y-15780960D01*
X11584349Y-15780960D02*
X11574825Y-15733341D01*
X11574825Y-15733341D02*
X11574825Y-15695246D01*
X11574825Y-15695246D02*
X11584349Y-15647627D01*
X11584349Y-15647627D02*
X11593872Y-15619055D01*
X11593872Y-15619055D02*
X11603396Y-15600008D01*
X11603396Y-15600008D02*
X11622444Y-15571436D01*
X11622444Y-15571436D02*
X11631968Y-15561912D01*
X11708158Y-15657150D02*
X11708158Y-15790484D01*
X11708158Y-15676198D02*
X11717682Y-15666674D01*
X11717682Y-15666674D02*
X11736730Y-15657150D01*
X11736730Y-15657150D02*
X11765301Y-15657150D01*
X11765301Y-15657150D02*
X11784349Y-15666674D01*
X11784349Y-15666674D02*
X11793872Y-15685722D01*
X11793872Y-15685722D02*
X11793872Y-15790484D01*
X11917682Y-15790484D02*
X11898634Y-15780960D01*
X11898634Y-15780960D02*
X11889111Y-15771436D01*
X11889111Y-15771436D02*
X11879587Y-15752388D01*
X11879587Y-15752388D02*
X11879587Y-15695246D01*
X11879587Y-15695246D02*
X11889111Y-15676198D01*
X11889111Y-15676198D02*
X11898634Y-15666674D01*
X11898634Y-15666674D02*
X11917682Y-15657150D01*
X11917682Y-15657150D02*
X11946253Y-15657150D01*
X11946253Y-15657150D02*
X11965301Y-15666674D01*
X11965301Y-15666674D02*
X11974825Y-15676198D01*
X11974825Y-15676198D02*
X11984349Y-15695246D01*
X11984349Y-15695246D02*
X11984349Y-15752388D01*
X11984349Y-15752388D02*
X11974825Y-15771436D01*
X11974825Y-15771436D02*
X11965301Y-15780960D01*
X11965301Y-15780960D02*
X11946253Y-15790484D01*
X11946253Y-15790484D02*
X11917682Y-15790484D01*
X12041492Y-15657150D02*
X12117682Y-15657150D01*
X12070063Y-15590484D02*
X12070063Y-15761912D01*
X12070063Y-15761912D02*
X12079587Y-15780960D01*
X12079587Y-15780960D02*
X12098634Y-15790484D01*
X12098634Y-15790484D02*
X12117682Y-15790484D01*
X12336730Y-15657150D02*
X12336730Y-15857150D01*
X12336730Y-15666674D02*
X12355777Y-15657150D01*
X12355777Y-15657150D02*
X12393873Y-15657150D01*
X12393873Y-15657150D02*
X12412920Y-15666674D01*
X12412920Y-15666674D02*
X12422444Y-15676198D01*
X12422444Y-15676198D02*
X12431968Y-15695246D01*
X12431968Y-15695246D02*
X12431968Y-15752388D01*
X12431968Y-15752388D02*
X12422444Y-15771436D01*
X12422444Y-15771436D02*
X12412920Y-15780960D01*
X12412920Y-15780960D02*
X12393873Y-15790484D01*
X12393873Y-15790484D02*
X12355777Y-15790484D01*
X12355777Y-15790484D02*
X12336730Y-15780960D01*
X12546253Y-15790484D02*
X12527206Y-15780960D01*
X12527206Y-15780960D02*
X12517682Y-15761912D01*
X12517682Y-15761912D02*
X12517682Y-15590484D01*
X12708158Y-15790484D02*
X12708158Y-15685722D01*
X12708158Y-15685722D02*
X12698634Y-15666674D01*
X12698634Y-15666674D02*
X12679587Y-15657150D01*
X12679587Y-15657150D02*
X12641492Y-15657150D01*
X12641492Y-15657150D02*
X12622444Y-15666674D01*
X12708158Y-15780960D02*
X12689111Y-15790484D01*
X12689111Y-15790484D02*
X12641492Y-15790484D01*
X12641492Y-15790484D02*
X12622444Y-15780960D01*
X12622444Y-15780960D02*
X12612920Y-15761912D01*
X12612920Y-15761912D02*
X12612920Y-15742865D01*
X12612920Y-15742865D02*
X12622444Y-15723817D01*
X12622444Y-15723817D02*
X12641492Y-15714293D01*
X12641492Y-15714293D02*
X12689111Y-15714293D01*
X12689111Y-15714293D02*
X12708158Y-15704769D01*
X12774825Y-15657150D02*
X12851015Y-15657150D01*
X12803396Y-15590484D02*
X12803396Y-15761912D01*
X12803396Y-15761912D02*
X12812920Y-15780960D01*
X12812920Y-15780960D02*
X12831968Y-15790484D01*
X12831968Y-15790484D02*
X12851015Y-15790484D01*
X12993873Y-15780960D02*
X12974825Y-15790484D01*
X12974825Y-15790484D02*
X12936730Y-15790484D01*
X12936730Y-15790484D02*
X12917682Y-15780960D01*
X12917682Y-15780960D02*
X12908158Y-15761912D01*
X12908158Y-15761912D02*
X12908158Y-15685722D01*
X12908158Y-15685722D02*
X12917682Y-15666674D01*
X12917682Y-15666674D02*
X12936730Y-15657150D01*
X12936730Y-15657150D02*
X12974825Y-15657150D01*
X12974825Y-15657150D02*
X12993873Y-15666674D01*
X12993873Y-15666674D02*
X13003396Y-15685722D01*
X13003396Y-15685722D02*
X13003396Y-15704769D01*
X13003396Y-15704769D02*
X12908158Y-15723817D01*
X13174825Y-15790484D02*
X13174825Y-15590484D01*
X13174825Y-15780960D02*
X13155777Y-15790484D01*
X13155777Y-15790484D02*
X13117682Y-15790484D01*
X13117682Y-15790484D02*
X13098634Y-15780960D01*
X13098634Y-15780960D02*
X13089111Y-15771436D01*
X13089111Y-15771436D02*
X13079587Y-15752388D01*
X13079587Y-15752388D02*
X13079587Y-15695246D01*
X13079587Y-15695246D02*
X13089111Y-15676198D01*
X13089111Y-15676198D02*
X13098634Y-15666674D01*
X13098634Y-15666674D02*
X13117682Y-15657150D01*
X13117682Y-15657150D02*
X13155777Y-15657150D01*
X13155777Y-15657150D02*
X13174825Y-15666674D01*
X13251015Y-15866674D02*
X13260539Y-15857150D01*
X13260539Y-15857150D02*
X13279587Y-15828579D01*
X13279587Y-15828579D02*
X13289111Y-15809531D01*
X13289111Y-15809531D02*
X13298634Y-15780960D01*
X13298634Y-15780960D02*
X13308158Y-15733341D01*
X13308158Y-15733341D02*
X13308158Y-15695246D01*
X13308158Y-15695246D02*
X13298634Y-15647627D01*
X13298634Y-15647627D02*
X13289111Y-15619055D01*
X13289111Y-15619055D02*
X13279587Y-15600008D01*
X13279587Y-15600008D02*
X13260539Y-15571436D01*
X13260539Y-15571436D02*
X13251015Y-15561912D01*
M02*
