%TF.GenerationSoftware,KiCad,Pcbnew,7.0.11+dfsg-1build4*%
%TF.CreationDate,2025-09-15T20:17:11-05:00*%
%TF.ProjectId,PicoParanoia,5069636f-5061-4726-916e-6f69612e6b69,rev?*%
%TF.SameCoordinates,Original*%
%TF.FileFunction,Soldermask,Top*%
%TF.FilePolarity,Negative*%
%FSLAX46Y46*%
G04 Gerber Fmt 4.6, Leading zero omitted, Abs format (unit mm)*
G04 Created by KiCad (PCBNEW 7.0.11+dfsg-1build4) date 2025-09-15 20:17:11*
%MOMM*%
%LPD*%
G01*
G04 APERTURE LIST*
G04 Aperture macros list*
%AMRoundRect*
0 Rectangle with rounded corners*
0 $1 Rounding radius*
0 $2 $3 $4 $5 $6 $7 $8 $9 X,Y pos of 4 corners*
0 Add a 4 corners polygon primitive as box body*
4,1,4,$2,$3,$4,$5,$6,$7,$8,$9,$2,$3,0*
0 Add four circle primitives for the rounded corners*
1,1,$1+$1,$2,$3*
1,1,$1+$1,$4,$5*
1,1,$1+$1,$6,$7*
1,1,$1+$1,$8,$9*
0 Add four rect primitives between the rounded corners*
20,1,$1+$1,$2,$3,$4,$5,0*
20,1,$1+$1,$4,$5,$6,$7,0*
20,1,$1+$1,$6,$7,$8,$9,0*
20,1,$1+$1,$8,$9,$2,$3,0*%
G04 Aperture macros list end*
%ADD10C,1.600000*%
%ADD11O,1.600000X1.600000*%
%ADD12R,1.600000X1.600000*%
%ADD13R,1.400000X1.600000*%
%ADD14C,1.000000*%
%ADD15R,2.200000X1.200000*%
%ADD16R,1.600000X0.700000*%
%ADD17R,1.400000X1.200000*%
%ADD18R,3.500000X3.500000*%
%ADD19RoundRect,0.750000X-0.750000X-1.000000X0.750000X-1.000000X0.750000X1.000000X-0.750000X1.000000X0*%
%ADD20RoundRect,0.875000X-0.875000X-0.875000X0.875000X-0.875000X0.875000X0.875000X-0.875000X0.875000X0*%
%ADD21R,1.500000X1.500000*%
%ADD22C,1.500000*%
%ADD23O,2.000000X2.000000*%
%ADD24O,2.500000X3.500000*%
%ADD25O,3.500000X2.500000*%
%ADD26R,1.700000X1.700000*%
%ADD27O,1.700000X1.700000*%
%ADD28C,4.000000*%
%ADD29O,3.500000X2.000000*%
%ADD30O,2.000000X4.000000*%
%ADD31R,2.200000X2.200000*%
%ADD32O,2.200000X2.200000*%
%ADD33C,6.400000*%
%ADD34O,1.800000X1.800000*%
%ADD35O,1.500000X1.500000*%
%ADD36R,3.500000X1.700000*%
%ADD37R,1.700000X3.500000*%
%ADD38R,2.000000X1.905000*%
%ADD39O,2.000000X1.905000*%
G04 APERTURE END LIST*
D10*
%TO.C,R11*%
X129540000Y-78740000D03*
D11*
X129540000Y-86360000D03*
%TD*%
D10*
%TO.C,R5*%
X145000000Y-122000000D03*
D11*
X145000000Y-129620000D03*
%TD*%
D10*
%TO.C,R14*%
X87810000Y-59450000D03*
D11*
X87810000Y-51830000D03*
%TD*%
D12*
%TO.C,C8*%
X125182000Y-59182000D03*
D10*
X122682000Y-59182000D03*
%TD*%
%TO.C,R7*%
X92810000Y-100510000D03*
D11*
X92810000Y-92890000D03*
%TD*%
D13*
%TO.C,U3*%
X82300000Y-102850000D03*
D14*
X72400000Y-99050000D03*
X72400000Y-91050000D03*
D15*
X72800000Y-88250000D03*
D16*
X82900000Y-98250000D03*
X82900000Y-97150000D03*
X82900000Y-96050000D03*
X82900000Y-94950000D03*
X82900000Y-93850000D03*
X82900000Y-92750000D03*
X82900000Y-91650000D03*
X82900000Y-90550000D03*
X82900000Y-89450000D03*
D17*
X82300000Y-88250000D03*
D15*
X72700000Y-103750000D03*
%TD*%
D10*
%TO.C,R10*%
X129540000Y-68580000D03*
D11*
X129540000Y-76200000D03*
%TD*%
D18*
%TO.C,J2*%
X77020000Y-113570000D03*
D19*
X71020000Y-113570000D03*
D20*
X74020000Y-118270000D03*
%TD*%
D21*
%TO.C,Q1*%
X95550000Y-51350000D03*
D22*
X93010000Y-51350000D03*
X90470000Y-51350000D03*
%TD*%
D10*
%TO.C,C9*%
X139030000Y-75300000D03*
X144030000Y-75300000D03*
%TD*%
D23*
%TO.C,J1*%
X146070000Y-109750000D03*
X146070000Y-118750000D03*
D24*
X142570000Y-114250000D03*
D25*
X137570000Y-114250000D03*
%TD*%
D26*
%TO.C,J3*%
X92700000Y-64720000D03*
D27*
X95240000Y-64720000D03*
X97780000Y-64720000D03*
X100320000Y-64720000D03*
%TD*%
D13*
%TO.C,U1*%
X131780000Y-89860000D03*
D14*
X141680000Y-93660000D03*
X141680000Y-101660000D03*
D15*
X141280000Y-104460000D03*
D16*
X131180000Y-94460000D03*
X131180000Y-95560000D03*
X131180000Y-96660000D03*
X131180000Y-97760000D03*
X131180000Y-98860000D03*
X131180000Y-99960000D03*
X131180000Y-101060000D03*
X131180000Y-102160000D03*
X131180000Y-103260000D03*
D17*
X131780000Y-104460000D03*
D15*
X141380000Y-88960000D03*
%TD*%
D12*
%TO.C,C14*%
X113320000Y-126360000D03*
D10*
X110820000Y-126360000D03*
%TD*%
%TO.C,R18*%
X144030000Y-61120000D03*
D11*
X144030000Y-68740000D03*
%TD*%
D28*
%TO.C,J4*%
X78040000Y-130300000D03*
X103040000Y-130300000D03*
D12*
X85000000Y-130000000D03*
D10*
X87770000Y-130000000D03*
X90540000Y-130000000D03*
X93310000Y-130000000D03*
X96080000Y-130000000D03*
X86385000Y-132840000D03*
X89155000Y-132840000D03*
X91925000Y-132840000D03*
X94695000Y-132840000D03*
%TD*%
D12*
%TO.C,P1*%
X76702000Y-76132000D03*
D10*
X76702000Y-73532000D03*
X76702000Y-78232000D03*
X76702000Y-71432000D03*
X79502000Y-78232000D03*
X79502000Y-71432000D03*
D29*
X73852000Y-67982000D03*
D30*
X73052000Y-74832000D03*
D29*
X73852000Y-81682000D03*
%TD*%
D31*
%TO.C,D2*%
X92640000Y-70550000D03*
D32*
X92640000Y-78170000D03*
%TD*%
D31*
%TO.C,D1*%
X96030000Y-70550000D03*
D32*
X96030000Y-78170000D03*
%TD*%
D10*
%TO.C,R16*%
X128830000Y-51620000D03*
D11*
X136450000Y-51620000D03*
%TD*%
D10*
%TO.C,R2*%
X88020000Y-85460000D03*
D11*
X80400000Y-85460000D03*
%TD*%
D10*
%TO.C,R3*%
X133510000Y-119120000D03*
D11*
X133510000Y-111500000D03*
%TD*%
D10*
%TO.C,R23*%
X136160000Y-76300000D03*
D11*
X136160000Y-68680000D03*
%TD*%
D10*
%TO.C,C5*%
X87120000Y-70540000D03*
X87120000Y-75540000D03*
%TD*%
D31*
%TO.C,D3*%
X101346000Y-59690000D03*
D32*
X93726000Y-59690000D03*
%TD*%
D10*
%TO.C,C6*%
X87980000Y-62390000D03*
X87980000Y-67390000D03*
%TD*%
D33*
%TO.C,H4*%
X145000000Y-135000000D03*
%TD*%
D10*
%TO.C,C15*%
X83240000Y-120940000D03*
X88240000Y-120940000D03*
%TD*%
%TO.C,C10*%
X139070000Y-71760000D03*
X144070000Y-71760000D03*
%TD*%
%TO.C,C1*%
X136420000Y-86190000D03*
X136420000Y-81190000D03*
%TD*%
D34*
%TO.C,U2*%
X109165000Y-69350000D03*
D35*
X109465000Y-72380000D03*
X114315000Y-72380000D03*
D34*
X114615000Y-69350000D03*
D27*
X103000000Y-69220000D03*
D36*
X102100000Y-69220000D03*
D27*
X103000000Y-71760000D03*
D36*
X102100000Y-71760000D03*
D26*
X103000000Y-74300000D03*
D36*
X102100000Y-74300000D03*
D27*
X103000000Y-76840000D03*
D36*
X102100000Y-76840000D03*
D27*
X103000000Y-79380000D03*
D36*
X102100000Y-79380000D03*
D27*
X103000000Y-81920000D03*
D36*
X102100000Y-81920000D03*
D27*
X103000000Y-84460000D03*
D36*
X102100000Y-84460000D03*
D26*
X103000000Y-87000000D03*
D36*
X102100000Y-87000000D03*
D27*
X103000000Y-89540000D03*
D36*
X102100000Y-89540000D03*
D27*
X103000000Y-92080000D03*
D36*
X102100000Y-92080000D03*
D27*
X103000000Y-94620000D03*
D36*
X102100000Y-94620000D03*
D27*
X103000000Y-97160000D03*
D36*
X102100000Y-97160000D03*
D26*
X103000000Y-99700000D03*
D36*
X102100000Y-99700000D03*
D27*
X103000000Y-102240000D03*
D36*
X102100000Y-102240000D03*
D27*
X103000000Y-104780000D03*
D36*
X102100000Y-104780000D03*
D27*
X103000000Y-107320000D03*
D36*
X102100000Y-107320000D03*
D27*
X103000000Y-109860000D03*
D36*
X102100000Y-109860000D03*
D26*
X103000000Y-112400000D03*
D36*
X102100000Y-112400000D03*
D27*
X103000000Y-114940000D03*
D36*
X102100000Y-114940000D03*
D27*
X103000000Y-117480000D03*
D36*
X102100000Y-117480000D03*
D27*
X120780000Y-117480000D03*
D36*
X121680000Y-117480000D03*
D27*
X120780000Y-114940000D03*
D36*
X121680000Y-114940000D03*
D26*
X120780000Y-112400000D03*
D36*
X121680000Y-112400000D03*
D27*
X120780000Y-109860000D03*
D36*
X121680000Y-109860000D03*
D27*
X120780000Y-107320000D03*
D36*
X121680000Y-107320000D03*
D27*
X120780000Y-104780000D03*
D36*
X121680000Y-104780000D03*
D27*
X120780000Y-102240000D03*
D36*
X121680000Y-102240000D03*
D26*
X120780000Y-99700000D03*
D36*
X121680000Y-99700000D03*
D27*
X120780000Y-97160000D03*
D36*
X121680000Y-97160000D03*
D27*
X120780000Y-94620000D03*
D36*
X121680000Y-94620000D03*
D27*
X120780000Y-92080000D03*
D36*
X121680000Y-92080000D03*
D27*
X120780000Y-89540000D03*
D36*
X121680000Y-89540000D03*
D26*
X120780000Y-87000000D03*
D36*
X121680000Y-87000000D03*
D27*
X120780000Y-84460000D03*
D36*
X121680000Y-84460000D03*
D27*
X120780000Y-81920000D03*
D36*
X121680000Y-81920000D03*
D27*
X120780000Y-79380000D03*
D36*
X121680000Y-79380000D03*
D27*
X120780000Y-76840000D03*
D36*
X121680000Y-76840000D03*
D26*
X120780000Y-74300000D03*
D36*
X121680000Y-74300000D03*
D27*
X120780000Y-71760000D03*
D36*
X121680000Y-71760000D03*
D27*
X120780000Y-69220000D03*
D36*
X121680000Y-69220000D03*
D27*
X109350000Y-117250000D03*
D37*
X109350000Y-118150000D03*
D26*
X111890000Y-117250000D03*
D37*
X111890000Y-118150000D03*
D27*
X114430000Y-117250000D03*
D37*
X114430000Y-118150000D03*
%TD*%
D21*
%TO.C,Q2*%
X97710000Y-51980000D03*
D22*
X100250000Y-51980000D03*
X102790000Y-51980000D03*
%TD*%
D10*
%TO.C,R9*%
X92810000Y-90030000D03*
D11*
X92810000Y-82410000D03*
%TD*%
D10*
%TO.C,C2*%
X77390000Y-85344000D03*
X72390000Y-85344000D03*
%TD*%
%TO.C,R17*%
X136470000Y-54830000D03*
D11*
X128850000Y-54830000D03*
%TD*%
D10*
%TO.C,R13*%
X76380000Y-53100000D03*
D11*
X84000000Y-53100000D03*
%TD*%
D12*
%TO.C,C12*%
X113170000Y-132160000D03*
D10*
X110670000Y-132160000D03*
%TD*%
D33*
%TO.C,H3*%
X69000000Y-135000000D03*
%TD*%
D12*
%TO.C,U5*%
X76962000Y-64150000D03*
D11*
X79502000Y-64150000D03*
X82042000Y-64150000D03*
X84582000Y-64150000D03*
X84582000Y-56530000D03*
X82042000Y-56530000D03*
X79502000Y-56530000D03*
X76962000Y-56530000D03*
%TD*%
D10*
%TO.C,R22*%
X132930000Y-68600000D03*
D11*
X132930000Y-76220000D03*
%TD*%
D33*
%TO.C,H1*%
X69000000Y-51000000D03*
%TD*%
D12*
%TO.C,U6*%
X117120000Y-131180000D03*
D11*
X119660000Y-131180000D03*
X122200000Y-131180000D03*
X124740000Y-131180000D03*
X127280000Y-131180000D03*
X129820000Y-131180000D03*
X132360000Y-131180000D03*
X134900000Y-131180000D03*
X134900000Y-123560000D03*
X132360000Y-123560000D03*
X129820000Y-123560000D03*
X127280000Y-123560000D03*
X124740000Y-123560000D03*
X122200000Y-123560000D03*
X119660000Y-123560000D03*
X117120000Y-123560000D03*
%TD*%
%TO.C,R4*%
X130200000Y-111430000D03*
D10*
X130200000Y-119050000D03*
%TD*%
D12*
%TO.C,C4*%
X91560000Y-115250000D03*
D10*
X94060000Y-115250000D03*
%TD*%
%TO.C,R1*%
X133000000Y-78730000D03*
D11*
X133000000Y-86350000D03*
%TD*%
D12*
%TO.C,C3*%
X92950000Y-110435112D03*
D10*
X92950000Y-107935112D03*
%TD*%
%TO.C,R21*%
X140750000Y-61050000D03*
D11*
X140750000Y-68670000D03*
%TD*%
D10*
%TO.C,R6*%
X95950000Y-100440000D03*
D11*
X95950000Y-92820000D03*
%TD*%
D21*
%TO.C,Q4*%
X130240000Y-64340000D03*
D22*
X127700000Y-64340000D03*
X125160000Y-64340000D03*
%TD*%
D10*
%TO.C,R12*%
X84030000Y-49890000D03*
D11*
X76410000Y-49890000D03*
%TD*%
D33*
%TO.C,H2*%
X145000000Y-51000000D03*
%TD*%
D10*
%TO.C,R8*%
X95970000Y-90030000D03*
D11*
X95970000Y-82410000D03*
%TD*%
D10*
%TO.C,C7*%
X132380000Y-58150000D03*
X137380000Y-58150000D03*
%TD*%
D21*
%TO.C,Q3*%
X137710000Y-64340000D03*
D22*
X135170000Y-64340000D03*
X132630000Y-64340000D03*
%TD*%
D38*
%TO.C,U4*%
X83300000Y-110160000D03*
D39*
X83300000Y-112700000D03*
X83300000Y-115240000D03*
%TD*%
D10*
%TO.C,R15*%
X83770000Y-71510000D03*
D11*
X83770000Y-79130000D03*
%TD*%
D12*
%TO.C,C11*%
X140270000Y-121730000D03*
D10*
X140270000Y-124230000D03*
%TD*%
%TO.C,R19*%
X143170000Y-86240000D03*
D11*
X143170000Y-78620000D03*
%TD*%
D10*
%TO.C,R20*%
X139840000Y-78560000D03*
D11*
X139840000Y-86180000D03*
%TD*%
D12*
%TO.C,C13*%
X140290000Y-128810000D03*
D10*
X140290000Y-131310000D03*
%TD*%
%TO.C,C16*%
X71600000Y-57350000D03*
X71600000Y-62350000D03*
%TD*%
%TO.C,L1*%
X90678000Y-56134000D03*
D11*
X103378000Y-56134000D03*
%TD*%
M02*
