%TF.GenerationSoftware,KiCad,Pcbnew,7.0.11+dfsg-1build4*%
%TF.CreationDate,2025-09-15T20:17:09-05:00*%
%TF.ProjectId,PicoParanoia,5069636f-5061-4726-916e-6f69612e6b69,rev?*%
%TF.SameCoordinates,Original*%
%TF.FileFunction,Drillmap*%
%TF.FilePolarity,Positive*%
%FSLAX45Y45*%
G04 Gerber Fmt 4.5, Leading zero omitted, Abs format (unit mm)*
G04 Created by KiCad (PCBNEW 7.0.11+dfsg-1build4) date 2025-09-15 20:17:09*
%MOMM*%
%LPD*%
G01*
G04 APERTURE LIST*
%ADD10C,0.100000*%
%ADD11C,0.200000*%
%ADD12C,0.102000*%
%ADD13C,0.110000*%
%ADD14C,0.150000*%
%ADD15C,0.320000*%
G04 APERTURE END LIST*
D10*
X6500000Y-4700000D02*
X14900000Y-4700000D01*
X14900000Y-13900000D01*
X6500000Y-13900000D01*
X6500000Y-4700000D01*
D11*
D10*
X6573000Y-11042000D02*
X6613000Y-11082000D01*
X6613000Y-11042000D02*
X6573000Y-11082000D01*
X6587000Y-10424000D02*
X6627000Y-10464000D01*
X6627000Y-10424000D02*
X6587000Y-10464000D01*
X6601000Y-9077000D02*
X6641000Y-9117000D01*
X6641000Y-9077000D02*
X6601000Y-9117000D01*
X6650000Y-6390000D02*
X6690000Y-6430000D01*
X6690000Y-6390000D02*
X6650000Y-6430000D01*
X6685000Y-5865000D02*
X6725000Y-5905000D01*
X6725000Y-5865000D02*
X6685000Y-5905000D01*
X6685000Y-6120000D02*
X6725000Y-6160000D01*
X6725000Y-6120000D02*
X6685000Y-6160000D01*
X6711000Y-9682800D02*
X6751000Y-9722800D01*
X6751000Y-9682800D02*
X6711000Y-9722800D01*
X6773000Y-11625000D02*
X6813000Y-11665000D01*
X6813000Y-11625000D02*
X6773000Y-11665000D01*
X6785000Y-5620000D02*
X6825000Y-5660000D01*
X6825000Y-5620000D02*
X6785000Y-5660000D01*
X6856000Y-6494000D02*
X6896000Y-6534000D01*
X6896000Y-6494000D02*
X6856000Y-6534000D01*
X6880000Y-12080000D02*
X6920000Y-12120000D01*
X6920000Y-12080000D02*
X6880000Y-12120000D01*
X6895000Y-6997000D02*
X6935000Y-7037000D01*
X6935000Y-6997000D02*
X6895000Y-7037000D01*
X6895000Y-7911000D02*
X6935000Y-7951000D01*
X6935000Y-7911000D02*
X6895000Y-7951000D01*
X6906000Y-7494000D02*
X6946000Y-7534000D01*
X6946000Y-7494000D02*
X6906000Y-7534000D01*
X6912000Y-8347000D02*
X6952000Y-8387000D01*
X6952000Y-8347000D02*
X6912000Y-8387000D01*
X7025000Y-5505000D02*
X7065000Y-5545000D01*
X7065000Y-5505000D02*
X7025000Y-5545000D01*
X7080000Y-12480000D02*
X7120000Y-12520000D01*
X7120000Y-12480000D02*
X7080000Y-12520000D01*
X7277000Y-5289000D02*
X7317000Y-5329000D01*
X7317000Y-5289000D02*
X7277000Y-5329000D01*
X7297000Y-6388000D02*
X7337000Y-6428000D01*
X7337000Y-6388000D02*
X7297000Y-6428000D01*
X7341000Y-4970000D02*
X7381000Y-5010000D01*
X7381000Y-4970000D02*
X7341000Y-5010000D01*
X7364000Y-10772000D02*
X7404000Y-10812000D01*
X7404000Y-10772000D02*
X7364000Y-10812000D01*
X7380000Y-12980000D02*
X7420000Y-13020000D01*
X7420000Y-12980000D02*
X7380000Y-13020000D01*
X7428000Y-4770000D02*
X7468000Y-4810000D01*
X7468000Y-4770000D02*
X7428000Y-4810000D01*
X7441000Y-8615000D02*
X7481000Y-8655000D01*
X7481000Y-8615000D02*
X7441000Y-8655000D01*
X7508000Y-8467000D02*
X7548000Y-8507000D01*
X7548000Y-8467000D02*
X7508000Y-8507000D01*
X7567000Y-10587000D02*
X7607000Y-10627000D01*
X7607000Y-10587000D02*
X7567000Y-10627000D01*
X7599000Y-8387000D02*
X7639000Y-8427000D01*
X7639000Y-8387000D02*
X7599000Y-8427000D01*
X7599000Y-8725000D02*
X7639000Y-8765000D01*
X7639000Y-8725000D02*
X7599000Y-8765000D01*
X7680000Y-13580000D02*
X7720000Y-13620000D01*
X7720000Y-13580000D02*
X7680000Y-13620000D01*
X7696000Y-10193000D02*
X7736000Y-10233000D01*
X7736000Y-10193000D02*
X7696000Y-10233000D01*
X7727000Y-10724200D02*
X7767000Y-10764200D01*
X7767000Y-10724200D02*
X7727000Y-10764200D01*
X7741000Y-9819000D02*
X7781000Y-9859000D01*
X7781000Y-9819000D02*
X7741000Y-9859000D01*
X7746000Y-8345000D02*
X7786000Y-8385000D01*
X7786000Y-8345000D02*
X7746000Y-8385000D01*
X7763000Y-9462000D02*
X7803000Y-9502000D01*
X7803000Y-9462000D02*
X7763000Y-9502000D01*
X7787000Y-4754000D02*
X7827000Y-4794000D01*
X7827000Y-4754000D02*
X7787000Y-4794000D01*
X7791000Y-9104000D02*
X7831000Y-9144000D01*
X7831000Y-9104000D02*
X7791000Y-9144000D01*
X7852000Y-8797000D02*
X7892000Y-8837000D01*
X7892000Y-8797000D02*
X7852000Y-8837000D01*
X7904000Y-8357000D02*
X7944000Y-8397000D01*
X7944000Y-8357000D02*
X7904000Y-8397000D01*
X7955600Y-10749600D02*
X7995600Y-10789600D01*
X7995600Y-10749600D02*
X7955600Y-10789600D01*
X8035000Y-4762000D02*
X8075000Y-4802000D01*
X8075000Y-4762000D02*
X8035000Y-4802000D01*
X8088000Y-8357000D02*
X8128000Y-8397000D01*
X8128000Y-8357000D02*
X8088000Y-8397000D01*
X8122500Y-9299000D02*
X8162500Y-9339000D01*
X8162500Y-9299000D02*
X8122500Y-9339000D01*
X8136500Y-9481000D02*
X8176500Y-9521000D01*
X8176500Y-9481000D02*
X8136500Y-9521000D01*
X8209600Y-10724200D02*
X8249600Y-10764200D01*
X8249600Y-10724200D02*
X8209600Y-10764200D01*
X8227000Y-8411000D02*
X8267000Y-8451000D01*
X8267000Y-8411000D02*
X8227000Y-8451000D01*
X8280000Y-13780000D02*
X8320000Y-13820000D01*
X8320000Y-13780000D02*
X8280000Y-13820000D01*
X8353000Y-8554000D02*
X8393000Y-8594000D01*
X8393000Y-8554000D02*
X8353000Y-8594000D01*
X8438200Y-10749600D02*
X8478200Y-10789600D01*
X8478200Y-10749600D02*
X8438200Y-10789600D01*
X8457000Y-9275000D02*
X8497000Y-9315000D01*
X8497000Y-9275000D02*
X8457000Y-9315000D01*
X8468000Y-8627000D02*
X8508000Y-8667000D01*
X8508000Y-8627000D02*
X8468000Y-8667000D01*
X8535000Y-9167000D02*
X8575000Y-9207000D01*
X8575000Y-9167000D02*
X8535000Y-9207000D01*
X8544000Y-8774000D02*
X8584000Y-8814000D01*
X8584000Y-8774000D02*
X8544000Y-8814000D01*
X8544000Y-9333000D02*
X8584000Y-9373000D01*
X8584000Y-9333000D02*
X8544000Y-9373000D01*
X8548000Y-9028000D02*
X8588000Y-9068000D01*
X8588000Y-9028000D02*
X8548000Y-9068000D01*
X8557000Y-8897000D02*
X8597000Y-8937000D01*
X8597000Y-8897000D02*
X8557000Y-8937000D01*
X8612000Y-9444000D02*
X8652000Y-9484000D01*
X8652000Y-9444000D02*
X8612000Y-9484000D01*
X8634000Y-9552000D02*
X8674000Y-9592000D01*
X8674000Y-9552000D02*
X8634000Y-9592000D01*
X8662000Y-9668000D02*
X8702000Y-9708000D01*
X8702000Y-9668000D02*
X8662000Y-9708000D01*
X8668000Y-9794000D02*
X8708000Y-9834000D01*
X8708000Y-9794000D02*
X8668000Y-9834000D01*
X8692200Y-10775000D02*
X8732200Y-10815000D01*
X8732200Y-10775000D02*
X8692200Y-10815000D01*
X8768400Y-9886000D02*
X8808400Y-9926000D01*
X8808400Y-9886000D02*
X8768400Y-9926000D01*
X8849000Y-4776000D02*
X8889000Y-4816000D01*
X8889000Y-4776000D02*
X8849000Y-4816000D01*
X8926000Y-8015000D02*
X8966000Y-8055000D01*
X8966000Y-8015000D02*
X8926000Y-8055000D01*
X8946200Y-10775000D02*
X8986200Y-10815000D01*
X8986200Y-10775000D02*
X8946200Y-10815000D01*
X8980000Y-13780000D02*
X9020000Y-13820000D01*
X9020000Y-13780000D02*
X8980000Y-13820000D01*
X9022400Y-9886000D02*
X9062400Y-9926000D01*
X9062400Y-9886000D02*
X9022400Y-9926000D01*
X9111000Y-4791000D02*
X9151000Y-4831000D01*
X9151000Y-4791000D02*
X9111000Y-4831000D01*
X9149400Y-6203000D02*
X9189400Y-6243000D01*
X9189400Y-6203000D02*
X9149400Y-6243000D01*
X9352600Y-9809800D02*
X9392600Y-9849800D01*
X9392600Y-9809800D02*
X9352600Y-9849800D01*
X9493000Y-4778000D02*
X9533000Y-4818000D01*
X9533000Y-4778000D02*
X9493000Y-4818000D01*
X9555800Y-9809800D02*
X9595800Y-9849800D01*
X9595800Y-9809800D02*
X9555800Y-9849800D01*
X9555800Y-10978200D02*
X9595800Y-11018200D01*
X9595800Y-10978200D02*
X9555800Y-11018200D01*
X9680000Y-13780000D02*
X9720000Y-13820000D01*
X9720000Y-13780000D02*
X9680000Y-13820000D01*
X9718000Y-4767000D02*
X9758000Y-4807000D01*
X9758000Y-4767000D02*
X9718000Y-4807000D01*
X9730000Y-10415000D02*
X9770000Y-10455000D01*
X9770000Y-10415000D02*
X9730000Y-10455000D01*
X9784400Y-9835200D02*
X9824400Y-9875200D01*
X9824400Y-9835200D02*
X9784400Y-9875200D01*
X9784400Y-11029000D02*
X9824400Y-11069000D01*
X9824400Y-11029000D02*
X9784400Y-11069000D01*
X9936800Y-11156000D02*
X9976800Y-11196000D01*
X9976800Y-11156000D02*
X9936800Y-11196000D01*
X10163000Y-4771000D02*
X10203000Y-4811000D01*
X10203000Y-4771000D02*
X10163000Y-4811000D01*
X10380000Y-13780000D02*
X10420000Y-13820000D01*
X10420000Y-13780000D02*
X10380000Y-13820000D01*
X10442000Y-4777000D02*
X10482000Y-4817000D01*
X10482000Y-4777000D02*
X10442000Y-4817000D01*
X10450000Y-6005000D02*
X10490000Y-6045000D01*
X10490000Y-6005000D02*
X10450000Y-6045000D01*
X10453000Y-11191000D02*
X10493000Y-11231000D01*
X10493000Y-11191000D02*
X10453000Y-11231000D01*
X10467000Y-11655000D02*
X10507000Y-11695000D01*
X10507000Y-11655000D02*
X10467000Y-11695000D01*
X10470000Y-11823000D02*
X10510000Y-11863000D01*
X10510000Y-11823000D02*
X10470000Y-11863000D01*
X10474000Y-10514000D02*
X10514000Y-10554000D01*
X10514000Y-10514000D02*
X10474000Y-10554000D01*
X10474000Y-10643000D02*
X10514000Y-10683000D01*
X10514000Y-10643000D02*
X10474000Y-10683000D01*
X10474000Y-11041000D02*
X10514000Y-11081000D01*
X10514000Y-11041000D02*
X10474000Y-11081000D01*
X10477000Y-11345000D02*
X10517000Y-11385000D01*
X10517000Y-11345000D02*
X10477000Y-11385000D01*
X10480000Y-10863000D02*
X10520000Y-10903000D01*
X10520000Y-10863000D02*
X10480000Y-10903000D01*
X10494000Y-11495000D02*
X10534000Y-11535000D01*
X10534000Y-11495000D02*
X10494000Y-11535000D01*
X10496000Y-9923000D02*
X10536000Y-9963000D01*
X10536000Y-9923000D02*
X10496000Y-9963000D01*
X10524000Y-8662000D02*
X10564000Y-8702000D01*
X10564000Y-8662000D02*
X10524000Y-8702000D01*
X10524000Y-9051000D02*
X10564000Y-9091000D01*
X10564000Y-9051000D02*
X10524000Y-9091000D01*
X10526000Y-9743000D02*
X10566000Y-9783000D01*
X10566000Y-9743000D02*
X10526000Y-9783000D01*
X10547000Y-9543000D02*
X10587000Y-9583000D01*
X10587000Y-9543000D02*
X10547000Y-9583000D01*
X10558000Y-9294000D02*
X10598000Y-9334000D01*
X10598000Y-9294000D02*
X10558000Y-9334000D01*
X10559000Y-8805000D02*
X10599000Y-8845000D01*
X10599000Y-8805000D02*
X10559000Y-8845000D01*
X10645000Y-5850000D02*
X10685000Y-5890000D01*
X10685000Y-5850000D02*
X10645000Y-5890000D01*
X10872000Y-4804000D02*
X10912000Y-4844000D01*
X10912000Y-4804000D02*
X10872000Y-4844000D01*
X11100000Y-5805000D02*
X11140000Y-5845000D01*
X11140000Y-5805000D02*
X11100000Y-5845000D01*
X11280000Y-13780000D02*
X11320000Y-13820000D01*
X11320000Y-13780000D02*
X11280000Y-13820000D01*
X11308000Y-4793000D02*
X11348000Y-4833000D01*
X11348000Y-4793000D02*
X11308000Y-4833000D01*
X11510000Y-5800000D02*
X11550000Y-5840000D01*
X11550000Y-5800000D02*
X11510000Y-5840000D01*
X11753000Y-10989000D02*
X11793000Y-11029000D01*
X11793000Y-10989000D02*
X11753000Y-11029000D01*
X11760000Y-9330000D02*
X11800000Y-9370000D01*
X11800000Y-9330000D02*
X11760000Y-9370000D01*
X11763000Y-9986000D02*
X11803000Y-10026000D01*
X11803000Y-9986000D02*
X11763000Y-10026000D01*
X11763000Y-10787000D02*
X11803000Y-10827000D01*
X11803000Y-10787000D02*
X11763000Y-10827000D01*
X11767000Y-11185000D02*
X11807000Y-11225000D01*
X11807000Y-11185000D02*
X11767000Y-11225000D01*
X11770000Y-9124000D02*
X11810000Y-9164000D01*
X11810000Y-9124000D02*
X11770000Y-9164000D01*
X11770000Y-9780000D02*
X11810000Y-9820000D01*
X11810000Y-9780000D02*
X11770000Y-9820000D01*
X11773000Y-9540000D02*
X11813000Y-9580000D01*
X11813000Y-9540000D02*
X11773000Y-9580000D01*
X11795000Y-10288000D02*
X11835000Y-10328000D01*
X11835000Y-10288000D02*
X11795000Y-10328000D01*
X11802000Y-10536000D02*
X11842000Y-10576000D01*
X11842000Y-10536000D02*
X11802000Y-10576000D01*
X11807000Y-8900000D02*
X11847000Y-8940000D01*
X11847000Y-8900000D02*
X11807000Y-8940000D01*
X11832000Y-4804000D02*
X11872000Y-4844000D01*
X11872000Y-4804000D02*
X11832000Y-4844000D01*
X11835000Y-8694000D02*
X11875000Y-8734000D01*
X11875000Y-8694000D02*
X11835000Y-8734000D01*
X11940000Y-5805000D02*
X11980000Y-5845000D01*
X11980000Y-5805000D02*
X11940000Y-5845000D01*
X12180000Y-13780000D02*
X12220000Y-13820000D01*
X12220000Y-13780000D02*
X12180000Y-13820000D01*
X12229000Y-4782000D02*
X12269000Y-4822000D01*
X12269000Y-4782000D02*
X12229000Y-4822000D01*
X12461000Y-9947000D02*
X12501000Y-9987000D01*
X12501000Y-9947000D02*
X12461000Y-9987000D01*
X12470000Y-8635000D02*
X12510000Y-8675000D01*
X12510000Y-8635000D02*
X12470000Y-8675000D01*
X12547000Y-4871000D02*
X12587000Y-4911000D01*
X12587000Y-4871000D02*
X12547000Y-4911000D01*
X12575000Y-10771000D02*
X12615000Y-10811000D01*
X12615000Y-10771000D02*
X12575000Y-10811000D01*
X12580000Y-13780000D02*
X12620000Y-13820000D01*
X12620000Y-13780000D02*
X12580000Y-13820000D01*
X12581000Y-11352000D02*
X12621000Y-11392000D01*
X12621000Y-11352000D02*
X12581000Y-11392000D01*
X12636000Y-11025000D02*
X12676000Y-11065000D01*
X12676000Y-11025000D02*
X12636000Y-11065000D01*
X12654000Y-9880000D02*
X12694000Y-9920000D01*
X12694000Y-9880000D02*
X12654000Y-9920000D01*
X12695000Y-9685000D02*
X12735000Y-9725000D01*
X12735000Y-9685000D02*
X12695000Y-9725000D01*
X12730800Y-9276400D02*
X12770800Y-9316400D01*
X12770800Y-9276400D02*
X12730800Y-9316400D01*
X12807000Y-9149400D02*
X12847000Y-9189400D01*
X12847000Y-9149400D02*
X12807000Y-9189400D01*
X12839000Y-10959000D02*
X12879000Y-10999000D01*
X12879000Y-10959000D02*
X12839000Y-10999000D01*
X12850000Y-10344000D02*
X12890000Y-10384000D01*
X12890000Y-10344000D02*
X12850000Y-10384000D01*
X12891000Y-10230000D02*
X12931000Y-10270000D01*
X12931000Y-10230000D02*
X12891000Y-10270000D01*
X12894000Y-4863000D02*
X12934000Y-4903000D01*
X12934000Y-4863000D02*
X12894000Y-4903000D01*
X12904000Y-10114000D02*
X12944000Y-10154000D01*
X12944000Y-10114000D02*
X12904000Y-10154000D01*
X12909000Y-11372000D02*
X12949000Y-11412000D01*
X12949000Y-11372000D02*
X12909000Y-11412000D01*
X12925000Y-10003000D02*
X12965000Y-10043000D01*
X12965000Y-10003000D02*
X12925000Y-10043000D01*
X12932000Y-9528000D02*
X12972000Y-9568000D01*
X12972000Y-9528000D02*
X12932000Y-9568000D01*
X13111800Y-9225600D02*
X13151800Y-9265600D01*
X13151800Y-9225600D02*
X13111800Y-9265600D01*
X13118000Y-10903000D02*
X13158000Y-10943000D01*
X13158000Y-10903000D02*
X13118000Y-10943000D01*
X13139000Y-11404000D02*
X13179000Y-11444000D01*
X13179000Y-11404000D02*
X13139000Y-11444000D01*
X13205000Y-4916000D02*
X13245000Y-4956000D01*
X13245000Y-4916000D02*
X13205000Y-4956000D01*
X13243500Y-9770000D02*
X13283500Y-9810000D01*
X13283500Y-9770000D02*
X13243500Y-9810000D01*
X13380000Y-13780000D02*
X13420000Y-13820000D01*
X13420000Y-13780000D02*
X13380000Y-13820000D01*
X13404000Y-10907000D02*
X13444000Y-10947000D01*
X13444000Y-10907000D02*
X13404000Y-10947000D01*
X13408000Y-11285000D02*
X13448000Y-11325000D01*
X13448000Y-11285000D02*
X13408000Y-11325000D01*
X13455000Y-8839000D02*
X13495000Y-8879000D01*
X13495000Y-8839000D02*
X13455000Y-8879000D01*
X13498000Y-4902000D02*
X13538000Y-4942000D01*
X13538000Y-4902000D02*
X13498000Y-4942000D01*
X13499000Y-9356000D02*
X13539000Y-9396000D01*
X13539000Y-9356000D02*
X13499000Y-9396000D01*
X13510000Y-9619000D02*
X13550000Y-9659000D01*
X13550000Y-9619000D02*
X13510000Y-9659000D01*
X13564000Y-13351000D02*
X13604000Y-13391000D01*
X13604000Y-13351000D02*
X13564000Y-13391000D01*
X13627000Y-9982000D02*
X13667000Y-10022000D01*
X13667000Y-9982000D02*
X13627000Y-10022000D01*
X13641000Y-10767000D02*
X13681000Y-10807000D01*
X13681000Y-10767000D02*
X13641000Y-10807000D01*
X13689000Y-10300000D02*
X13729000Y-10340000D01*
X13729000Y-10300000D02*
X13689000Y-10340000D01*
X13753000Y-13248000D02*
X13793000Y-13288000D01*
X13793000Y-13248000D02*
X13753000Y-13288000D01*
X13850000Y-10629000D02*
X13890000Y-10669000D01*
X13890000Y-10629000D02*
X13850000Y-10669000D01*
X13918000Y-5440000D02*
X13958000Y-5480000D01*
X13958000Y-5440000D02*
X13918000Y-5480000D01*
X13984000Y-10942000D02*
X14024000Y-10982000D01*
X14024000Y-10942000D02*
X13984000Y-10982000D01*
X14130000Y-5529000D02*
X14170000Y-5569000D01*
X14170000Y-5529000D02*
X14130000Y-5569000D01*
X14280000Y-10893000D02*
X14320000Y-10933000D01*
X14320000Y-10893000D02*
X14280000Y-10933000D01*
X14365000Y-5702000D02*
X14405000Y-5742000D01*
X14405000Y-5702000D02*
X14365000Y-5742000D01*
X14380000Y-10664000D02*
X14420000Y-10704000D01*
X14420000Y-10664000D02*
X14380000Y-10704000D01*
X14503000Y-10306000D02*
X14543000Y-10346000D01*
X14543000Y-10306000D02*
X14503000Y-10346000D01*
X14560000Y-9690000D02*
X14600000Y-9730000D01*
X14600000Y-9690000D02*
X14560000Y-9730000D01*
X14575000Y-9995000D02*
X14615000Y-10035000D01*
X14615000Y-9995000D02*
X14575000Y-10035000D01*
X14585000Y-11405000D02*
X14625000Y-11445000D01*
X14625000Y-11405000D02*
X14585000Y-11445000D01*
X14595000Y-9370000D02*
X14635000Y-9410000D01*
X14635000Y-9370000D02*
X14595000Y-9410000D01*
X14610000Y-8075000D02*
X14650000Y-8115000D01*
X14650000Y-8075000D02*
X14610000Y-8115000D01*
X14620000Y-8600000D02*
X14660000Y-8640000D01*
X14660000Y-8600000D02*
X14620000Y-8640000D01*
X14633000Y-6255000D02*
X14673000Y-6295000D01*
X14673000Y-6255000D02*
X14633000Y-6295000D01*
X14640000Y-7510000D02*
X14680000Y-7550000D01*
X14680000Y-7510000D02*
X14640000Y-7550000D01*
X14655000Y-9035000D02*
X14695000Y-9075000D01*
X14695000Y-9035000D02*
X14655000Y-9075000D01*
X14680000Y-12680000D02*
X14720000Y-12720000D01*
X14720000Y-12680000D02*
X14680000Y-12720000D01*
X14721000Y-7108000D02*
X14761000Y-7148000D01*
X14761000Y-7108000D02*
X14721000Y-7148000D01*
X14761000Y-6837000D02*
X14801000Y-6877000D01*
X14801000Y-6837000D02*
X14761000Y-6877000D01*
X14780000Y-12280000D02*
X14820000Y-12320000D01*
X14820000Y-12280000D02*
X14780000Y-12320000D01*
X14785000Y-6614000D02*
X14825000Y-6654000D01*
X14825000Y-6614000D02*
X14785000Y-6654000D01*
X7200000Y-5735000D02*
G75*
G03*
X7120000Y-5735000I-40000J0D01*
G01*
X7120000Y-5735000D02*
G75*
G03*
X7200000Y-5735000I40000J0D01*
G01*
X7200000Y-6235000D02*
G75*
G03*
X7120000Y-6235000I-40000J0D01*
G01*
X7120000Y-6235000D02*
G75*
G03*
X7200000Y-6235000I40000J0D01*
G01*
X7279000Y-8534400D02*
G75*
G03*
X7199000Y-8534400I-40000J0D01*
G01*
X7199000Y-8534400D02*
G75*
G03*
X7279000Y-8534400I40000J0D01*
G01*
X7678000Y-5310000D02*
G75*
G03*
X7598000Y-5310000I-40000J0D01*
G01*
X7598000Y-5310000D02*
G75*
G03*
X7678000Y-5310000I40000J0D01*
G01*
X7681000Y-4989000D02*
G75*
G03*
X7601000Y-4989000I-40000J0D01*
G01*
X7601000Y-4989000D02*
G75*
G03*
X7681000Y-4989000I40000J0D01*
G01*
X7710200Y-7143200D02*
G75*
G03*
X7630200Y-7143200I-40000J0D01*
G01*
X7630200Y-7143200D02*
G75*
G03*
X7710200Y-7143200I40000J0D01*
G01*
X7710200Y-7353200D02*
G75*
G03*
X7630200Y-7353200I-40000J0D01*
G01*
X7630200Y-7353200D02*
G75*
G03*
X7710200Y-7353200I40000J0D01*
G01*
X7710200Y-7613200D02*
G75*
G03*
X7630200Y-7613200I-40000J0D01*
G01*
X7630200Y-7613200D02*
G75*
G03*
X7710200Y-7613200I40000J0D01*
G01*
X7710200Y-7823200D02*
G75*
G03*
X7630200Y-7823200I-40000J0D01*
G01*
X7630200Y-7823200D02*
G75*
G03*
X7710200Y-7823200I40000J0D01*
G01*
X7736200Y-5653000D02*
G75*
G03*
X7656200Y-5653000I-40000J0D01*
G01*
X7656200Y-5653000D02*
G75*
G03*
X7736200Y-5653000I40000J0D01*
G01*
X7736200Y-6415000D02*
G75*
G03*
X7656200Y-6415000I-40000J0D01*
G01*
X7656200Y-6415000D02*
G75*
G03*
X7736200Y-6415000I40000J0D01*
G01*
X7779000Y-8534400D02*
G75*
G03*
X7699000Y-8534400I-40000J0D01*
G01*
X7699000Y-8534400D02*
G75*
G03*
X7779000Y-8534400I40000J0D01*
G01*
X7990200Y-5653000D02*
G75*
G03*
X7910200Y-5653000I-40000J0D01*
G01*
X7910200Y-5653000D02*
G75*
G03*
X7990200Y-5653000I40000J0D01*
G01*
X7990200Y-6415000D02*
G75*
G03*
X7910200Y-6415000I-40000J0D01*
G01*
X7910200Y-6415000D02*
G75*
G03*
X7990200Y-6415000I40000J0D01*
G01*
X7990200Y-7143200D02*
G75*
G03*
X7910200Y-7143200I-40000J0D01*
G01*
X7910200Y-7143200D02*
G75*
G03*
X7990200Y-7143200I40000J0D01*
G01*
X7990200Y-7823200D02*
G75*
G03*
X7910200Y-7823200I-40000J0D01*
G01*
X7910200Y-7823200D02*
G75*
G03*
X7990200Y-7823200I40000J0D01*
G01*
X8080000Y-8546000D02*
G75*
G03*
X8000000Y-8546000I-40000J0D01*
G01*
X8000000Y-8546000D02*
G75*
G03*
X8080000Y-8546000I40000J0D01*
G01*
X8244200Y-5653000D02*
G75*
G03*
X8164200Y-5653000I-40000J0D01*
G01*
X8164200Y-5653000D02*
G75*
G03*
X8244200Y-5653000I40000J0D01*
G01*
X8244200Y-6415000D02*
G75*
G03*
X8164200Y-6415000I-40000J0D01*
G01*
X8164200Y-6415000D02*
G75*
G03*
X8244200Y-6415000I40000J0D01*
G01*
X8364000Y-12094000D02*
G75*
G03*
X8284000Y-12094000I-40000J0D01*
G01*
X8284000Y-12094000D02*
G75*
G03*
X8364000Y-12094000I40000J0D01*
G01*
X8417000Y-7151000D02*
G75*
G03*
X8337000Y-7151000I-40000J0D01*
G01*
X8337000Y-7151000D02*
G75*
G03*
X8417000Y-7151000I40000J0D01*
G01*
X8417000Y-7913000D02*
G75*
G03*
X8337000Y-7913000I-40000J0D01*
G01*
X8337000Y-7913000D02*
G75*
G03*
X8417000Y-7913000I40000J0D01*
G01*
X8440000Y-5310000D02*
G75*
G03*
X8360000Y-5310000I-40000J0D01*
G01*
X8360000Y-5310000D02*
G75*
G03*
X8440000Y-5310000I40000J0D01*
G01*
X8443000Y-4989000D02*
G75*
G03*
X8363000Y-4989000I-40000J0D01*
G01*
X8363000Y-4989000D02*
G75*
G03*
X8443000Y-4989000I40000J0D01*
G01*
X8498200Y-5653000D02*
G75*
G03*
X8418200Y-5653000I-40000J0D01*
G01*
X8418200Y-5653000D02*
G75*
G03*
X8498200Y-5653000I40000J0D01*
G01*
X8498200Y-6415000D02*
G75*
G03*
X8418200Y-6415000I-40000J0D01*
G01*
X8418200Y-6415000D02*
G75*
G03*
X8498200Y-6415000I40000J0D01*
G01*
X8752000Y-7054000D02*
G75*
G03*
X8672000Y-7054000I-40000J0D01*
G01*
X8672000Y-7054000D02*
G75*
G03*
X8752000Y-7054000I40000J0D01*
G01*
X8752000Y-7554000D02*
G75*
G03*
X8672000Y-7554000I-40000J0D01*
G01*
X8672000Y-7554000D02*
G75*
G03*
X8752000Y-7554000I40000J0D01*
G01*
X8821000Y-5183000D02*
G75*
G03*
X8741000Y-5183000I-40000J0D01*
G01*
X8741000Y-5183000D02*
G75*
G03*
X8821000Y-5183000I40000J0D01*
G01*
X8821000Y-5945000D02*
G75*
G03*
X8741000Y-5945000I-40000J0D01*
G01*
X8741000Y-5945000D02*
G75*
G03*
X8821000Y-5945000I40000J0D01*
G01*
X8838000Y-6239000D02*
G75*
G03*
X8758000Y-6239000I-40000J0D01*
G01*
X8758000Y-6239000D02*
G75*
G03*
X8838000Y-6239000I40000J0D01*
G01*
X8838000Y-6739000D02*
G75*
G03*
X8758000Y-6739000I-40000J0D01*
G01*
X8758000Y-6739000D02*
G75*
G03*
X8838000Y-6739000I40000J0D01*
G01*
X8842000Y-8546000D02*
G75*
G03*
X8762000Y-8546000I-40000J0D01*
G01*
X8762000Y-8546000D02*
G75*
G03*
X8842000Y-8546000I40000J0D01*
G01*
X8864000Y-12094000D02*
G75*
G03*
X8784000Y-12094000I-40000J0D01*
G01*
X8784000Y-12094000D02*
G75*
G03*
X8864000Y-12094000I40000J0D01*
G01*
X9087000Y-5135000D02*
G75*
G03*
X9007000Y-5135000I-40000J0D01*
G01*
X9007000Y-5135000D02*
G75*
G03*
X9087000Y-5135000I40000J0D01*
G01*
X9107800Y-5613400D02*
G75*
G03*
X9027800Y-5613400I-40000J0D01*
G01*
X9027800Y-5613400D02*
G75*
G03*
X9107800Y-5613400I40000J0D01*
G01*
X9196000Y-11525000D02*
G75*
G03*
X9116000Y-11525000I-40000J0D01*
G01*
X9116000Y-11525000D02*
G75*
G03*
X9196000Y-11525000I40000J0D01*
G01*
X9321000Y-8241000D02*
G75*
G03*
X9241000Y-8241000I-40000J0D01*
G01*
X9241000Y-8241000D02*
G75*
G03*
X9321000Y-8241000I40000J0D01*
G01*
X9321000Y-9003000D02*
G75*
G03*
X9241000Y-9003000I-40000J0D01*
G01*
X9241000Y-9003000D02*
G75*
G03*
X9321000Y-9003000I40000J0D01*
G01*
X9321000Y-9289000D02*
G75*
G03*
X9241000Y-9289000I-40000J0D01*
G01*
X9241000Y-9289000D02*
G75*
G03*
X9321000Y-9289000I40000J0D01*
G01*
X9321000Y-10051000D02*
G75*
G03*
X9241000Y-10051000I-40000J0D01*
G01*
X9241000Y-10051000D02*
G75*
G03*
X9321000Y-10051000I40000J0D01*
G01*
X9335000Y-10793511D02*
G75*
G03*
X9255000Y-10793511I-40000J0D01*
G01*
X9255000Y-10793511D02*
G75*
G03*
X9335000Y-10793511I40000J0D01*
G01*
X9335000Y-11043511D02*
G75*
G03*
X9255000Y-11043511I-40000J0D01*
G01*
X9255000Y-11043511D02*
G75*
G03*
X9335000Y-11043511I40000J0D01*
G01*
X9341000Y-5135000D02*
G75*
G03*
X9261000Y-5135000I-40000J0D01*
G01*
X9261000Y-5135000D02*
G75*
G03*
X9341000Y-5135000I40000J0D01*
G01*
X9446000Y-11525000D02*
G75*
G03*
X9366000Y-11525000I-40000J0D01*
G01*
X9366000Y-11525000D02*
G75*
G03*
X9446000Y-11525000I40000J0D01*
G01*
X9595000Y-5135000D02*
G75*
G03*
X9515000Y-5135000I-40000J0D01*
G01*
X9515000Y-5135000D02*
G75*
G03*
X9595000Y-5135000I40000J0D01*
G01*
X9635000Y-9282000D02*
G75*
G03*
X9555000Y-9282000I-40000J0D01*
G01*
X9555000Y-9282000D02*
G75*
G03*
X9635000Y-9282000I40000J0D01*
G01*
X9635000Y-10044000D02*
G75*
G03*
X9555000Y-10044000I-40000J0D01*
G01*
X9555000Y-10044000D02*
G75*
G03*
X9635000Y-10044000I40000J0D01*
G01*
X9637000Y-8241000D02*
G75*
G03*
X9557000Y-8241000I-40000J0D01*
G01*
X9557000Y-8241000D02*
G75*
G03*
X9637000Y-8241000I40000J0D01*
G01*
X9637000Y-9003000D02*
G75*
G03*
X9557000Y-9003000I-40000J0D01*
G01*
X9557000Y-9003000D02*
G75*
G03*
X9637000Y-9003000I40000J0D01*
G01*
X9811000Y-5198000D02*
G75*
G03*
X9731000Y-5198000I-40000J0D01*
G01*
X9731000Y-5198000D02*
G75*
G03*
X9811000Y-5198000I40000J0D01*
G01*
X10065000Y-5198000D02*
G75*
G03*
X9985000Y-5198000I-40000J0D01*
G01*
X9985000Y-5198000D02*
G75*
G03*
X10065000Y-5198000I40000J0D01*
G01*
X10319000Y-5198000D02*
G75*
G03*
X10239000Y-5198000I-40000J0D01*
G01*
X10239000Y-5198000D02*
G75*
G03*
X10319000Y-5198000I40000J0D01*
G01*
X10377800Y-5613400D02*
G75*
G03*
X10297800Y-5613400I-40000J0D01*
G01*
X10297800Y-5613400D02*
G75*
G03*
X10377800Y-5613400I40000J0D01*
G01*
X11107000Y-13216000D02*
G75*
G03*
X11027000Y-13216000I-40000J0D01*
G01*
X11027000Y-13216000D02*
G75*
G03*
X11107000Y-13216000I40000J0D01*
G01*
X11122000Y-12636000D02*
G75*
G03*
X11042000Y-12636000I-40000J0D01*
G01*
X11042000Y-12636000D02*
G75*
G03*
X11122000Y-12636000I40000J0D01*
G01*
X11357000Y-13216000D02*
G75*
G03*
X11277000Y-13216000I-40000J0D01*
G01*
X11277000Y-13216000D02*
G75*
G03*
X11357000Y-13216000I40000J0D01*
G01*
X11372000Y-12636000D02*
G75*
G03*
X11292000Y-12636000I-40000J0D01*
G01*
X11292000Y-12636000D02*
G75*
G03*
X11372000Y-12636000I40000J0D01*
G01*
X11752000Y-12356000D02*
G75*
G03*
X11672000Y-12356000I-40000J0D01*
G01*
X11672000Y-12356000D02*
G75*
G03*
X11752000Y-12356000I40000J0D01*
G01*
X11752000Y-13118000D02*
G75*
G03*
X11672000Y-13118000I-40000J0D01*
G01*
X11672000Y-13118000D02*
G75*
G03*
X11752000Y-13118000I40000J0D01*
G01*
X12006000Y-12356000D02*
G75*
G03*
X11926000Y-12356000I-40000J0D01*
G01*
X11926000Y-12356000D02*
G75*
G03*
X12006000Y-12356000I40000J0D01*
G01*
X12006000Y-13118000D02*
G75*
G03*
X11926000Y-13118000I-40000J0D01*
G01*
X11926000Y-13118000D02*
G75*
G03*
X12006000Y-13118000I40000J0D01*
G01*
X12260000Y-12356000D02*
G75*
G03*
X12180000Y-12356000I-40000J0D01*
G01*
X12180000Y-12356000D02*
G75*
G03*
X12260000Y-12356000I40000J0D01*
G01*
X12260000Y-13118000D02*
G75*
G03*
X12180000Y-13118000I-40000J0D01*
G01*
X12180000Y-13118000D02*
G75*
G03*
X12260000Y-13118000I40000J0D01*
G01*
X12308200Y-5918200D02*
G75*
G03*
X12228200Y-5918200I-40000J0D01*
G01*
X12228200Y-5918200D02*
G75*
G03*
X12308200Y-5918200I40000J0D01*
G01*
X12514000Y-12356000D02*
G75*
G03*
X12434000Y-12356000I-40000J0D01*
G01*
X12434000Y-12356000D02*
G75*
G03*
X12514000Y-12356000I40000J0D01*
G01*
X12514000Y-13118000D02*
G75*
G03*
X12434000Y-13118000I-40000J0D01*
G01*
X12434000Y-13118000D02*
G75*
G03*
X12514000Y-13118000I40000J0D01*
G01*
X12556000Y-6434000D02*
G75*
G03*
X12476000Y-6434000I-40000J0D01*
G01*
X12476000Y-6434000D02*
G75*
G03*
X12556000Y-6434000I40000J0D01*
G01*
X12558200Y-5918200D02*
G75*
G03*
X12478200Y-5918200I-40000J0D01*
G01*
X12478200Y-5918200D02*
G75*
G03*
X12558200Y-5918200I40000J0D01*
G01*
X12768000Y-12356000D02*
G75*
G03*
X12688000Y-12356000I-40000J0D01*
G01*
X12688000Y-12356000D02*
G75*
G03*
X12768000Y-12356000I40000J0D01*
G01*
X12768000Y-13118000D02*
G75*
G03*
X12688000Y-13118000I-40000J0D01*
G01*
X12688000Y-13118000D02*
G75*
G03*
X12768000Y-13118000I40000J0D01*
G01*
X12810000Y-6434000D02*
G75*
G03*
X12730000Y-6434000I-40000J0D01*
G01*
X12730000Y-6434000D02*
G75*
G03*
X12810000Y-6434000I40000J0D01*
G01*
X12923000Y-5162000D02*
G75*
G03*
X12843000Y-5162000I-40000J0D01*
G01*
X12843000Y-5162000D02*
G75*
G03*
X12923000Y-5162000I40000J0D01*
G01*
X12925000Y-5483000D02*
G75*
G03*
X12845000Y-5483000I-40000J0D01*
G01*
X12845000Y-5483000D02*
G75*
G03*
X12925000Y-5483000I40000J0D01*
G01*
X12994000Y-6858000D02*
G75*
G03*
X12914000Y-6858000I-40000J0D01*
G01*
X12914000Y-6858000D02*
G75*
G03*
X12994000Y-6858000I40000J0D01*
G01*
X12994000Y-7620000D02*
G75*
G03*
X12914000Y-7620000I-40000J0D01*
G01*
X12914000Y-7620000D02*
G75*
G03*
X12994000Y-7620000I40000J0D01*
G01*
X12994000Y-7874000D02*
G75*
G03*
X12914000Y-7874000I-40000J0D01*
G01*
X12914000Y-7874000D02*
G75*
G03*
X12994000Y-7874000I40000J0D01*
G01*
X12994000Y-8636000D02*
G75*
G03*
X12914000Y-8636000I-40000J0D01*
G01*
X12914000Y-8636000D02*
G75*
G03*
X12994000Y-8636000I40000J0D01*
G01*
X13022000Y-12356000D02*
G75*
G03*
X12942000Y-12356000I-40000J0D01*
G01*
X12942000Y-12356000D02*
G75*
G03*
X13022000Y-12356000I40000J0D01*
G01*
X13022000Y-13118000D02*
G75*
G03*
X12942000Y-13118000I-40000J0D01*
G01*
X12942000Y-13118000D02*
G75*
G03*
X13022000Y-13118000I40000J0D01*
G01*
X13060000Y-11143000D02*
G75*
G03*
X12980000Y-11143000I-40000J0D01*
G01*
X12980000Y-11143000D02*
G75*
G03*
X13060000Y-11143000I40000J0D01*
G01*
X13060000Y-11905000D02*
G75*
G03*
X12980000Y-11905000I-40000J0D01*
G01*
X12980000Y-11905000D02*
G75*
G03*
X13060000Y-11905000I40000J0D01*
G01*
X13064000Y-6434000D02*
G75*
G03*
X12984000Y-6434000I-40000J0D01*
G01*
X12984000Y-6434000D02*
G75*
G03*
X13064000Y-6434000I40000J0D01*
G01*
X13276000Y-12356000D02*
G75*
G03*
X13196000Y-12356000I-40000J0D01*
G01*
X13196000Y-12356000D02*
G75*
G03*
X13276000Y-12356000I40000J0D01*
G01*
X13276000Y-13118000D02*
G75*
G03*
X13196000Y-13118000I-40000J0D01*
G01*
X13196000Y-13118000D02*
G75*
G03*
X13276000Y-13118000I40000J0D01*
G01*
X13278000Y-5815000D02*
G75*
G03*
X13198000Y-5815000I-40000J0D01*
G01*
X13198000Y-5815000D02*
G75*
G03*
X13278000Y-5815000I40000J0D01*
G01*
X13303000Y-6434000D02*
G75*
G03*
X13223000Y-6434000I-40000J0D01*
G01*
X13223000Y-6434000D02*
G75*
G03*
X13303000Y-6434000I40000J0D01*
G01*
X13333000Y-6860000D02*
G75*
G03*
X13253000Y-6860000I-40000J0D01*
G01*
X13253000Y-6860000D02*
G75*
G03*
X13333000Y-6860000I40000J0D01*
G01*
X13333000Y-7622000D02*
G75*
G03*
X13253000Y-7622000I-40000J0D01*
G01*
X13253000Y-7622000D02*
G75*
G03*
X13333000Y-7622000I40000J0D01*
G01*
X13340000Y-7873000D02*
G75*
G03*
X13260000Y-7873000I-40000J0D01*
G01*
X13260000Y-7873000D02*
G75*
G03*
X13340000Y-7873000I40000J0D01*
G01*
X13340000Y-8635000D02*
G75*
G03*
X13260000Y-8635000I-40000J0D01*
G01*
X13260000Y-8635000D02*
G75*
G03*
X13340000Y-8635000I40000J0D01*
G01*
X13391000Y-11150000D02*
G75*
G03*
X13311000Y-11150000I-40000J0D01*
G01*
X13311000Y-11150000D02*
G75*
G03*
X13391000Y-11150000I40000J0D01*
G01*
X13391000Y-11912000D02*
G75*
G03*
X13311000Y-11912000I-40000J0D01*
G01*
X13311000Y-11912000D02*
G75*
G03*
X13391000Y-11912000I40000J0D01*
G01*
X13530000Y-12356000D02*
G75*
G03*
X13450000Y-12356000I-40000J0D01*
G01*
X13450000Y-12356000D02*
G75*
G03*
X13530000Y-12356000I40000J0D01*
G01*
X13530000Y-13118000D02*
G75*
G03*
X13450000Y-13118000I-40000J0D01*
G01*
X13450000Y-13118000D02*
G75*
G03*
X13530000Y-13118000I40000J0D01*
G01*
X13557000Y-6434000D02*
G75*
G03*
X13477000Y-6434000I-40000J0D01*
G01*
X13477000Y-6434000D02*
G75*
G03*
X13557000Y-6434000I40000J0D01*
G01*
X13656000Y-6868000D02*
G75*
G03*
X13576000Y-6868000I-40000J0D01*
G01*
X13576000Y-6868000D02*
G75*
G03*
X13656000Y-6868000I40000J0D01*
G01*
X13656000Y-7630000D02*
G75*
G03*
X13576000Y-7630000I-40000J0D01*
G01*
X13576000Y-7630000D02*
G75*
G03*
X13656000Y-7630000I40000J0D01*
G01*
X13682000Y-8119000D02*
G75*
G03*
X13602000Y-8119000I-40000J0D01*
G01*
X13602000Y-8119000D02*
G75*
G03*
X13682000Y-8119000I40000J0D01*
G01*
X13682000Y-8619000D02*
G75*
G03*
X13602000Y-8619000I-40000J0D01*
G01*
X13602000Y-8619000D02*
G75*
G03*
X13682000Y-8619000I40000J0D01*
G01*
X13685000Y-5162000D02*
G75*
G03*
X13605000Y-5162000I-40000J0D01*
G01*
X13605000Y-5162000D02*
G75*
G03*
X13685000Y-5162000I40000J0D01*
G01*
X13687000Y-5483000D02*
G75*
G03*
X13607000Y-5483000I-40000J0D01*
G01*
X13607000Y-5483000D02*
G75*
G03*
X13687000Y-5483000I40000J0D01*
G01*
X13778000Y-5815000D02*
G75*
G03*
X13698000Y-5815000I-40000J0D01*
G01*
X13698000Y-5815000D02*
G75*
G03*
X13778000Y-5815000I40000J0D01*
G01*
X13811000Y-6434000D02*
G75*
G03*
X13731000Y-6434000I-40000J0D01*
G01*
X13731000Y-6434000D02*
G75*
G03*
X13811000Y-6434000I40000J0D01*
G01*
X13943000Y-7530000D02*
G75*
G03*
X13863000Y-7530000I-40000J0D01*
G01*
X13863000Y-7530000D02*
G75*
G03*
X13943000Y-7530000I40000J0D01*
G01*
X13947000Y-7176000D02*
G75*
G03*
X13867000Y-7176000I-40000J0D01*
G01*
X13867000Y-7176000D02*
G75*
G03*
X13947000Y-7176000I40000J0D01*
G01*
X14024000Y-7856000D02*
G75*
G03*
X13944000Y-7856000I-40000J0D01*
G01*
X13944000Y-7856000D02*
G75*
G03*
X14024000Y-7856000I40000J0D01*
G01*
X14024000Y-8618000D02*
G75*
G03*
X13944000Y-8618000I-40000J0D01*
G01*
X13944000Y-8618000D02*
G75*
G03*
X14024000Y-8618000I40000J0D01*
G01*
X14067000Y-12173000D02*
G75*
G03*
X13987000Y-12173000I-40000J0D01*
G01*
X13987000Y-12173000D02*
G75*
G03*
X14067000Y-12173000I40000J0D01*
G01*
X14067000Y-12423000D02*
G75*
G03*
X13987000Y-12423000I-40000J0D01*
G01*
X13987000Y-12423000D02*
G75*
G03*
X14067000Y-12423000I40000J0D01*
G01*
X14069000Y-12881000D02*
G75*
G03*
X13989000Y-12881000I-40000J0D01*
G01*
X13989000Y-12881000D02*
G75*
G03*
X14069000Y-12881000I40000J0D01*
G01*
X14069000Y-13131000D02*
G75*
G03*
X13989000Y-13131000I-40000J0D01*
G01*
X13989000Y-13131000D02*
G75*
G03*
X14069000Y-13131000I40000J0D01*
G01*
X14115000Y-6105000D02*
G75*
G03*
X14035000Y-6105000I-40000J0D01*
G01*
X14035000Y-6105000D02*
G75*
G03*
X14115000Y-6105000I40000J0D01*
G01*
X14115000Y-6867000D02*
G75*
G03*
X14035000Y-6867000I-40000J0D01*
G01*
X14035000Y-6867000D02*
G75*
G03*
X14115000Y-6867000I40000J0D01*
G01*
X14357000Y-7862000D02*
G75*
G03*
X14277000Y-7862000I-40000J0D01*
G01*
X14277000Y-7862000D02*
G75*
G03*
X14357000Y-7862000I40000J0D01*
G01*
X14357000Y-8624000D02*
G75*
G03*
X14277000Y-8624000I-40000J0D01*
G01*
X14277000Y-8624000D02*
G75*
G03*
X14357000Y-8624000I40000J0D01*
G01*
X14443000Y-6112000D02*
G75*
G03*
X14363000Y-6112000I-40000J0D01*
G01*
X14363000Y-6112000D02*
G75*
G03*
X14443000Y-6112000I40000J0D01*
G01*
X14443000Y-6874000D02*
G75*
G03*
X14363000Y-6874000I-40000J0D01*
G01*
X14363000Y-6874000D02*
G75*
G03*
X14443000Y-6874000I40000J0D01*
G01*
X14443000Y-7530000D02*
G75*
G03*
X14363000Y-7530000I-40000J0D01*
G01*
X14363000Y-7530000D02*
G75*
G03*
X14443000Y-7530000I40000J0D01*
G01*
X14447000Y-7176000D02*
G75*
G03*
X14367000Y-7176000I-40000J0D01*
G01*
X14367000Y-7176000D02*
G75*
G03*
X14447000Y-7176000I40000J0D01*
G01*
X14540000Y-12200000D02*
G75*
G03*
X14460000Y-12200000I-40000J0D01*
G01*
X14460000Y-12200000D02*
G75*
G03*
X14540000Y-12200000I40000J0D01*
G01*
X14540000Y-12962000D02*
G75*
G03*
X14460000Y-12962000I-40000J0D01*
G01*
X14460000Y-12962000D02*
G75*
G03*
X14540000Y-12962000I40000J0D01*
G01*
X7102000Y-11307000D02*
X7102000Y-11407000D01*
X7052000Y-11357000D02*
X7152000Y-11357000D01*
X7052000Y-11257000D02*
X7052000Y-11457000D01*
X7052000Y-11457000D02*
G75*
G03*
X7152000Y-11457000I50000J0D01*
G01*
X7152000Y-11457000D02*
X7152000Y-11257000D01*
X7152000Y-11257000D02*
G75*
G03*
X7052000Y-11257000I-50000J0D01*
G01*
X7305200Y-7433200D02*
X7305200Y-7533200D01*
X7255200Y-7483200D02*
X7355200Y-7483200D01*
X7255200Y-7383200D02*
X7255200Y-7583200D01*
X7255200Y-7583200D02*
G75*
G03*
X7355200Y-7583200I50000J0D01*
G01*
X7355200Y-7583200D02*
X7355200Y-7383200D01*
X7355200Y-7383200D02*
G75*
G03*
X7255200Y-7383200I-50000J0D01*
G01*
X7385200Y-6748200D02*
X7385200Y-6848200D01*
X7335200Y-6798200D02*
X7435200Y-6798200D01*
X7460200Y-6748200D02*
X7310200Y-6748200D01*
X7310200Y-6748200D02*
G75*
G03*
X7310200Y-6848200I0J-50000D01*
G01*
X7310200Y-6848200D02*
X7460200Y-6848200D01*
X7460200Y-6848200D02*
G75*
G03*
X7460200Y-6748200I0J50000D01*
G01*
X7385200Y-8118200D02*
X7385200Y-8218200D01*
X7335200Y-8168200D02*
X7435200Y-8168200D01*
X7460200Y-8118200D02*
X7310200Y-8118200D01*
X7310200Y-8118200D02*
G75*
G03*
X7310200Y-8218200I0J-50000D01*
G01*
X7310200Y-8218200D02*
X7460200Y-8218200D01*
X7460200Y-8218200D02*
G75*
G03*
X7460200Y-8118200I0J50000D01*
G01*
X7402000Y-11777000D02*
X7402000Y-11877000D01*
X7352000Y-11827000D02*
X7452000Y-11827000D01*
X7302000Y-11877000D02*
X7502000Y-11877000D01*
X7502000Y-11877000D02*
G75*
G03*
X7502000Y-11777000I0J50000D01*
G01*
X7502000Y-11777000D02*
X7302000Y-11777000D01*
X7302000Y-11777000D02*
G75*
G03*
X7302000Y-11877000I0J-50000D01*
G01*
X7702000Y-11307000D02*
X7702000Y-11407000D01*
X7652000Y-11357000D02*
X7752000Y-11357000D01*
X7652000Y-11257000D02*
X7652000Y-11457000D01*
X7652000Y-11457000D02*
G75*
G03*
X7752000Y-11457000I50000J0D01*
G01*
X7752000Y-11457000D02*
X7752000Y-11257000D01*
X7752000Y-11257000D02*
G75*
G03*
X7652000Y-11257000I-50000J0D01*
G01*
X8500000Y-12950000D02*
X8500000Y-13050000D01*
X8450000Y-13000000D02*
X8550000Y-13000000D01*
X8638500Y-13234000D02*
X8638500Y-13334000D01*
X8588500Y-13284000D02*
X8688500Y-13284000D01*
X8777000Y-12950000D02*
X8777000Y-13050000D01*
X8727000Y-13000000D02*
X8827000Y-13000000D01*
X8915500Y-13234000D02*
X8915500Y-13334000D01*
X8865500Y-13284000D02*
X8965500Y-13284000D01*
X9054000Y-12950000D02*
X9054000Y-13050000D01*
X9004000Y-13000000D02*
X9104000Y-13000000D01*
X9192500Y-13234000D02*
X9192500Y-13334000D01*
X9142500Y-13284000D02*
X9242500Y-13284000D01*
X9270000Y-6422000D02*
X9270000Y-6522000D01*
X9220000Y-6472000D02*
X9320000Y-6472000D01*
X9331000Y-12950000D02*
X9331000Y-13050000D01*
X9281000Y-13000000D02*
X9381000Y-13000000D01*
X9469500Y-13234000D02*
X9469500Y-13334000D01*
X9419500Y-13284000D02*
X9519500Y-13284000D01*
X9524000Y-6422000D02*
X9524000Y-6522000D01*
X9474000Y-6472000D02*
X9574000Y-6472000D01*
X9608000Y-12950000D02*
X9608000Y-13050000D01*
X9558000Y-13000000D02*
X9658000Y-13000000D01*
X9778000Y-6422000D02*
X9778000Y-6522000D01*
X9728000Y-6472000D02*
X9828000Y-6472000D01*
X10032000Y-6422000D02*
X10032000Y-6522000D01*
X9982000Y-6472000D02*
X10082000Y-6472000D01*
D12*
X10336063Y-6958063D02*
X10336063Y-6885937D01*
X10263937Y-6885937D01*
X10263937Y-6958063D01*
X10336063Y-6958063D01*
X10336063Y-7212063D02*
X10336063Y-7139937D01*
X10263937Y-7139937D01*
X10263937Y-7212063D01*
X10336063Y-7212063D01*
X10336063Y-7466063D02*
X10336063Y-7393937D01*
X10263937Y-7393937D01*
X10263937Y-7466063D01*
X10336063Y-7466063D01*
X10336063Y-7720063D02*
X10336063Y-7647937D01*
X10263937Y-7647937D01*
X10263937Y-7720063D01*
X10336063Y-7720063D01*
X10336063Y-7974063D02*
X10336063Y-7901937D01*
X10263937Y-7901937D01*
X10263937Y-7974063D01*
X10336063Y-7974063D01*
X10336063Y-8228063D02*
X10336063Y-8155937D01*
X10263937Y-8155937D01*
X10263937Y-8228063D01*
X10336063Y-8228063D01*
X10336063Y-8482063D02*
X10336063Y-8409937D01*
X10263937Y-8409937D01*
X10263937Y-8482063D01*
X10336063Y-8482063D01*
X10336063Y-8736063D02*
X10336063Y-8663937D01*
X10263937Y-8663937D01*
X10263937Y-8736063D01*
X10336063Y-8736063D01*
X10336063Y-8990063D02*
X10336063Y-8917937D01*
X10263937Y-8917937D01*
X10263937Y-8990063D01*
X10336063Y-8990063D01*
X10336063Y-9244063D02*
X10336063Y-9171937D01*
X10263937Y-9171937D01*
X10263937Y-9244063D01*
X10336063Y-9244063D01*
X10336063Y-9498063D02*
X10336063Y-9425937D01*
X10263937Y-9425937D01*
X10263937Y-9498063D01*
X10336063Y-9498063D01*
X10336063Y-9752063D02*
X10336063Y-9679937D01*
X10263937Y-9679937D01*
X10263937Y-9752063D01*
X10336063Y-9752063D01*
X10336063Y-10006063D02*
X10336063Y-9933937D01*
X10263937Y-9933937D01*
X10263937Y-10006063D01*
X10336063Y-10006063D01*
X10336063Y-10260063D02*
X10336063Y-10187937D01*
X10263937Y-10187937D01*
X10263937Y-10260063D01*
X10336063Y-10260063D01*
X10336063Y-10514063D02*
X10336063Y-10441937D01*
X10263937Y-10441937D01*
X10263937Y-10514063D01*
X10336063Y-10514063D01*
X10336063Y-10768063D02*
X10336063Y-10695937D01*
X10263937Y-10695937D01*
X10263937Y-10768063D01*
X10336063Y-10768063D01*
X10336063Y-11022063D02*
X10336063Y-10949937D01*
X10263937Y-10949937D01*
X10263937Y-11022063D01*
X10336063Y-11022063D01*
X10336063Y-11276063D02*
X10336063Y-11203937D01*
X10263937Y-11203937D01*
X10263937Y-11276063D01*
X10336063Y-11276063D01*
X10336063Y-11530063D02*
X10336063Y-11457937D01*
X10263937Y-11457937D01*
X10263937Y-11530063D01*
X10336063Y-11530063D01*
X10336063Y-11784063D02*
X10336063Y-11711937D01*
X10263937Y-11711937D01*
X10263937Y-11784063D01*
X10336063Y-11784063D01*
X10971063Y-11761063D02*
X10971063Y-11688937D01*
X10898937Y-11688937D01*
X10898937Y-11761063D01*
X10971063Y-11761063D01*
X11225063Y-11761063D02*
X11225063Y-11688937D01*
X11152937Y-11688937D01*
X11152937Y-11761063D01*
X11225063Y-11761063D01*
X11479063Y-11761063D02*
X11479063Y-11688937D01*
X11406937Y-11688937D01*
X11406937Y-11761063D01*
X11479063Y-11761063D01*
X12114063Y-6958063D02*
X12114063Y-6885937D01*
X12041937Y-6885937D01*
X12041937Y-6958063D01*
X12114063Y-6958063D01*
X12114063Y-7212063D02*
X12114063Y-7139937D01*
X12041937Y-7139937D01*
X12041937Y-7212063D01*
X12114063Y-7212063D01*
X12114063Y-7466063D02*
X12114063Y-7393937D01*
X12041937Y-7393937D01*
X12041937Y-7466063D01*
X12114063Y-7466063D01*
X12114063Y-7720063D02*
X12114063Y-7647937D01*
X12041937Y-7647937D01*
X12041937Y-7720063D01*
X12114063Y-7720063D01*
X12114063Y-7974063D02*
X12114063Y-7901937D01*
X12041937Y-7901937D01*
X12041937Y-7974063D01*
X12114063Y-7974063D01*
X12114063Y-8228063D02*
X12114063Y-8155937D01*
X12041937Y-8155937D01*
X12041937Y-8228063D01*
X12114063Y-8228063D01*
X12114063Y-8482063D02*
X12114063Y-8409937D01*
X12041937Y-8409937D01*
X12041937Y-8482063D01*
X12114063Y-8482063D01*
X12114063Y-8736063D02*
X12114063Y-8663937D01*
X12041937Y-8663937D01*
X12041937Y-8736063D01*
X12114063Y-8736063D01*
X12114063Y-8990063D02*
X12114063Y-8917937D01*
X12041937Y-8917937D01*
X12041937Y-8990063D01*
X12114063Y-8990063D01*
X12114063Y-9244063D02*
X12114063Y-9171937D01*
X12041937Y-9171937D01*
X12041937Y-9244063D01*
X12114063Y-9244063D01*
X12114063Y-9498063D02*
X12114063Y-9425937D01*
X12041937Y-9425937D01*
X12041937Y-9498063D01*
X12114063Y-9498063D01*
X12114063Y-9752063D02*
X12114063Y-9679937D01*
X12041937Y-9679937D01*
X12041937Y-9752063D01*
X12114063Y-9752063D01*
X12114063Y-10006063D02*
X12114063Y-9933937D01*
X12041937Y-9933937D01*
X12041937Y-10006063D01*
X12114063Y-10006063D01*
X12114063Y-10260063D02*
X12114063Y-10187937D01*
X12041937Y-10187937D01*
X12041937Y-10260063D01*
X12114063Y-10260063D01*
X12114063Y-10514063D02*
X12114063Y-10441937D01*
X12041937Y-10441937D01*
X12041937Y-10514063D01*
X12114063Y-10514063D01*
X12114063Y-10768063D02*
X12114063Y-10695937D01*
X12041937Y-10695937D01*
X12041937Y-10768063D01*
X12114063Y-10768063D01*
X12114063Y-11022063D02*
X12114063Y-10949937D01*
X12041937Y-10949937D01*
X12041937Y-11022063D01*
X12114063Y-11022063D01*
X12114063Y-11276063D02*
X12114063Y-11203937D01*
X12041937Y-11203937D01*
X12041937Y-11276063D01*
X12114063Y-11276063D01*
X12114063Y-11530063D02*
X12114063Y-11457937D01*
X12041937Y-11457937D01*
X12041937Y-11530063D01*
X12114063Y-11530063D01*
X12114063Y-11784063D02*
X12114063Y-11711937D01*
X12041937Y-11711937D01*
X12041937Y-11784063D01*
X12114063Y-11784063D01*
D13*
X8330000Y-11071000D02*
X8385000Y-11016000D01*
X8330000Y-10961000D01*
X8275000Y-11016000D01*
X8330000Y-11071000D01*
X8330000Y-11325000D02*
X8385000Y-11270000D01*
X8330000Y-11215000D01*
X8275000Y-11270000D01*
X8330000Y-11325000D01*
X8330000Y-11579000D02*
X8385000Y-11524000D01*
X8330000Y-11469000D01*
X8275000Y-11524000D01*
X8330000Y-11579000D01*
X9264000Y-7110000D02*
X9319000Y-7055000D01*
X9264000Y-7000000D01*
X9209000Y-7055000D01*
X9264000Y-7110000D01*
X9264000Y-7872000D02*
X9319000Y-7817000D01*
X9264000Y-7762000D01*
X9209000Y-7817000D01*
X9264000Y-7872000D01*
X9372600Y-6024000D02*
X9427600Y-5969000D01*
X9372600Y-5914000D01*
X9317600Y-5969000D01*
X9372600Y-6024000D01*
X9603000Y-7110000D02*
X9658000Y-7055000D01*
X9603000Y-7000000D01*
X9548000Y-7055000D01*
X9603000Y-7110000D01*
X9603000Y-7872000D02*
X9658000Y-7817000D01*
X9603000Y-7762000D01*
X9548000Y-7817000D01*
X9603000Y-7872000D01*
X10134600Y-6024000D02*
X10189600Y-5969000D01*
X10134600Y-5914000D01*
X10079600Y-5969000D01*
X10134600Y-6024000D01*
D14*
X13682000Y-11350000D02*
X13832000Y-11500000D01*
X13832000Y-11350000D02*
X13682000Y-11500000D01*
X13832000Y-11425000D02*
G75*
G03*
X13682000Y-11425000I-75000J0D01*
G01*
X13682000Y-11425000D02*
G75*
G03*
X13832000Y-11425000I75000J0D01*
G01*
D10*
X13807000Y-11350000D02*
X13707000Y-11350000D01*
X13707000Y-11350000D02*
G75*
G03*
X13707000Y-11500000I0J-75000D01*
G01*
X13707000Y-11500000D02*
X13807000Y-11500000D01*
X13807000Y-11500000D02*
G75*
G03*
X13807000Y-11350000I0J75000D01*
G01*
D14*
X14182000Y-11350000D02*
X14332000Y-11500000D01*
X14332000Y-11350000D02*
X14182000Y-11500000D01*
X14332000Y-11425000D02*
G75*
G03*
X14182000Y-11425000I-75000J0D01*
G01*
X14182000Y-11425000D02*
G75*
G03*
X14332000Y-11425000I75000J0D01*
G01*
D10*
X14182000Y-11375000D02*
X14182000Y-11475000D01*
X14182000Y-11475000D02*
G75*
G03*
X14332000Y-11475000I75000J0D01*
G01*
X14332000Y-11475000D02*
X14332000Y-11375000D01*
X14332000Y-11375000D02*
G75*
G03*
X14182000Y-11375000I-75000J0D01*
G01*
D15*
X6740000Y-4940000D02*
X7060000Y-5260000D01*
X7060000Y-4940000D02*
X6740000Y-5260000D01*
X6900000Y-4940000D02*
X6900000Y-5260000D01*
X6740000Y-5100000D02*
X7060000Y-5100000D01*
X6740000Y-13340000D02*
X7060000Y-13660000D01*
X7060000Y-13340000D02*
X6740000Y-13660000D01*
X6900000Y-13340000D02*
X6900000Y-13660000D01*
X6740000Y-13500000D02*
X7060000Y-13500000D01*
X7644000Y-12870000D02*
X7964000Y-13190000D01*
X7964000Y-12870000D02*
X7644000Y-13190000D01*
X7804000Y-12870000D02*
X7804000Y-13190000D01*
X7644000Y-13030000D02*
X7964000Y-13030000D01*
X10144000Y-12870000D02*
X10464000Y-13190000D01*
X10464000Y-12870000D02*
X10144000Y-13190000D01*
X10304000Y-12870000D02*
X10304000Y-13190000D01*
X10144000Y-13030000D02*
X10464000Y-13030000D01*
X14340000Y-4940000D02*
X14660000Y-5260000D01*
X14660000Y-4940000D02*
X14340000Y-5260000D01*
X14500000Y-4940000D02*
X14500000Y-5260000D01*
X14340000Y-5100000D02*
X14660000Y-5100000D01*
X14340000Y-13340000D02*
X14660000Y-13660000D01*
X14660000Y-13340000D02*
X14340000Y-13660000D01*
X14500000Y-13340000D02*
X14500000Y-13660000D01*
X14340000Y-13500000D02*
X14660000Y-13500000D01*
D11*
X6755777Y-14216484D02*
X6755777Y-14016484D01*
X6755777Y-14016484D02*
X6803396Y-14016484D01*
X6803396Y-14016484D02*
X6831967Y-14026008D01*
X6831967Y-14026008D02*
X6851015Y-14045055D01*
X6851015Y-14045055D02*
X6860539Y-14064103D01*
X6860539Y-14064103D02*
X6870062Y-14102198D01*
X6870062Y-14102198D02*
X6870062Y-14130769D01*
X6870062Y-14130769D02*
X6860539Y-14168865D01*
X6860539Y-14168865D02*
X6851015Y-14187912D01*
X6851015Y-14187912D02*
X6831967Y-14206960D01*
X6831967Y-14206960D02*
X6803396Y-14216484D01*
X6803396Y-14216484D02*
X6755777Y-14216484D01*
X6955777Y-14216484D02*
X6955777Y-14083150D01*
X6955777Y-14121246D02*
X6965301Y-14102198D01*
X6965301Y-14102198D02*
X6974824Y-14092674D01*
X6974824Y-14092674D02*
X6993872Y-14083150D01*
X6993872Y-14083150D02*
X7012920Y-14083150D01*
X7079586Y-14216484D02*
X7079586Y-14083150D01*
X7079586Y-14016484D02*
X7070062Y-14026008D01*
X7070062Y-14026008D02*
X7079586Y-14035531D01*
X7079586Y-14035531D02*
X7089110Y-14026008D01*
X7089110Y-14026008D02*
X7079586Y-14016484D01*
X7079586Y-14016484D02*
X7079586Y-14035531D01*
X7203396Y-14216484D02*
X7184348Y-14206960D01*
X7184348Y-14206960D02*
X7174824Y-14187912D01*
X7174824Y-14187912D02*
X7174824Y-14016484D01*
X7308158Y-14216484D02*
X7289110Y-14206960D01*
X7289110Y-14206960D02*
X7279586Y-14187912D01*
X7279586Y-14187912D02*
X7279586Y-14016484D01*
X7536729Y-14216484D02*
X7536729Y-14016484D01*
X7536729Y-14016484D02*
X7603396Y-14159341D01*
X7603396Y-14159341D02*
X7670062Y-14016484D01*
X7670062Y-14016484D02*
X7670062Y-14216484D01*
X7851015Y-14216484D02*
X7851015Y-14111722D01*
X7851015Y-14111722D02*
X7841491Y-14092674D01*
X7841491Y-14092674D02*
X7822443Y-14083150D01*
X7822443Y-14083150D02*
X7784348Y-14083150D01*
X7784348Y-14083150D02*
X7765301Y-14092674D01*
X7851015Y-14206960D02*
X7831967Y-14216484D01*
X7831967Y-14216484D02*
X7784348Y-14216484D01*
X7784348Y-14216484D02*
X7765301Y-14206960D01*
X7765301Y-14206960D02*
X7755777Y-14187912D01*
X7755777Y-14187912D02*
X7755777Y-14168865D01*
X7755777Y-14168865D02*
X7765301Y-14149817D01*
X7765301Y-14149817D02*
X7784348Y-14140293D01*
X7784348Y-14140293D02*
X7831967Y-14140293D01*
X7831967Y-14140293D02*
X7851015Y-14130769D01*
X7946253Y-14083150D02*
X7946253Y-14283150D01*
X7946253Y-14092674D02*
X7965301Y-14083150D01*
X7965301Y-14083150D02*
X8003396Y-14083150D01*
X8003396Y-14083150D02*
X8022443Y-14092674D01*
X8022443Y-14092674D02*
X8031967Y-14102198D01*
X8031967Y-14102198D02*
X8041491Y-14121246D01*
X8041491Y-14121246D02*
X8041491Y-14178388D01*
X8041491Y-14178388D02*
X8031967Y-14197436D01*
X8031967Y-14197436D02*
X8022443Y-14206960D01*
X8022443Y-14206960D02*
X8003396Y-14216484D01*
X8003396Y-14216484D02*
X7965301Y-14216484D01*
X7965301Y-14216484D02*
X7946253Y-14206960D01*
X8127205Y-14197436D02*
X8136729Y-14206960D01*
X8136729Y-14206960D02*
X8127205Y-14216484D01*
X8127205Y-14216484D02*
X8117682Y-14206960D01*
X8117682Y-14206960D02*
X8127205Y-14197436D01*
X8127205Y-14197436D02*
X8127205Y-14216484D01*
X8127205Y-14092674D02*
X8136729Y-14102198D01*
X8136729Y-14102198D02*
X8127205Y-14111722D01*
X8127205Y-14111722D02*
X8117682Y-14102198D01*
X8117682Y-14102198D02*
X8127205Y-14092674D01*
X8127205Y-14092674D02*
X8127205Y-14111722D01*
D10*
X6455000Y-14525000D02*
X6495000Y-14565000D01*
X6495000Y-14525000D02*
X6455000Y-14565000D01*
D11*
X6793872Y-14436484D02*
X6812920Y-14436484D01*
X6812920Y-14436484D02*
X6831967Y-14446008D01*
X6831967Y-14446008D02*
X6841491Y-14455531D01*
X6841491Y-14455531D02*
X6851015Y-14474579D01*
X6851015Y-14474579D02*
X6860539Y-14512674D01*
X6860539Y-14512674D02*
X6860539Y-14560293D01*
X6860539Y-14560293D02*
X6851015Y-14598388D01*
X6851015Y-14598388D02*
X6841491Y-14617436D01*
X6841491Y-14617436D02*
X6831967Y-14626960D01*
X6831967Y-14626960D02*
X6812920Y-14636484D01*
X6812920Y-14636484D02*
X6793872Y-14636484D01*
X6793872Y-14636484D02*
X6774824Y-14626960D01*
X6774824Y-14626960D02*
X6765301Y-14617436D01*
X6765301Y-14617436D02*
X6755777Y-14598388D01*
X6755777Y-14598388D02*
X6746253Y-14560293D01*
X6746253Y-14560293D02*
X6746253Y-14512674D01*
X6746253Y-14512674D02*
X6755777Y-14474579D01*
X6755777Y-14474579D02*
X6765301Y-14455531D01*
X6765301Y-14455531D02*
X6774824Y-14446008D01*
X6774824Y-14446008D02*
X6793872Y-14436484D01*
X6946253Y-14617436D02*
X6955777Y-14626960D01*
X6955777Y-14626960D02*
X6946253Y-14636484D01*
X6946253Y-14636484D02*
X6936729Y-14626960D01*
X6936729Y-14626960D02*
X6946253Y-14617436D01*
X6946253Y-14617436D02*
X6946253Y-14636484D01*
X7127205Y-14503150D02*
X7127205Y-14636484D01*
X7079586Y-14426960D02*
X7031967Y-14569817D01*
X7031967Y-14569817D02*
X7155777Y-14569817D01*
X7270062Y-14436484D02*
X7289110Y-14436484D01*
X7289110Y-14436484D02*
X7308158Y-14446008D01*
X7308158Y-14446008D02*
X7317682Y-14455531D01*
X7317682Y-14455531D02*
X7327205Y-14474579D01*
X7327205Y-14474579D02*
X7336729Y-14512674D01*
X7336729Y-14512674D02*
X7336729Y-14560293D01*
X7336729Y-14560293D02*
X7327205Y-14598388D01*
X7327205Y-14598388D02*
X7317682Y-14617436D01*
X7317682Y-14617436D02*
X7308158Y-14626960D01*
X7308158Y-14626960D02*
X7289110Y-14636484D01*
X7289110Y-14636484D02*
X7270062Y-14636484D01*
X7270062Y-14636484D02*
X7251015Y-14626960D01*
X7251015Y-14626960D02*
X7241491Y-14617436D01*
X7241491Y-14617436D02*
X7231967Y-14598388D01*
X7231967Y-14598388D02*
X7222443Y-14560293D01*
X7222443Y-14560293D02*
X7222443Y-14512674D01*
X7222443Y-14512674D02*
X7231967Y-14474579D01*
X7231967Y-14474579D02*
X7241491Y-14455531D01*
X7241491Y-14455531D02*
X7251015Y-14446008D01*
X7251015Y-14446008D02*
X7270062Y-14436484D01*
X7460539Y-14436484D02*
X7479586Y-14436484D01*
X7479586Y-14436484D02*
X7498634Y-14446008D01*
X7498634Y-14446008D02*
X7508158Y-14455531D01*
X7508158Y-14455531D02*
X7517682Y-14474579D01*
X7517682Y-14474579D02*
X7527205Y-14512674D01*
X7527205Y-14512674D02*
X7527205Y-14560293D01*
X7527205Y-14560293D02*
X7517682Y-14598388D01*
X7517682Y-14598388D02*
X7508158Y-14617436D01*
X7508158Y-14617436D02*
X7498634Y-14626960D01*
X7498634Y-14626960D02*
X7479586Y-14636484D01*
X7479586Y-14636484D02*
X7460539Y-14636484D01*
X7460539Y-14636484D02*
X7441491Y-14626960D01*
X7441491Y-14626960D02*
X7431967Y-14617436D01*
X7431967Y-14617436D02*
X7422443Y-14598388D01*
X7422443Y-14598388D02*
X7412920Y-14560293D01*
X7412920Y-14560293D02*
X7412920Y-14512674D01*
X7412920Y-14512674D02*
X7422443Y-14474579D01*
X7422443Y-14474579D02*
X7431967Y-14455531D01*
X7431967Y-14455531D02*
X7441491Y-14446008D01*
X7441491Y-14446008D02*
X7460539Y-14436484D01*
X7612920Y-14636484D02*
X7612920Y-14503150D01*
X7612920Y-14522198D02*
X7622443Y-14512674D01*
X7622443Y-14512674D02*
X7641491Y-14503150D01*
X7641491Y-14503150D02*
X7670063Y-14503150D01*
X7670063Y-14503150D02*
X7689110Y-14512674D01*
X7689110Y-14512674D02*
X7698634Y-14531722D01*
X7698634Y-14531722D02*
X7698634Y-14636484D01*
X7698634Y-14531722D02*
X7708158Y-14512674D01*
X7708158Y-14512674D02*
X7727205Y-14503150D01*
X7727205Y-14503150D02*
X7755777Y-14503150D01*
X7755777Y-14503150D02*
X7774824Y-14512674D01*
X7774824Y-14512674D02*
X7784348Y-14531722D01*
X7784348Y-14531722D02*
X7784348Y-14636484D01*
X7879586Y-14636484D02*
X7879586Y-14503150D01*
X7879586Y-14522198D02*
X7889110Y-14512674D01*
X7889110Y-14512674D02*
X7908158Y-14503150D01*
X7908158Y-14503150D02*
X7936729Y-14503150D01*
X7936729Y-14503150D02*
X7955777Y-14512674D01*
X7955777Y-14512674D02*
X7965301Y-14531722D01*
X7965301Y-14531722D02*
X7965301Y-14636484D01*
X7965301Y-14531722D02*
X7974824Y-14512674D01*
X7974824Y-14512674D02*
X7993872Y-14503150D01*
X7993872Y-14503150D02*
X8022443Y-14503150D01*
X8022443Y-14503150D02*
X8041491Y-14512674D01*
X8041491Y-14512674D02*
X8051015Y-14531722D01*
X8051015Y-14531722D02*
X8051015Y-14636484D01*
X8441491Y-14426960D02*
X8270063Y-14684103D01*
X8698634Y-14436484D02*
X8717682Y-14436484D01*
X8717682Y-14436484D02*
X8736729Y-14446008D01*
X8736729Y-14446008D02*
X8746253Y-14455531D01*
X8746253Y-14455531D02*
X8755777Y-14474579D01*
X8755777Y-14474579D02*
X8765301Y-14512674D01*
X8765301Y-14512674D02*
X8765301Y-14560293D01*
X8765301Y-14560293D02*
X8755777Y-14598388D01*
X8755777Y-14598388D02*
X8746253Y-14617436D01*
X8746253Y-14617436D02*
X8736729Y-14626960D01*
X8736729Y-14626960D02*
X8717682Y-14636484D01*
X8717682Y-14636484D02*
X8698634Y-14636484D01*
X8698634Y-14636484D02*
X8679587Y-14626960D01*
X8679587Y-14626960D02*
X8670063Y-14617436D01*
X8670063Y-14617436D02*
X8660539Y-14598388D01*
X8660539Y-14598388D02*
X8651015Y-14560293D01*
X8651015Y-14560293D02*
X8651015Y-14512674D01*
X8651015Y-14512674D02*
X8660539Y-14474579D01*
X8660539Y-14474579D02*
X8670063Y-14455531D01*
X8670063Y-14455531D02*
X8679587Y-14446008D01*
X8679587Y-14446008D02*
X8698634Y-14436484D01*
X8851015Y-14617436D02*
X8860539Y-14626960D01*
X8860539Y-14626960D02*
X8851015Y-14636484D01*
X8851015Y-14636484D02*
X8841491Y-14626960D01*
X8841491Y-14626960D02*
X8851015Y-14617436D01*
X8851015Y-14617436D02*
X8851015Y-14636484D01*
X8984348Y-14436484D02*
X9003396Y-14436484D01*
X9003396Y-14436484D02*
X9022444Y-14446008D01*
X9022444Y-14446008D02*
X9031968Y-14455531D01*
X9031968Y-14455531D02*
X9041491Y-14474579D01*
X9041491Y-14474579D02*
X9051015Y-14512674D01*
X9051015Y-14512674D02*
X9051015Y-14560293D01*
X9051015Y-14560293D02*
X9041491Y-14598388D01*
X9041491Y-14598388D02*
X9031968Y-14617436D01*
X9031968Y-14617436D02*
X9022444Y-14626960D01*
X9022444Y-14626960D02*
X9003396Y-14636484D01*
X9003396Y-14636484D02*
X8984348Y-14636484D01*
X8984348Y-14636484D02*
X8965301Y-14626960D01*
X8965301Y-14626960D02*
X8955777Y-14617436D01*
X8955777Y-14617436D02*
X8946253Y-14598388D01*
X8946253Y-14598388D02*
X8936729Y-14560293D01*
X8936729Y-14560293D02*
X8936729Y-14512674D01*
X8936729Y-14512674D02*
X8946253Y-14474579D01*
X8946253Y-14474579D02*
X8955777Y-14455531D01*
X8955777Y-14455531D02*
X8965301Y-14446008D01*
X8965301Y-14446008D02*
X8984348Y-14436484D01*
X9241491Y-14636484D02*
X9127206Y-14636484D01*
X9184348Y-14636484D02*
X9184348Y-14436484D01*
X9184348Y-14436484D02*
X9165301Y-14465055D01*
X9165301Y-14465055D02*
X9146253Y-14484103D01*
X9146253Y-14484103D02*
X9127206Y-14493627D01*
X9422444Y-14436484D02*
X9327206Y-14436484D01*
X9327206Y-14436484D02*
X9317682Y-14531722D01*
X9317682Y-14531722D02*
X9327206Y-14522198D01*
X9327206Y-14522198D02*
X9346253Y-14512674D01*
X9346253Y-14512674D02*
X9393872Y-14512674D01*
X9393872Y-14512674D02*
X9412920Y-14522198D01*
X9412920Y-14522198D02*
X9422444Y-14531722D01*
X9422444Y-14531722D02*
X9431968Y-14550769D01*
X9431968Y-14550769D02*
X9431968Y-14598388D01*
X9431968Y-14598388D02*
X9422444Y-14617436D01*
X9422444Y-14617436D02*
X9412920Y-14626960D01*
X9412920Y-14626960D02*
X9393872Y-14636484D01*
X9393872Y-14636484D02*
X9346253Y-14636484D01*
X9346253Y-14636484D02*
X9327206Y-14626960D01*
X9327206Y-14626960D02*
X9317682Y-14617436D01*
X9498634Y-14436484D02*
X9631968Y-14436484D01*
X9631968Y-14436484D02*
X9546253Y-14636484D01*
X9698634Y-14436484D02*
X9698634Y-14474579D01*
X9774825Y-14436484D02*
X9774825Y-14474579D01*
X10070063Y-14712674D02*
X10060539Y-14703150D01*
X10060539Y-14703150D02*
X10041491Y-14674579D01*
X10041491Y-14674579D02*
X10031968Y-14655531D01*
X10031968Y-14655531D02*
X10022444Y-14626960D01*
X10022444Y-14626960D02*
X10012920Y-14579341D01*
X10012920Y-14579341D02*
X10012920Y-14541246D01*
X10012920Y-14541246D02*
X10022444Y-14493627D01*
X10022444Y-14493627D02*
X10031968Y-14465055D01*
X10031968Y-14465055D02*
X10041491Y-14446008D01*
X10041491Y-14446008D02*
X10060539Y-14417436D01*
X10060539Y-14417436D02*
X10070063Y-14407912D01*
X10251015Y-14636484D02*
X10136730Y-14636484D01*
X10193872Y-14636484D02*
X10193872Y-14436484D01*
X10193872Y-14436484D02*
X10174825Y-14465055D01*
X10174825Y-14465055D02*
X10155777Y-14484103D01*
X10155777Y-14484103D02*
X10136730Y-14493627D01*
X10317682Y-14436484D02*
X10451015Y-14436484D01*
X10451015Y-14436484D02*
X10365301Y-14636484D01*
X10555777Y-14522198D02*
X10536730Y-14512674D01*
X10536730Y-14512674D02*
X10527206Y-14503150D01*
X10527206Y-14503150D02*
X10517682Y-14484103D01*
X10517682Y-14484103D02*
X10517682Y-14474579D01*
X10517682Y-14474579D02*
X10527206Y-14455531D01*
X10527206Y-14455531D02*
X10536730Y-14446008D01*
X10536730Y-14446008D02*
X10555777Y-14436484D01*
X10555777Y-14436484D02*
X10593872Y-14436484D01*
X10593872Y-14436484D02*
X10612920Y-14446008D01*
X10612920Y-14446008D02*
X10622444Y-14455531D01*
X10622444Y-14455531D02*
X10631968Y-14474579D01*
X10631968Y-14474579D02*
X10631968Y-14484103D01*
X10631968Y-14484103D02*
X10622444Y-14503150D01*
X10622444Y-14503150D02*
X10612920Y-14512674D01*
X10612920Y-14512674D02*
X10593872Y-14522198D01*
X10593872Y-14522198D02*
X10555777Y-14522198D01*
X10555777Y-14522198D02*
X10536730Y-14531722D01*
X10536730Y-14531722D02*
X10527206Y-14541246D01*
X10527206Y-14541246D02*
X10517682Y-14560293D01*
X10517682Y-14560293D02*
X10517682Y-14598388D01*
X10517682Y-14598388D02*
X10527206Y-14617436D01*
X10527206Y-14617436D02*
X10536730Y-14626960D01*
X10536730Y-14626960D02*
X10555777Y-14636484D01*
X10555777Y-14636484D02*
X10593872Y-14636484D01*
X10593872Y-14636484D02*
X10612920Y-14626960D01*
X10612920Y-14626960D02*
X10622444Y-14617436D01*
X10622444Y-14617436D02*
X10631968Y-14598388D01*
X10631968Y-14598388D02*
X10631968Y-14560293D01*
X10631968Y-14560293D02*
X10622444Y-14541246D01*
X10622444Y-14541246D02*
X10612920Y-14531722D01*
X10612920Y-14531722D02*
X10593872Y-14522198D01*
X10870063Y-14636484D02*
X10870063Y-14436484D01*
X10955777Y-14636484D02*
X10955777Y-14531722D01*
X10955777Y-14531722D02*
X10946253Y-14512674D01*
X10946253Y-14512674D02*
X10927206Y-14503150D01*
X10927206Y-14503150D02*
X10898634Y-14503150D01*
X10898634Y-14503150D02*
X10879587Y-14512674D01*
X10879587Y-14512674D02*
X10870063Y-14522198D01*
X11079587Y-14636484D02*
X11060539Y-14626960D01*
X11060539Y-14626960D02*
X11051015Y-14617436D01*
X11051015Y-14617436D02*
X11041492Y-14598388D01*
X11041492Y-14598388D02*
X11041492Y-14541246D01*
X11041492Y-14541246D02*
X11051015Y-14522198D01*
X11051015Y-14522198D02*
X11060539Y-14512674D01*
X11060539Y-14512674D02*
X11079587Y-14503150D01*
X11079587Y-14503150D02*
X11108158Y-14503150D01*
X11108158Y-14503150D02*
X11127206Y-14512674D01*
X11127206Y-14512674D02*
X11136730Y-14522198D01*
X11136730Y-14522198D02*
X11146253Y-14541246D01*
X11146253Y-14541246D02*
X11146253Y-14598388D01*
X11146253Y-14598388D02*
X11136730Y-14617436D01*
X11136730Y-14617436D02*
X11127206Y-14626960D01*
X11127206Y-14626960D02*
X11108158Y-14636484D01*
X11108158Y-14636484D02*
X11079587Y-14636484D01*
X11260539Y-14636484D02*
X11241491Y-14626960D01*
X11241491Y-14626960D02*
X11231968Y-14607912D01*
X11231968Y-14607912D02*
X11231968Y-14436484D01*
X11412920Y-14626960D02*
X11393872Y-14636484D01*
X11393872Y-14636484D02*
X11355777Y-14636484D01*
X11355777Y-14636484D02*
X11336730Y-14626960D01*
X11336730Y-14626960D02*
X11327206Y-14607912D01*
X11327206Y-14607912D02*
X11327206Y-14531722D01*
X11327206Y-14531722D02*
X11336730Y-14512674D01*
X11336730Y-14512674D02*
X11355777Y-14503150D01*
X11355777Y-14503150D02*
X11393872Y-14503150D01*
X11393872Y-14503150D02*
X11412920Y-14512674D01*
X11412920Y-14512674D02*
X11422444Y-14531722D01*
X11422444Y-14531722D02*
X11422444Y-14550769D01*
X11422444Y-14550769D02*
X11327206Y-14569817D01*
X11498634Y-14626960D02*
X11517682Y-14636484D01*
X11517682Y-14636484D02*
X11555777Y-14636484D01*
X11555777Y-14636484D02*
X11574825Y-14626960D01*
X11574825Y-14626960D02*
X11584349Y-14607912D01*
X11584349Y-14607912D02*
X11584349Y-14598388D01*
X11584349Y-14598388D02*
X11574825Y-14579341D01*
X11574825Y-14579341D02*
X11555777Y-14569817D01*
X11555777Y-14569817D02*
X11527206Y-14569817D01*
X11527206Y-14569817D02*
X11508158Y-14560293D01*
X11508158Y-14560293D02*
X11498634Y-14541246D01*
X11498634Y-14541246D02*
X11498634Y-14531722D01*
X11498634Y-14531722D02*
X11508158Y-14512674D01*
X11508158Y-14512674D02*
X11527206Y-14503150D01*
X11527206Y-14503150D02*
X11555777Y-14503150D01*
X11555777Y-14503150D02*
X11574825Y-14512674D01*
X11651015Y-14712674D02*
X11660539Y-14703150D01*
X11660539Y-14703150D02*
X11679587Y-14674579D01*
X11679587Y-14674579D02*
X11689111Y-14655531D01*
X11689111Y-14655531D02*
X11698634Y-14626960D01*
X11698634Y-14626960D02*
X11708158Y-14579341D01*
X11708158Y-14579341D02*
X11708158Y-14541246D01*
X11708158Y-14541246D02*
X11698634Y-14493627D01*
X11698634Y-14493627D02*
X11689111Y-14465055D01*
X11689111Y-14465055D02*
X11679587Y-14446008D01*
X11679587Y-14446008D02*
X11660539Y-14417436D01*
X11660539Y-14417436D02*
X11651015Y-14407912D01*
D10*
X6495000Y-14809000D02*
G75*
G03*
X6415000Y-14809000I-40000J0D01*
G01*
X6415000Y-14809000D02*
G75*
G03*
X6495000Y-14809000I40000J0D01*
G01*
D11*
X6793872Y-14700484D02*
X6812920Y-14700484D01*
X6812920Y-14700484D02*
X6831967Y-14710008D01*
X6831967Y-14710008D02*
X6841491Y-14719531D01*
X6841491Y-14719531D02*
X6851015Y-14738579D01*
X6851015Y-14738579D02*
X6860539Y-14776674D01*
X6860539Y-14776674D02*
X6860539Y-14824293D01*
X6860539Y-14824293D02*
X6851015Y-14862388D01*
X6851015Y-14862388D02*
X6841491Y-14881436D01*
X6841491Y-14881436D02*
X6831967Y-14890960D01*
X6831967Y-14890960D02*
X6812920Y-14900484D01*
X6812920Y-14900484D02*
X6793872Y-14900484D01*
X6793872Y-14900484D02*
X6774824Y-14890960D01*
X6774824Y-14890960D02*
X6765301Y-14881436D01*
X6765301Y-14881436D02*
X6755777Y-14862388D01*
X6755777Y-14862388D02*
X6746253Y-14824293D01*
X6746253Y-14824293D02*
X6746253Y-14776674D01*
X6746253Y-14776674D02*
X6755777Y-14738579D01*
X6755777Y-14738579D02*
X6765301Y-14719531D01*
X6765301Y-14719531D02*
X6774824Y-14710008D01*
X6774824Y-14710008D02*
X6793872Y-14700484D01*
X6946253Y-14881436D02*
X6955777Y-14890960D01*
X6955777Y-14890960D02*
X6946253Y-14900484D01*
X6946253Y-14900484D02*
X6936729Y-14890960D01*
X6936729Y-14890960D02*
X6946253Y-14881436D01*
X6946253Y-14881436D02*
X6946253Y-14900484D01*
X7070062Y-14786198D02*
X7051015Y-14776674D01*
X7051015Y-14776674D02*
X7041491Y-14767150D01*
X7041491Y-14767150D02*
X7031967Y-14748103D01*
X7031967Y-14748103D02*
X7031967Y-14738579D01*
X7031967Y-14738579D02*
X7041491Y-14719531D01*
X7041491Y-14719531D02*
X7051015Y-14710008D01*
X7051015Y-14710008D02*
X7070062Y-14700484D01*
X7070062Y-14700484D02*
X7108158Y-14700484D01*
X7108158Y-14700484D02*
X7127205Y-14710008D01*
X7127205Y-14710008D02*
X7136729Y-14719531D01*
X7136729Y-14719531D02*
X7146253Y-14738579D01*
X7146253Y-14738579D02*
X7146253Y-14748103D01*
X7146253Y-14748103D02*
X7136729Y-14767150D01*
X7136729Y-14767150D02*
X7127205Y-14776674D01*
X7127205Y-14776674D02*
X7108158Y-14786198D01*
X7108158Y-14786198D02*
X7070062Y-14786198D01*
X7070062Y-14786198D02*
X7051015Y-14795722D01*
X7051015Y-14795722D02*
X7041491Y-14805246D01*
X7041491Y-14805246D02*
X7031967Y-14824293D01*
X7031967Y-14824293D02*
X7031967Y-14862388D01*
X7031967Y-14862388D02*
X7041491Y-14881436D01*
X7041491Y-14881436D02*
X7051015Y-14890960D01*
X7051015Y-14890960D02*
X7070062Y-14900484D01*
X7070062Y-14900484D02*
X7108158Y-14900484D01*
X7108158Y-14900484D02*
X7127205Y-14890960D01*
X7127205Y-14890960D02*
X7136729Y-14881436D01*
X7136729Y-14881436D02*
X7146253Y-14862388D01*
X7146253Y-14862388D02*
X7146253Y-14824293D01*
X7146253Y-14824293D02*
X7136729Y-14805246D01*
X7136729Y-14805246D02*
X7127205Y-14795722D01*
X7127205Y-14795722D02*
X7108158Y-14786198D01*
X7270062Y-14700484D02*
X7289110Y-14700484D01*
X7289110Y-14700484D02*
X7308158Y-14710008D01*
X7308158Y-14710008D02*
X7317682Y-14719531D01*
X7317682Y-14719531D02*
X7327205Y-14738579D01*
X7327205Y-14738579D02*
X7336729Y-14776674D01*
X7336729Y-14776674D02*
X7336729Y-14824293D01*
X7336729Y-14824293D02*
X7327205Y-14862388D01*
X7327205Y-14862388D02*
X7317682Y-14881436D01*
X7317682Y-14881436D02*
X7308158Y-14890960D01*
X7308158Y-14890960D02*
X7289110Y-14900484D01*
X7289110Y-14900484D02*
X7270062Y-14900484D01*
X7270062Y-14900484D02*
X7251015Y-14890960D01*
X7251015Y-14890960D02*
X7241491Y-14881436D01*
X7241491Y-14881436D02*
X7231967Y-14862388D01*
X7231967Y-14862388D02*
X7222443Y-14824293D01*
X7222443Y-14824293D02*
X7222443Y-14776674D01*
X7222443Y-14776674D02*
X7231967Y-14738579D01*
X7231967Y-14738579D02*
X7241491Y-14719531D01*
X7241491Y-14719531D02*
X7251015Y-14710008D01*
X7251015Y-14710008D02*
X7270062Y-14700484D01*
X7460539Y-14700484D02*
X7479586Y-14700484D01*
X7479586Y-14700484D02*
X7498634Y-14710008D01*
X7498634Y-14710008D02*
X7508158Y-14719531D01*
X7508158Y-14719531D02*
X7517682Y-14738579D01*
X7517682Y-14738579D02*
X7527205Y-14776674D01*
X7527205Y-14776674D02*
X7527205Y-14824293D01*
X7527205Y-14824293D02*
X7517682Y-14862388D01*
X7517682Y-14862388D02*
X7508158Y-14881436D01*
X7508158Y-14881436D02*
X7498634Y-14890960D01*
X7498634Y-14890960D02*
X7479586Y-14900484D01*
X7479586Y-14900484D02*
X7460539Y-14900484D01*
X7460539Y-14900484D02*
X7441491Y-14890960D01*
X7441491Y-14890960D02*
X7431967Y-14881436D01*
X7431967Y-14881436D02*
X7422443Y-14862388D01*
X7422443Y-14862388D02*
X7412920Y-14824293D01*
X7412920Y-14824293D02*
X7412920Y-14776674D01*
X7412920Y-14776674D02*
X7422443Y-14738579D01*
X7422443Y-14738579D02*
X7431967Y-14719531D01*
X7431967Y-14719531D02*
X7441491Y-14710008D01*
X7441491Y-14710008D02*
X7460539Y-14700484D01*
X7612920Y-14900484D02*
X7612920Y-14767150D01*
X7612920Y-14786198D02*
X7622443Y-14776674D01*
X7622443Y-14776674D02*
X7641491Y-14767150D01*
X7641491Y-14767150D02*
X7670063Y-14767150D01*
X7670063Y-14767150D02*
X7689110Y-14776674D01*
X7689110Y-14776674D02*
X7698634Y-14795722D01*
X7698634Y-14795722D02*
X7698634Y-14900484D01*
X7698634Y-14795722D02*
X7708158Y-14776674D01*
X7708158Y-14776674D02*
X7727205Y-14767150D01*
X7727205Y-14767150D02*
X7755777Y-14767150D01*
X7755777Y-14767150D02*
X7774824Y-14776674D01*
X7774824Y-14776674D02*
X7784348Y-14795722D01*
X7784348Y-14795722D02*
X7784348Y-14900484D01*
X7879586Y-14900484D02*
X7879586Y-14767150D01*
X7879586Y-14786198D02*
X7889110Y-14776674D01*
X7889110Y-14776674D02*
X7908158Y-14767150D01*
X7908158Y-14767150D02*
X7936729Y-14767150D01*
X7936729Y-14767150D02*
X7955777Y-14776674D01*
X7955777Y-14776674D02*
X7965301Y-14795722D01*
X7965301Y-14795722D02*
X7965301Y-14900484D01*
X7965301Y-14795722D02*
X7974824Y-14776674D01*
X7974824Y-14776674D02*
X7993872Y-14767150D01*
X7993872Y-14767150D02*
X8022443Y-14767150D01*
X8022443Y-14767150D02*
X8041491Y-14776674D01*
X8041491Y-14776674D02*
X8051015Y-14795722D01*
X8051015Y-14795722D02*
X8051015Y-14900484D01*
X8441491Y-14690960D02*
X8270063Y-14948103D01*
X8698634Y-14700484D02*
X8717682Y-14700484D01*
X8717682Y-14700484D02*
X8736729Y-14710008D01*
X8736729Y-14710008D02*
X8746253Y-14719531D01*
X8746253Y-14719531D02*
X8755777Y-14738579D01*
X8755777Y-14738579D02*
X8765301Y-14776674D01*
X8765301Y-14776674D02*
X8765301Y-14824293D01*
X8765301Y-14824293D02*
X8755777Y-14862388D01*
X8755777Y-14862388D02*
X8746253Y-14881436D01*
X8746253Y-14881436D02*
X8736729Y-14890960D01*
X8736729Y-14890960D02*
X8717682Y-14900484D01*
X8717682Y-14900484D02*
X8698634Y-14900484D01*
X8698634Y-14900484D02*
X8679587Y-14890960D01*
X8679587Y-14890960D02*
X8670063Y-14881436D01*
X8670063Y-14881436D02*
X8660539Y-14862388D01*
X8660539Y-14862388D02*
X8651015Y-14824293D01*
X8651015Y-14824293D02*
X8651015Y-14776674D01*
X8651015Y-14776674D02*
X8660539Y-14738579D01*
X8660539Y-14738579D02*
X8670063Y-14719531D01*
X8670063Y-14719531D02*
X8679587Y-14710008D01*
X8679587Y-14710008D02*
X8698634Y-14700484D01*
X8851015Y-14881436D02*
X8860539Y-14890960D01*
X8860539Y-14890960D02*
X8851015Y-14900484D01*
X8851015Y-14900484D02*
X8841491Y-14890960D01*
X8841491Y-14890960D02*
X8851015Y-14881436D01*
X8851015Y-14881436D02*
X8851015Y-14900484D01*
X8984348Y-14700484D02*
X9003396Y-14700484D01*
X9003396Y-14700484D02*
X9022444Y-14710008D01*
X9022444Y-14710008D02*
X9031968Y-14719531D01*
X9031968Y-14719531D02*
X9041491Y-14738579D01*
X9041491Y-14738579D02*
X9051015Y-14776674D01*
X9051015Y-14776674D02*
X9051015Y-14824293D01*
X9051015Y-14824293D02*
X9041491Y-14862388D01*
X9041491Y-14862388D02*
X9031968Y-14881436D01*
X9031968Y-14881436D02*
X9022444Y-14890960D01*
X9022444Y-14890960D02*
X9003396Y-14900484D01*
X9003396Y-14900484D02*
X8984348Y-14900484D01*
X8984348Y-14900484D02*
X8965301Y-14890960D01*
X8965301Y-14890960D02*
X8955777Y-14881436D01*
X8955777Y-14881436D02*
X8946253Y-14862388D01*
X8946253Y-14862388D02*
X8936729Y-14824293D01*
X8936729Y-14824293D02*
X8936729Y-14776674D01*
X8936729Y-14776674D02*
X8946253Y-14738579D01*
X8946253Y-14738579D02*
X8955777Y-14719531D01*
X8955777Y-14719531D02*
X8965301Y-14710008D01*
X8965301Y-14710008D02*
X8984348Y-14700484D01*
X9117682Y-14700484D02*
X9241491Y-14700484D01*
X9241491Y-14700484D02*
X9174825Y-14776674D01*
X9174825Y-14776674D02*
X9203396Y-14776674D01*
X9203396Y-14776674D02*
X9222444Y-14786198D01*
X9222444Y-14786198D02*
X9231968Y-14795722D01*
X9231968Y-14795722D02*
X9241491Y-14814769D01*
X9241491Y-14814769D02*
X9241491Y-14862388D01*
X9241491Y-14862388D02*
X9231968Y-14881436D01*
X9231968Y-14881436D02*
X9222444Y-14890960D01*
X9222444Y-14890960D02*
X9203396Y-14900484D01*
X9203396Y-14900484D02*
X9146253Y-14900484D01*
X9146253Y-14900484D02*
X9127206Y-14890960D01*
X9127206Y-14890960D02*
X9117682Y-14881436D01*
X9431968Y-14900484D02*
X9317682Y-14900484D01*
X9374825Y-14900484D02*
X9374825Y-14700484D01*
X9374825Y-14700484D02*
X9355777Y-14729055D01*
X9355777Y-14729055D02*
X9336729Y-14748103D01*
X9336729Y-14748103D02*
X9317682Y-14757627D01*
X9612920Y-14700484D02*
X9517682Y-14700484D01*
X9517682Y-14700484D02*
X9508158Y-14795722D01*
X9508158Y-14795722D02*
X9517682Y-14786198D01*
X9517682Y-14786198D02*
X9536729Y-14776674D01*
X9536729Y-14776674D02*
X9584349Y-14776674D01*
X9584349Y-14776674D02*
X9603396Y-14786198D01*
X9603396Y-14786198D02*
X9612920Y-14795722D01*
X9612920Y-14795722D02*
X9622444Y-14814769D01*
X9622444Y-14814769D02*
X9622444Y-14862388D01*
X9622444Y-14862388D02*
X9612920Y-14881436D01*
X9612920Y-14881436D02*
X9603396Y-14890960D01*
X9603396Y-14890960D02*
X9584349Y-14900484D01*
X9584349Y-14900484D02*
X9536729Y-14900484D01*
X9536729Y-14900484D02*
X9517682Y-14890960D01*
X9517682Y-14890960D02*
X9508158Y-14881436D01*
X9698634Y-14700484D02*
X9698634Y-14738579D01*
X9774825Y-14700484D02*
X9774825Y-14738579D01*
X10070063Y-14976674D02*
X10060539Y-14967150D01*
X10060539Y-14967150D02*
X10041491Y-14938579D01*
X10041491Y-14938579D02*
X10031968Y-14919531D01*
X10031968Y-14919531D02*
X10022444Y-14890960D01*
X10022444Y-14890960D02*
X10012920Y-14843341D01*
X10012920Y-14843341D02*
X10012920Y-14805246D01*
X10012920Y-14805246D02*
X10022444Y-14757627D01*
X10022444Y-14757627D02*
X10031968Y-14729055D01*
X10031968Y-14729055D02*
X10041491Y-14710008D01*
X10041491Y-14710008D02*
X10060539Y-14681436D01*
X10060539Y-14681436D02*
X10070063Y-14671912D01*
X10251015Y-14900484D02*
X10136730Y-14900484D01*
X10193872Y-14900484D02*
X10193872Y-14700484D01*
X10193872Y-14700484D02*
X10174825Y-14729055D01*
X10174825Y-14729055D02*
X10155777Y-14748103D01*
X10155777Y-14748103D02*
X10136730Y-14757627D01*
X10327206Y-14719531D02*
X10336730Y-14710008D01*
X10336730Y-14710008D02*
X10355777Y-14700484D01*
X10355777Y-14700484D02*
X10403396Y-14700484D01*
X10403396Y-14700484D02*
X10422444Y-14710008D01*
X10422444Y-14710008D02*
X10431968Y-14719531D01*
X10431968Y-14719531D02*
X10441491Y-14738579D01*
X10441491Y-14738579D02*
X10441491Y-14757627D01*
X10441491Y-14757627D02*
X10431968Y-14786198D01*
X10431968Y-14786198D02*
X10317682Y-14900484D01*
X10317682Y-14900484D02*
X10441491Y-14900484D01*
X10517682Y-14719531D02*
X10527206Y-14710008D01*
X10527206Y-14710008D02*
X10546253Y-14700484D01*
X10546253Y-14700484D02*
X10593872Y-14700484D01*
X10593872Y-14700484D02*
X10612920Y-14710008D01*
X10612920Y-14710008D02*
X10622444Y-14719531D01*
X10622444Y-14719531D02*
X10631968Y-14738579D01*
X10631968Y-14738579D02*
X10631968Y-14757627D01*
X10631968Y-14757627D02*
X10622444Y-14786198D01*
X10622444Y-14786198D02*
X10508158Y-14900484D01*
X10508158Y-14900484D02*
X10631968Y-14900484D01*
X10870063Y-14900484D02*
X10870063Y-14700484D01*
X10955777Y-14900484D02*
X10955777Y-14795722D01*
X10955777Y-14795722D02*
X10946253Y-14776674D01*
X10946253Y-14776674D02*
X10927206Y-14767150D01*
X10927206Y-14767150D02*
X10898634Y-14767150D01*
X10898634Y-14767150D02*
X10879587Y-14776674D01*
X10879587Y-14776674D02*
X10870063Y-14786198D01*
X11079587Y-14900484D02*
X11060539Y-14890960D01*
X11060539Y-14890960D02*
X11051015Y-14881436D01*
X11051015Y-14881436D02*
X11041492Y-14862388D01*
X11041492Y-14862388D02*
X11041492Y-14805246D01*
X11041492Y-14805246D02*
X11051015Y-14786198D01*
X11051015Y-14786198D02*
X11060539Y-14776674D01*
X11060539Y-14776674D02*
X11079587Y-14767150D01*
X11079587Y-14767150D02*
X11108158Y-14767150D01*
X11108158Y-14767150D02*
X11127206Y-14776674D01*
X11127206Y-14776674D02*
X11136730Y-14786198D01*
X11136730Y-14786198D02*
X11146253Y-14805246D01*
X11146253Y-14805246D02*
X11146253Y-14862388D01*
X11146253Y-14862388D02*
X11136730Y-14881436D01*
X11136730Y-14881436D02*
X11127206Y-14890960D01*
X11127206Y-14890960D02*
X11108158Y-14900484D01*
X11108158Y-14900484D02*
X11079587Y-14900484D01*
X11260539Y-14900484D02*
X11241491Y-14890960D01*
X11241491Y-14890960D02*
X11231968Y-14871912D01*
X11231968Y-14871912D02*
X11231968Y-14700484D01*
X11412920Y-14890960D02*
X11393872Y-14900484D01*
X11393872Y-14900484D02*
X11355777Y-14900484D01*
X11355777Y-14900484D02*
X11336730Y-14890960D01*
X11336730Y-14890960D02*
X11327206Y-14871912D01*
X11327206Y-14871912D02*
X11327206Y-14795722D01*
X11327206Y-14795722D02*
X11336730Y-14776674D01*
X11336730Y-14776674D02*
X11355777Y-14767150D01*
X11355777Y-14767150D02*
X11393872Y-14767150D01*
X11393872Y-14767150D02*
X11412920Y-14776674D01*
X11412920Y-14776674D02*
X11422444Y-14795722D01*
X11422444Y-14795722D02*
X11422444Y-14814769D01*
X11422444Y-14814769D02*
X11327206Y-14833817D01*
X11498634Y-14890960D02*
X11517682Y-14900484D01*
X11517682Y-14900484D02*
X11555777Y-14900484D01*
X11555777Y-14900484D02*
X11574825Y-14890960D01*
X11574825Y-14890960D02*
X11584349Y-14871912D01*
X11584349Y-14871912D02*
X11584349Y-14862388D01*
X11584349Y-14862388D02*
X11574825Y-14843341D01*
X11574825Y-14843341D02*
X11555777Y-14833817D01*
X11555777Y-14833817D02*
X11527206Y-14833817D01*
X11527206Y-14833817D02*
X11508158Y-14824293D01*
X11508158Y-14824293D02*
X11498634Y-14805246D01*
X11498634Y-14805246D02*
X11498634Y-14795722D01*
X11498634Y-14795722D02*
X11508158Y-14776674D01*
X11508158Y-14776674D02*
X11527206Y-14767150D01*
X11527206Y-14767150D02*
X11555777Y-14767150D01*
X11555777Y-14767150D02*
X11574825Y-14776674D01*
X11651015Y-14976674D02*
X11660539Y-14967150D01*
X11660539Y-14967150D02*
X11679587Y-14938579D01*
X11679587Y-14938579D02*
X11689111Y-14919531D01*
X11689111Y-14919531D02*
X11698634Y-14890960D01*
X11698634Y-14890960D02*
X11708158Y-14843341D01*
X11708158Y-14843341D02*
X11708158Y-14805246D01*
X11708158Y-14805246D02*
X11698634Y-14757627D01*
X11698634Y-14757627D02*
X11689111Y-14729055D01*
X11689111Y-14729055D02*
X11679587Y-14710008D01*
X11679587Y-14710008D02*
X11660539Y-14681436D01*
X11660539Y-14681436D02*
X11651015Y-14671912D01*
D10*
X6445000Y-15023000D02*
X6445000Y-15123000D01*
X6395000Y-15073000D02*
X6495000Y-15073000D01*
D11*
X6860539Y-15164484D02*
X6746253Y-15164484D01*
X6803396Y-15164484D02*
X6803396Y-14964484D01*
X6803396Y-14964484D02*
X6784348Y-14993055D01*
X6784348Y-14993055D02*
X6765301Y-15012103D01*
X6765301Y-15012103D02*
X6746253Y-15021627D01*
X6946253Y-15145436D02*
X6955777Y-15154960D01*
X6955777Y-15154960D02*
X6946253Y-15164484D01*
X6946253Y-15164484D02*
X6936729Y-15154960D01*
X6936729Y-15154960D02*
X6946253Y-15145436D01*
X6946253Y-15145436D02*
X6946253Y-15164484D01*
X7079586Y-14964484D02*
X7098634Y-14964484D01*
X7098634Y-14964484D02*
X7117682Y-14974008D01*
X7117682Y-14974008D02*
X7127205Y-14983531D01*
X7127205Y-14983531D02*
X7136729Y-15002579D01*
X7136729Y-15002579D02*
X7146253Y-15040674D01*
X7146253Y-15040674D02*
X7146253Y-15088293D01*
X7146253Y-15088293D02*
X7136729Y-15126388D01*
X7136729Y-15126388D02*
X7127205Y-15145436D01*
X7127205Y-15145436D02*
X7117682Y-15154960D01*
X7117682Y-15154960D02*
X7098634Y-15164484D01*
X7098634Y-15164484D02*
X7079586Y-15164484D01*
X7079586Y-15164484D02*
X7060539Y-15154960D01*
X7060539Y-15154960D02*
X7051015Y-15145436D01*
X7051015Y-15145436D02*
X7041491Y-15126388D01*
X7041491Y-15126388D02*
X7031967Y-15088293D01*
X7031967Y-15088293D02*
X7031967Y-15040674D01*
X7031967Y-15040674D02*
X7041491Y-15002579D01*
X7041491Y-15002579D02*
X7051015Y-14983531D01*
X7051015Y-14983531D02*
X7060539Y-14974008D01*
X7060539Y-14974008D02*
X7079586Y-14964484D01*
X7270062Y-14964484D02*
X7289110Y-14964484D01*
X7289110Y-14964484D02*
X7308158Y-14974008D01*
X7308158Y-14974008D02*
X7317682Y-14983531D01*
X7317682Y-14983531D02*
X7327205Y-15002579D01*
X7327205Y-15002579D02*
X7336729Y-15040674D01*
X7336729Y-15040674D02*
X7336729Y-15088293D01*
X7336729Y-15088293D02*
X7327205Y-15126388D01*
X7327205Y-15126388D02*
X7317682Y-15145436D01*
X7317682Y-15145436D02*
X7308158Y-15154960D01*
X7308158Y-15154960D02*
X7289110Y-15164484D01*
X7289110Y-15164484D02*
X7270062Y-15164484D01*
X7270062Y-15164484D02*
X7251015Y-15154960D01*
X7251015Y-15154960D02*
X7241491Y-15145436D01*
X7241491Y-15145436D02*
X7231967Y-15126388D01*
X7231967Y-15126388D02*
X7222443Y-15088293D01*
X7222443Y-15088293D02*
X7222443Y-15040674D01*
X7222443Y-15040674D02*
X7231967Y-15002579D01*
X7231967Y-15002579D02*
X7241491Y-14983531D01*
X7241491Y-14983531D02*
X7251015Y-14974008D01*
X7251015Y-14974008D02*
X7270062Y-14964484D01*
X7460539Y-14964484D02*
X7479586Y-14964484D01*
X7479586Y-14964484D02*
X7498634Y-14974008D01*
X7498634Y-14974008D02*
X7508158Y-14983531D01*
X7508158Y-14983531D02*
X7517682Y-15002579D01*
X7517682Y-15002579D02*
X7527205Y-15040674D01*
X7527205Y-15040674D02*
X7527205Y-15088293D01*
X7527205Y-15088293D02*
X7517682Y-15126388D01*
X7517682Y-15126388D02*
X7508158Y-15145436D01*
X7508158Y-15145436D02*
X7498634Y-15154960D01*
X7498634Y-15154960D02*
X7479586Y-15164484D01*
X7479586Y-15164484D02*
X7460539Y-15164484D01*
X7460539Y-15164484D02*
X7441491Y-15154960D01*
X7441491Y-15154960D02*
X7431967Y-15145436D01*
X7431967Y-15145436D02*
X7422443Y-15126388D01*
X7422443Y-15126388D02*
X7412920Y-15088293D01*
X7412920Y-15088293D02*
X7412920Y-15040674D01*
X7412920Y-15040674D02*
X7422443Y-15002579D01*
X7422443Y-15002579D02*
X7431967Y-14983531D01*
X7431967Y-14983531D02*
X7441491Y-14974008D01*
X7441491Y-14974008D02*
X7460539Y-14964484D01*
X7612920Y-15164484D02*
X7612920Y-15031150D01*
X7612920Y-15050198D02*
X7622443Y-15040674D01*
X7622443Y-15040674D02*
X7641491Y-15031150D01*
X7641491Y-15031150D02*
X7670063Y-15031150D01*
X7670063Y-15031150D02*
X7689110Y-15040674D01*
X7689110Y-15040674D02*
X7698634Y-15059722D01*
X7698634Y-15059722D02*
X7698634Y-15164484D01*
X7698634Y-15059722D02*
X7708158Y-15040674D01*
X7708158Y-15040674D02*
X7727205Y-15031150D01*
X7727205Y-15031150D02*
X7755777Y-15031150D01*
X7755777Y-15031150D02*
X7774824Y-15040674D01*
X7774824Y-15040674D02*
X7784348Y-15059722D01*
X7784348Y-15059722D02*
X7784348Y-15164484D01*
X7879586Y-15164484D02*
X7879586Y-15031150D01*
X7879586Y-15050198D02*
X7889110Y-15040674D01*
X7889110Y-15040674D02*
X7908158Y-15031150D01*
X7908158Y-15031150D02*
X7936729Y-15031150D01*
X7936729Y-15031150D02*
X7955777Y-15040674D01*
X7955777Y-15040674D02*
X7965301Y-15059722D01*
X7965301Y-15059722D02*
X7965301Y-15164484D01*
X7965301Y-15059722D02*
X7974824Y-15040674D01*
X7974824Y-15040674D02*
X7993872Y-15031150D01*
X7993872Y-15031150D02*
X8022443Y-15031150D01*
X8022443Y-15031150D02*
X8041491Y-15040674D01*
X8041491Y-15040674D02*
X8051015Y-15059722D01*
X8051015Y-15059722D02*
X8051015Y-15164484D01*
X8441491Y-14954960D02*
X8270063Y-15212103D01*
X8698634Y-14964484D02*
X8717682Y-14964484D01*
X8717682Y-14964484D02*
X8736729Y-14974008D01*
X8736729Y-14974008D02*
X8746253Y-14983531D01*
X8746253Y-14983531D02*
X8755777Y-15002579D01*
X8755777Y-15002579D02*
X8765301Y-15040674D01*
X8765301Y-15040674D02*
X8765301Y-15088293D01*
X8765301Y-15088293D02*
X8755777Y-15126388D01*
X8755777Y-15126388D02*
X8746253Y-15145436D01*
X8746253Y-15145436D02*
X8736729Y-15154960D01*
X8736729Y-15154960D02*
X8717682Y-15164484D01*
X8717682Y-15164484D02*
X8698634Y-15164484D01*
X8698634Y-15164484D02*
X8679587Y-15154960D01*
X8679587Y-15154960D02*
X8670063Y-15145436D01*
X8670063Y-15145436D02*
X8660539Y-15126388D01*
X8660539Y-15126388D02*
X8651015Y-15088293D01*
X8651015Y-15088293D02*
X8651015Y-15040674D01*
X8651015Y-15040674D02*
X8660539Y-15002579D01*
X8660539Y-15002579D02*
X8670063Y-14983531D01*
X8670063Y-14983531D02*
X8679587Y-14974008D01*
X8679587Y-14974008D02*
X8698634Y-14964484D01*
X8851015Y-15145436D02*
X8860539Y-15154960D01*
X8860539Y-15154960D02*
X8851015Y-15164484D01*
X8851015Y-15164484D02*
X8841491Y-15154960D01*
X8841491Y-15154960D02*
X8851015Y-15145436D01*
X8851015Y-15145436D02*
X8851015Y-15164484D01*
X8984348Y-14964484D02*
X9003396Y-14964484D01*
X9003396Y-14964484D02*
X9022444Y-14974008D01*
X9022444Y-14974008D02*
X9031968Y-14983531D01*
X9031968Y-14983531D02*
X9041491Y-15002579D01*
X9041491Y-15002579D02*
X9051015Y-15040674D01*
X9051015Y-15040674D02*
X9051015Y-15088293D01*
X9051015Y-15088293D02*
X9041491Y-15126388D01*
X9041491Y-15126388D02*
X9031968Y-15145436D01*
X9031968Y-15145436D02*
X9022444Y-15154960D01*
X9022444Y-15154960D02*
X9003396Y-15164484D01*
X9003396Y-15164484D02*
X8984348Y-15164484D01*
X8984348Y-15164484D02*
X8965301Y-15154960D01*
X8965301Y-15154960D02*
X8955777Y-15145436D01*
X8955777Y-15145436D02*
X8946253Y-15126388D01*
X8946253Y-15126388D02*
X8936729Y-15088293D01*
X8936729Y-15088293D02*
X8936729Y-15040674D01*
X8936729Y-15040674D02*
X8946253Y-15002579D01*
X8946253Y-15002579D02*
X8955777Y-14983531D01*
X8955777Y-14983531D02*
X8965301Y-14974008D01*
X8965301Y-14974008D02*
X8984348Y-14964484D01*
X9117682Y-14964484D02*
X9241491Y-14964484D01*
X9241491Y-14964484D02*
X9174825Y-15040674D01*
X9174825Y-15040674D02*
X9203396Y-15040674D01*
X9203396Y-15040674D02*
X9222444Y-15050198D01*
X9222444Y-15050198D02*
X9231968Y-15059722D01*
X9231968Y-15059722D02*
X9241491Y-15078769D01*
X9241491Y-15078769D02*
X9241491Y-15126388D01*
X9241491Y-15126388D02*
X9231968Y-15145436D01*
X9231968Y-15145436D02*
X9222444Y-15154960D01*
X9222444Y-15154960D02*
X9203396Y-15164484D01*
X9203396Y-15164484D02*
X9146253Y-15164484D01*
X9146253Y-15164484D02*
X9127206Y-15154960D01*
X9127206Y-15154960D02*
X9117682Y-15145436D01*
X9336729Y-15164484D02*
X9374825Y-15164484D01*
X9374825Y-15164484D02*
X9393872Y-15154960D01*
X9393872Y-15154960D02*
X9403396Y-15145436D01*
X9403396Y-15145436D02*
X9422444Y-15116865D01*
X9422444Y-15116865D02*
X9431968Y-15078769D01*
X9431968Y-15078769D02*
X9431968Y-15002579D01*
X9431968Y-15002579D02*
X9422444Y-14983531D01*
X9422444Y-14983531D02*
X9412920Y-14974008D01*
X9412920Y-14974008D02*
X9393872Y-14964484D01*
X9393872Y-14964484D02*
X9355777Y-14964484D01*
X9355777Y-14964484D02*
X9336729Y-14974008D01*
X9336729Y-14974008D02*
X9327206Y-14983531D01*
X9327206Y-14983531D02*
X9317682Y-15002579D01*
X9317682Y-15002579D02*
X9317682Y-15050198D01*
X9317682Y-15050198D02*
X9327206Y-15069246D01*
X9327206Y-15069246D02*
X9336729Y-15078769D01*
X9336729Y-15078769D02*
X9355777Y-15088293D01*
X9355777Y-15088293D02*
X9393872Y-15088293D01*
X9393872Y-15088293D02*
X9412920Y-15078769D01*
X9412920Y-15078769D02*
X9422444Y-15069246D01*
X9422444Y-15069246D02*
X9431968Y-15050198D01*
X9603396Y-15031150D02*
X9603396Y-15164484D01*
X9555777Y-14954960D02*
X9508158Y-15097817D01*
X9508158Y-15097817D02*
X9631968Y-15097817D01*
X9698634Y-14964484D02*
X9698634Y-15002579D01*
X9774825Y-14964484D02*
X9774825Y-15002579D01*
X10070063Y-15240674D02*
X10060539Y-15231150D01*
X10060539Y-15231150D02*
X10041491Y-15202579D01*
X10041491Y-15202579D02*
X10031968Y-15183531D01*
X10031968Y-15183531D02*
X10022444Y-15154960D01*
X10022444Y-15154960D02*
X10012920Y-15107341D01*
X10012920Y-15107341D02*
X10012920Y-15069246D01*
X10012920Y-15069246D02*
X10022444Y-15021627D01*
X10022444Y-15021627D02*
X10031968Y-14993055D01*
X10031968Y-14993055D02*
X10041491Y-14974008D01*
X10041491Y-14974008D02*
X10060539Y-14945436D01*
X10060539Y-14945436D02*
X10070063Y-14935912D01*
X10251015Y-15164484D02*
X10136730Y-15164484D01*
X10193872Y-15164484D02*
X10193872Y-14964484D01*
X10193872Y-14964484D02*
X10174825Y-14993055D01*
X10174825Y-14993055D02*
X10155777Y-15012103D01*
X10155777Y-15012103D02*
X10136730Y-15021627D01*
X10317682Y-14964484D02*
X10441491Y-14964484D01*
X10441491Y-14964484D02*
X10374825Y-15040674D01*
X10374825Y-15040674D02*
X10403396Y-15040674D01*
X10403396Y-15040674D02*
X10422444Y-15050198D01*
X10422444Y-15050198D02*
X10431968Y-15059722D01*
X10431968Y-15059722D02*
X10441491Y-15078769D01*
X10441491Y-15078769D02*
X10441491Y-15126388D01*
X10441491Y-15126388D02*
X10431968Y-15145436D01*
X10431968Y-15145436D02*
X10422444Y-15154960D01*
X10422444Y-15154960D02*
X10403396Y-15164484D01*
X10403396Y-15164484D02*
X10346253Y-15164484D01*
X10346253Y-15164484D02*
X10327206Y-15154960D01*
X10327206Y-15154960D02*
X10317682Y-15145436D01*
X10679587Y-15164484D02*
X10679587Y-14964484D01*
X10765301Y-15164484D02*
X10765301Y-15059722D01*
X10765301Y-15059722D02*
X10755777Y-15040674D01*
X10755777Y-15040674D02*
X10736730Y-15031150D01*
X10736730Y-15031150D02*
X10708158Y-15031150D01*
X10708158Y-15031150D02*
X10689111Y-15040674D01*
X10689111Y-15040674D02*
X10679587Y-15050198D01*
X10889111Y-15164484D02*
X10870063Y-15154960D01*
X10870063Y-15154960D02*
X10860539Y-15145436D01*
X10860539Y-15145436D02*
X10851015Y-15126388D01*
X10851015Y-15126388D02*
X10851015Y-15069246D01*
X10851015Y-15069246D02*
X10860539Y-15050198D01*
X10860539Y-15050198D02*
X10870063Y-15040674D01*
X10870063Y-15040674D02*
X10889111Y-15031150D01*
X10889111Y-15031150D02*
X10917682Y-15031150D01*
X10917682Y-15031150D02*
X10936730Y-15040674D01*
X10936730Y-15040674D02*
X10946253Y-15050198D01*
X10946253Y-15050198D02*
X10955777Y-15069246D01*
X10955777Y-15069246D02*
X10955777Y-15126388D01*
X10955777Y-15126388D02*
X10946253Y-15145436D01*
X10946253Y-15145436D02*
X10936730Y-15154960D01*
X10936730Y-15154960D02*
X10917682Y-15164484D01*
X10917682Y-15164484D02*
X10889111Y-15164484D01*
X11070063Y-15164484D02*
X11051015Y-15154960D01*
X11051015Y-15154960D02*
X11041492Y-15135912D01*
X11041492Y-15135912D02*
X11041492Y-14964484D01*
X11222444Y-15154960D02*
X11203396Y-15164484D01*
X11203396Y-15164484D02*
X11165301Y-15164484D01*
X11165301Y-15164484D02*
X11146253Y-15154960D01*
X11146253Y-15154960D02*
X11136730Y-15135912D01*
X11136730Y-15135912D02*
X11136730Y-15059722D01*
X11136730Y-15059722D02*
X11146253Y-15040674D01*
X11146253Y-15040674D02*
X11165301Y-15031150D01*
X11165301Y-15031150D02*
X11203396Y-15031150D01*
X11203396Y-15031150D02*
X11222444Y-15040674D01*
X11222444Y-15040674D02*
X11231968Y-15059722D01*
X11231968Y-15059722D02*
X11231968Y-15078769D01*
X11231968Y-15078769D02*
X11136730Y-15097817D01*
X11308158Y-15154960D02*
X11327206Y-15164484D01*
X11327206Y-15164484D02*
X11365301Y-15164484D01*
X11365301Y-15164484D02*
X11384349Y-15154960D01*
X11384349Y-15154960D02*
X11393872Y-15135912D01*
X11393872Y-15135912D02*
X11393872Y-15126388D01*
X11393872Y-15126388D02*
X11384349Y-15107341D01*
X11384349Y-15107341D02*
X11365301Y-15097817D01*
X11365301Y-15097817D02*
X11336730Y-15097817D01*
X11336730Y-15097817D02*
X11317682Y-15088293D01*
X11317682Y-15088293D02*
X11308158Y-15069246D01*
X11308158Y-15069246D02*
X11308158Y-15059722D01*
X11308158Y-15059722D02*
X11317682Y-15040674D01*
X11317682Y-15040674D02*
X11336730Y-15031150D01*
X11336730Y-15031150D02*
X11365301Y-15031150D01*
X11365301Y-15031150D02*
X11384349Y-15040674D01*
X11631968Y-15088293D02*
X11784349Y-15088293D01*
X11708158Y-15164484D02*
X11708158Y-15012103D01*
X12117682Y-14964484D02*
X12079587Y-14964484D01*
X12079587Y-14964484D02*
X12060539Y-14974008D01*
X12060539Y-14974008D02*
X12051015Y-14983531D01*
X12051015Y-14983531D02*
X12031968Y-15012103D01*
X12031968Y-15012103D02*
X12022444Y-15050198D01*
X12022444Y-15050198D02*
X12022444Y-15126388D01*
X12022444Y-15126388D02*
X12031968Y-15145436D01*
X12031968Y-15145436D02*
X12041492Y-15154960D01*
X12041492Y-15154960D02*
X12060539Y-15164484D01*
X12060539Y-15164484D02*
X12098634Y-15164484D01*
X12098634Y-15164484D02*
X12117682Y-15154960D01*
X12117682Y-15154960D02*
X12127206Y-15145436D01*
X12127206Y-15145436D02*
X12136730Y-15126388D01*
X12136730Y-15126388D02*
X12136730Y-15078769D01*
X12136730Y-15078769D02*
X12127206Y-15059722D01*
X12127206Y-15059722D02*
X12117682Y-15050198D01*
X12117682Y-15050198D02*
X12098634Y-15040674D01*
X12098634Y-15040674D02*
X12060539Y-15040674D01*
X12060539Y-15040674D02*
X12041492Y-15050198D01*
X12041492Y-15050198D02*
X12031968Y-15059722D01*
X12031968Y-15059722D02*
X12022444Y-15078769D01*
X12365301Y-15154960D02*
X12384349Y-15164484D01*
X12384349Y-15164484D02*
X12422444Y-15164484D01*
X12422444Y-15164484D02*
X12441492Y-15154960D01*
X12441492Y-15154960D02*
X12451015Y-15135912D01*
X12451015Y-15135912D02*
X12451015Y-15126388D01*
X12451015Y-15126388D02*
X12441492Y-15107341D01*
X12441492Y-15107341D02*
X12422444Y-15097817D01*
X12422444Y-15097817D02*
X12393873Y-15097817D01*
X12393873Y-15097817D02*
X12374825Y-15088293D01*
X12374825Y-15088293D02*
X12365301Y-15069246D01*
X12365301Y-15069246D02*
X12365301Y-15059722D01*
X12365301Y-15059722D02*
X12374825Y-15040674D01*
X12374825Y-15040674D02*
X12393873Y-15031150D01*
X12393873Y-15031150D02*
X12422444Y-15031150D01*
X12422444Y-15031150D02*
X12441492Y-15040674D01*
X12565301Y-15164484D02*
X12546254Y-15154960D01*
X12546254Y-15154960D02*
X12536730Y-15135912D01*
X12536730Y-15135912D02*
X12536730Y-14964484D01*
X12670063Y-15164484D02*
X12651015Y-15154960D01*
X12651015Y-15154960D02*
X12641492Y-15145436D01*
X12641492Y-15145436D02*
X12631968Y-15126388D01*
X12631968Y-15126388D02*
X12631968Y-15069246D01*
X12631968Y-15069246D02*
X12641492Y-15050198D01*
X12641492Y-15050198D02*
X12651015Y-15040674D01*
X12651015Y-15040674D02*
X12670063Y-15031150D01*
X12670063Y-15031150D02*
X12698635Y-15031150D01*
X12698635Y-15031150D02*
X12717682Y-15040674D01*
X12717682Y-15040674D02*
X12727206Y-15050198D01*
X12727206Y-15050198D02*
X12736730Y-15069246D01*
X12736730Y-15069246D02*
X12736730Y-15126388D01*
X12736730Y-15126388D02*
X12727206Y-15145436D01*
X12727206Y-15145436D02*
X12717682Y-15154960D01*
X12717682Y-15154960D02*
X12698635Y-15164484D01*
X12698635Y-15164484D02*
X12670063Y-15164484D01*
X12793873Y-15031150D02*
X12870063Y-15031150D01*
X12822444Y-14964484D02*
X12822444Y-15135912D01*
X12822444Y-15135912D02*
X12831968Y-15154960D01*
X12831968Y-15154960D02*
X12851015Y-15164484D01*
X12851015Y-15164484D02*
X12870063Y-15164484D01*
X12927206Y-15154960D02*
X12946254Y-15164484D01*
X12946254Y-15164484D02*
X12984349Y-15164484D01*
X12984349Y-15164484D02*
X13003396Y-15154960D01*
X13003396Y-15154960D02*
X13012920Y-15135912D01*
X13012920Y-15135912D02*
X13012920Y-15126388D01*
X13012920Y-15126388D02*
X13003396Y-15107341D01*
X13003396Y-15107341D02*
X12984349Y-15097817D01*
X12984349Y-15097817D02*
X12955777Y-15097817D01*
X12955777Y-15097817D02*
X12936730Y-15088293D01*
X12936730Y-15088293D02*
X12927206Y-15069246D01*
X12927206Y-15069246D02*
X12927206Y-15059722D01*
X12927206Y-15059722D02*
X12936730Y-15040674D01*
X12936730Y-15040674D02*
X12955777Y-15031150D01*
X12955777Y-15031150D02*
X12984349Y-15031150D01*
X12984349Y-15031150D02*
X13003396Y-15040674D01*
X13079587Y-15240674D02*
X13089111Y-15231150D01*
X13089111Y-15231150D02*
X13108158Y-15202579D01*
X13108158Y-15202579D02*
X13117682Y-15183531D01*
X13117682Y-15183531D02*
X13127206Y-15154960D01*
X13127206Y-15154960D02*
X13136730Y-15107341D01*
X13136730Y-15107341D02*
X13136730Y-15069246D01*
X13136730Y-15069246D02*
X13127206Y-15021627D01*
X13127206Y-15021627D02*
X13117682Y-14993055D01*
X13117682Y-14993055D02*
X13108158Y-14974008D01*
X13108158Y-14974008D02*
X13089111Y-14945436D01*
X13089111Y-14945436D02*
X13079587Y-14935912D01*
D12*
X6480063Y-15373063D02*
X6480063Y-15300937D01*
X6407937Y-15300937D01*
X6407937Y-15373063D01*
X6480063Y-15373063D01*
D11*
X6860539Y-15428484D02*
X6746253Y-15428484D01*
X6803396Y-15428484D02*
X6803396Y-15228484D01*
X6803396Y-15228484D02*
X6784348Y-15257055D01*
X6784348Y-15257055D02*
X6765301Y-15276103D01*
X6765301Y-15276103D02*
X6746253Y-15285627D01*
X6946253Y-15409436D02*
X6955777Y-15418960D01*
X6955777Y-15418960D02*
X6946253Y-15428484D01*
X6946253Y-15428484D02*
X6936729Y-15418960D01*
X6936729Y-15418960D02*
X6946253Y-15409436D01*
X6946253Y-15409436D02*
X6946253Y-15428484D01*
X7079586Y-15228484D02*
X7098634Y-15228484D01*
X7098634Y-15228484D02*
X7117682Y-15238008D01*
X7117682Y-15238008D02*
X7127205Y-15247531D01*
X7127205Y-15247531D02*
X7136729Y-15266579D01*
X7136729Y-15266579D02*
X7146253Y-15304674D01*
X7146253Y-15304674D02*
X7146253Y-15352293D01*
X7146253Y-15352293D02*
X7136729Y-15390388D01*
X7136729Y-15390388D02*
X7127205Y-15409436D01*
X7127205Y-15409436D02*
X7117682Y-15418960D01*
X7117682Y-15418960D02*
X7098634Y-15428484D01*
X7098634Y-15428484D02*
X7079586Y-15428484D01*
X7079586Y-15428484D02*
X7060539Y-15418960D01*
X7060539Y-15418960D02*
X7051015Y-15409436D01*
X7051015Y-15409436D02*
X7041491Y-15390388D01*
X7041491Y-15390388D02*
X7031967Y-15352293D01*
X7031967Y-15352293D02*
X7031967Y-15304674D01*
X7031967Y-15304674D02*
X7041491Y-15266579D01*
X7041491Y-15266579D02*
X7051015Y-15247531D01*
X7051015Y-15247531D02*
X7060539Y-15238008D01*
X7060539Y-15238008D02*
X7079586Y-15228484D01*
X7222443Y-15247531D02*
X7231967Y-15238008D01*
X7231967Y-15238008D02*
X7251015Y-15228484D01*
X7251015Y-15228484D02*
X7298634Y-15228484D01*
X7298634Y-15228484D02*
X7317682Y-15238008D01*
X7317682Y-15238008D02*
X7327205Y-15247531D01*
X7327205Y-15247531D02*
X7336729Y-15266579D01*
X7336729Y-15266579D02*
X7336729Y-15285627D01*
X7336729Y-15285627D02*
X7327205Y-15314198D01*
X7327205Y-15314198D02*
X7212920Y-15428484D01*
X7212920Y-15428484D02*
X7336729Y-15428484D01*
X7460539Y-15228484D02*
X7479586Y-15228484D01*
X7479586Y-15228484D02*
X7498634Y-15238008D01*
X7498634Y-15238008D02*
X7508158Y-15247531D01*
X7508158Y-15247531D02*
X7517682Y-15266579D01*
X7517682Y-15266579D02*
X7527205Y-15304674D01*
X7527205Y-15304674D02*
X7527205Y-15352293D01*
X7527205Y-15352293D02*
X7517682Y-15390388D01*
X7517682Y-15390388D02*
X7508158Y-15409436D01*
X7508158Y-15409436D02*
X7498634Y-15418960D01*
X7498634Y-15418960D02*
X7479586Y-15428484D01*
X7479586Y-15428484D02*
X7460539Y-15428484D01*
X7460539Y-15428484D02*
X7441491Y-15418960D01*
X7441491Y-15418960D02*
X7431967Y-15409436D01*
X7431967Y-15409436D02*
X7422443Y-15390388D01*
X7422443Y-15390388D02*
X7412920Y-15352293D01*
X7412920Y-15352293D02*
X7412920Y-15304674D01*
X7412920Y-15304674D02*
X7422443Y-15266579D01*
X7422443Y-15266579D02*
X7431967Y-15247531D01*
X7431967Y-15247531D02*
X7441491Y-15238008D01*
X7441491Y-15238008D02*
X7460539Y-15228484D01*
X7612920Y-15428484D02*
X7612920Y-15295150D01*
X7612920Y-15314198D02*
X7622443Y-15304674D01*
X7622443Y-15304674D02*
X7641491Y-15295150D01*
X7641491Y-15295150D02*
X7670063Y-15295150D01*
X7670063Y-15295150D02*
X7689110Y-15304674D01*
X7689110Y-15304674D02*
X7698634Y-15323722D01*
X7698634Y-15323722D02*
X7698634Y-15428484D01*
X7698634Y-15323722D02*
X7708158Y-15304674D01*
X7708158Y-15304674D02*
X7727205Y-15295150D01*
X7727205Y-15295150D02*
X7755777Y-15295150D01*
X7755777Y-15295150D02*
X7774824Y-15304674D01*
X7774824Y-15304674D02*
X7784348Y-15323722D01*
X7784348Y-15323722D02*
X7784348Y-15428484D01*
X7879586Y-15428484D02*
X7879586Y-15295150D01*
X7879586Y-15314198D02*
X7889110Y-15304674D01*
X7889110Y-15304674D02*
X7908158Y-15295150D01*
X7908158Y-15295150D02*
X7936729Y-15295150D01*
X7936729Y-15295150D02*
X7955777Y-15304674D01*
X7955777Y-15304674D02*
X7965301Y-15323722D01*
X7965301Y-15323722D02*
X7965301Y-15428484D01*
X7965301Y-15323722D02*
X7974824Y-15304674D01*
X7974824Y-15304674D02*
X7993872Y-15295150D01*
X7993872Y-15295150D02*
X8022443Y-15295150D01*
X8022443Y-15295150D02*
X8041491Y-15304674D01*
X8041491Y-15304674D02*
X8051015Y-15323722D01*
X8051015Y-15323722D02*
X8051015Y-15428484D01*
X8441491Y-15218960D02*
X8270063Y-15476103D01*
X8698634Y-15228484D02*
X8717682Y-15228484D01*
X8717682Y-15228484D02*
X8736729Y-15238008D01*
X8736729Y-15238008D02*
X8746253Y-15247531D01*
X8746253Y-15247531D02*
X8755777Y-15266579D01*
X8755777Y-15266579D02*
X8765301Y-15304674D01*
X8765301Y-15304674D02*
X8765301Y-15352293D01*
X8765301Y-15352293D02*
X8755777Y-15390388D01*
X8755777Y-15390388D02*
X8746253Y-15409436D01*
X8746253Y-15409436D02*
X8736729Y-15418960D01*
X8736729Y-15418960D02*
X8717682Y-15428484D01*
X8717682Y-15428484D02*
X8698634Y-15428484D01*
X8698634Y-15428484D02*
X8679587Y-15418960D01*
X8679587Y-15418960D02*
X8670063Y-15409436D01*
X8670063Y-15409436D02*
X8660539Y-15390388D01*
X8660539Y-15390388D02*
X8651015Y-15352293D01*
X8651015Y-15352293D02*
X8651015Y-15304674D01*
X8651015Y-15304674D02*
X8660539Y-15266579D01*
X8660539Y-15266579D02*
X8670063Y-15247531D01*
X8670063Y-15247531D02*
X8679587Y-15238008D01*
X8679587Y-15238008D02*
X8698634Y-15228484D01*
X8851015Y-15409436D02*
X8860539Y-15418960D01*
X8860539Y-15418960D02*
X8851015Y-15428484D01*
X8851015Y-15428484D02*
X8841491Y-15418960D01*
X8841491Y-15418960D02*
X8851015Y-15409436D01*
X8851015Y-15409436D02*
X8851015Y-15428484D01*
X8984348Y-15228484D02*
X9003396Y-15228484D01*
X9003396Y-15228484D02*
X9022444Y-15238008D01*
X9022444Y-15238008D02*
X9031968Y-15247531D01*
X9031968Y-15247531D02*
X9041491Y-15266579D01*
X9041491Y-15266579D02*
X9051015Y-15304674D01*
X9051015Y-15304674D02*
X9051015Y-15352293D01*
X9051015Y-15352293D02*
X9041491Y-15390388D01*
X9041491Y-15390388D02*
X9031968Y-15409436D01*
X9031968Y-15409436D02*
X9022444Y-15418960D01*
X9022444Y-15418960D02*
X9003396Y-15428484D01*
X9003396Y-15428484D02*
X8984348Y-15428484D01*
X8984348Y-15428484D02*
X8965301Y-15418960D01*
X8965301Y-15418960D02*
X8955777Y-15409436D01*
X8955777Y-15409436D02*
X8946253Y-15390388D01*
X8946253Y-15390388D02*
X8936729Y-15352293D01*
X8936729Y-15352293D02*
X8936729Y-15304674D01*
X8936729Y-15304674D02*
X8946253Y-15266579D01*
X8946253Y-15266579D02*
X8955777Y-15247531D01*
X8955777Y-15247531D02*
X8965301Y-15238008D01*
X8965301Y-15238008D02*
X8984348Y-15228484D01*
X9222444Y-15295150D02*
X9222444Y-15428484D01*
X9174825Y-15218960D02*
X9127206Y-15361817D01*
X9127206Y-15361817D02*
X9251015Y-15361817D01*
X9365301Y-15228484D02*
X9384349Y-15228484D01*
X9384349Y-15228484D02*
X9403396Y-15238008D01*
X9403396Y-15238008D02*
X9412920Y-15247531D01*
X9412920Y-15247531D02*
X9422444Y-15266579D01*
X9422444Y-15266579D02*
X9431968Y-15304674D01*
X9431968Y-15304674D02*
X9431968Y-15352293D01*
X9431968Y-15352293D02*
X9422444Y-15390388D01*
X9422444Y-15390388D02*
X9412920Y-15409436D01*
X9412920Y-15409436D02*
X9403396Y-15418960D01*
X9403396Y-15418960D02*
X9384349Y-15428484D01*
X9384349Y-15428484D02*
X9365301Y-15428484D01*
X9365301Y-15428484D02*
X9346253Y-15418960D01*
X9346253Y-15418960D02*
X9336729Y-15409436D01*
X9336729Y-15409436D02*
X9327206Y-15390388D01*
X9327206Y-15390388D02*
X9317682Y-15352293D01*
X9317682Y-15352293D02*
X9317682Y-15304674D01*
X9317682Y-15304674D02*
X9327206Y-15266579D01*
X9327206Y-15266579D02*
X9336729Y-15247531D01*
X9336729Y-15247531D02*
X9346253Y-15238008D01*
X9346253Y-15238008D02*
X9365301Y-15228484D01*
X9508158Y-15247531D02*
X9517682Y-15238008D01*
X9517682Y-15238008D02*
X9536729Y-15228484D01*
X9536729Y-15228484D02*
X9584349Y-15228484D01*
X9584349Y-15228484D02*
X9603396Y-15238008D01*
X9603396Y-15238008D02*
X9612920Y-15247531D01*
X9612920Y-15247531D02*
X9622444Y-15266579D01*
X9622444Y-15266579D02*
X9622444Y-15285627D01*
X9622444Y-15285627D02*
X9612920Y-15314198D01*
X9612920Y-15314198D02*
X9498634Y-15428484D01*
X9498634Y-15428484D02*
X9622444Y-15428484D01*
X9698634Y-15228484D02*
X9698634Y-15266579D01*
X9774825Y-15228484D02*
X9774825Y-15266579D01*
X10070063Y-15504674D02*
X10060539Y-15495150D01*
X10060539Y-15495150D02*
X10041491Y-15466579D01*
X10041491Y-15466579D02*
X10031968Y-15447531D01*
X10031968Y-15447531D02*
X10022444Y-15418960D01*
X10022444Y-15418960D02*
X10012920Y-15371341D01*
X10012920Y-15371341D02*
X10012920Y-15333246D01*
X10012920Y-15333246D02*
X10022444Y-15285627D01*
X10022444Y-15285627D02*
X10031968Y-15257055D01*
X10031968Y-15257055D02*
X10041491Y-15238008D01*
X10041491Y-15238008D02*
X10060539Y-15209436D01*
X10060539Y-15209436D02*
X10070063Y-15199912D01*
X10231968Y-15295150D02*
X10231968Y-15428484D01*
X10184349Y-15218960D02*
X10136730Y-15361817D01*
X10136730Y-15361817D02*
X10260539Y-15361817D01*
X10317682Y-15228484D02*
X10441491Y-15228484D01*
X10441491Y-15228484D02*
X10374825Y-15304674D01*
X10374825Y-15304674D02*
X10403396Y-15304674D01*
X10403396Y-15304674D02*
X10422444Y-15314198D01*
X10422444Y-15314198D02*
X10431968Y-15323722D01*
X10431968Y-15323722D02*
X10441491Y-15342769D01*
X10441491Y-15342769D02*
X10441491Y-15390388D01*
X10441491Y-15390388D02*
X10431968Y-15409436D01*
X10431968Y-15409436D02*
X10422444Y-15418960D01*
X10422444Y-15418960D02*
X10403396Y-15428484D01*
X10403396Y-15428484D02*
X10346253Y-15428484D01*
X10346253Y-15428484D02*
X10327206Y-15418960D01*
X10327206Y-15418960D02*
X10317682Y-15409436D01*
X10679587Y-15428484D02*
X10679587Y-15228484D01*
X10765301Y-15428484D02*
X10765301Y-15323722D01*
X10765301Y-15323722D02*
X10755777Y-15304674D01*
X10755777Y-15304674D02*
X10736730Y-15295150D01*
X10736730Y-15295150D02*
X10708158Y-15295150D01*
X10708158Y-15295150D02*
X10689111Y-15304674D01*
X10689111Y-15304674D02*
X10679587Y-15314198D01*
X10889111Y-15428484D02*
X10870063Y-15418960D01*
X10870063Y-15418960D02*
X10860539Y-15409436D01*
X10860539Y-15409436D02*
X10851015Y-15390388D01*
X10851015Y-15390388D02*
X10851015Y-15333246D01*
X10851015Y-15333246D02*
X10860539Y-15314198D01*
X10860539Y-15314198D02*
X10870063Y-15304674D01*
X10870063Y-15304674D02*
X10889111Y-15295150D01*
X10889111Y-15295150D02*
X10917682Y-15295150D01*
X10917682Y-15295150D02*
X10936730Y-15304674D01*
X10936730Y-15304674D02*
X10946253Y-15314198D01*
X10946253Y-15314198D02*
X10955777Y-15333246D01*
X10955777Y-15333246D02*
X10955777Y-15390388D01*
X10955777Y-15390388D02*
X10946253Y-15409436D01*
X10946253Y-15409436D02*
X10936730Y-15418960D01*
X10936730Y-15418960D02*
X10917682Y-15428484D01*
X10917682Y-15428484D02*
X10889111Y-15428484D01*
X11070063Y-15428484D02*
X11051015Y-15418960D01*
X11051015Y-15418960D02*
X11041492Y-15399912D01*
X11041492Y-15399912D02*
X11041492Y-15228484D01*
X11222444Y-15418960D02*
X11203396Y-15428484D01*
X11203396Y-15428484D02*
X11165301Y-15428484D01*
X11165301Y-15428484D02*
X11146253Y-15418960D01*
X11146253Y-15418960D02*
X11136730Y-15399912D01*
X11136730Y-15399912D02*
X11136730Y-15323722D01*
X11136730Y-15323722D02*
X11146253Y-15304674D01*
X11146253Y-15304674D02*
X11165301Y-15295150D01*
X11165301Y-15295150D02*
X11203396Y-15295150D01*
X11203396Y-15295150D02*
X11222444Y-15304674D01*
X11222444Y-15304674D02*
X11231968Y-15323722D01*
X11231968Y-15323722D02*
X11231968Y-15342769D01*
X11231968Y-15342769D02*
X11136730Y-15361817D01*
X11308158Y-15418960D02*
X11327206Y-15428484D01*
X11327206Y-15428484D02*
X11365301Y-15428484D01*
X11365301Y-15428484D02*
X11384349Y-15418960D01*
X11384349Y-15418960D02*
X11393872Y-15399912D01*
X11393872Y-15399912D02*
X11393872Y-15390388D01*
X11393872Y-15390388D02*
X11384349Y-15371341D01*
X11384349Y-15371341D02*
X11365301Y-15361817D01*
X11365301Y-15361817D02*
X11336730Y-15361817D01*
X11336730Y-15361817D02*
X11317682Y-15352293D01*
X11317682Y-15352293D02*
X11308158Y-15333246D01*
X11308158Y-15333246D02*
X11308158Y-15323722D01*
X11308158Y-15323722D02*
X11317682Y-15304674D01*
X11317682Y-15304674D02*
X11336730Y-15295150D01*
X11336730Y-15295150D02*
X11365301Y-15295150D01*
X11365301Y-15295150D02*
X11384349Y-15304674D01*
X11460539Y-15504674D02*
X11470063Y-15495150D01*
X11470063Y-15495150D02*
X11489111Y-15466579D01*
X11489111Y-15466579D02*
X11498634Y-15447531D01*
X11498634Y-15447531D02*
X11508158Y-15418960D01*
X11508158Y-15418960D02*
X11517682Y-15371341D01*
X11517682Y-15371341D02*
X11517682Y-15333246D01*
X11517682Y-15333246D02*
X11508158Y-15285627D01*
X11508158Y-15285627D02*
X11498634Y-15257055D01*
X11498634Y-15257055D02*
X11489111Y-15238008D01*
X11489111Y-15238008D02*
X11470063Y-15209436D01*
X11470063Y-15209436D02*
X11460539Y-15199912D01*
D13*
X6440000Y-15656000D02*
X6495000Y-15601000D01*
X6440000Y-15546000D01*
X6385000Y-15601000D01*
X6440000Y-15656000D01*
D11*
X6860539Y-15692484D02*
X6746253Y-15692484D01*
X6803396Y-15692484D02*
X6803396Y-15492484D01*
X6803396Y-15492484D02*
X6784348Y-15521055D01*
X6784348Y-15521055D02*
X6765301Y-15540103D01*
X6765301Y-15540103D02*
X6746253Y-15549627D01*
X6946253Y-15673436D02*
X6955777Y-15682960D01*
X6955777Y-15682960D02*
X6946253Y-15692484D01*
X6946253Y-15692484D02*
X6936729Y-15682960D01*
X6936729Y-15682960D02*
X6946253Y-15673436D01*
X6946253Y-15673436D02*
X6946253Y-15692484D01*
X7146253Y-15692484D02*
X7031967Y-15692484D01*
X7089110Y-15692484D02*
X7089110Y-15492484D01*
X7089110Y-15492484D02*
X7070062Y-15521055D01*
X7070062Y-15521055D02*
X7051015Y-15540103D01*
X7051015Y-15540103D02*
X7031967Y-15549627D01*
X7270062Y-15492484D02*
X7289110Y-15492484D01*
X7289110Y-15492484D02*
X7308158Y-15502008D01*
X7308158Y-15502008D02*
X7317682Y-15511531D01*
X7317682Y-15511531D02*
X7327205Y-15530579D01*
X7327205Y-15530579D02*
X7336729Y-15568674D01*
X7336729Y-15568674D02*
X7336729Y-15616293D01*
X7336729Y-15616293D02*
X7327205Y-15654388D01*
X7327205Y-15654388D02*
X7317682Y-15673436D01*
X7317682Y-15673436D02*
X7308158Y-15682960D01*
X7308158Y-15682960D02*
X7289110Y-15692484D01*
X7289110Y-15692484D02*
X7270062Y-15692484D01*
X7270062Y-15692484D02*
X7251015Y-15682960D01*
X7251015Y-15682960D02*
X7241491Y-15673436D01*
X7241491Y-15673436D02*
X7231967Y-15654388D01*
X7231967Y-15654388D02*
X7222443Y-15616293D01*
X7222443Y-15616293D02*
X7222443Y-15568674D01*
X7222443Y-15568674D02*
X7231967Y-15530579D01*
X7231967Y-15530579D02*
X7241491Y-15511531D01*
X7241491Y-15511531D02*
X7251015Y-15502008D01*
X7251015Y-15502008D02*
X7270062Y-15492484D01*
X7460539Y-15492484D02*
X7479586Y-15492484D01*
X7479586Y-15492484D02*
X7498634Y-15502008D01*
X7498634Y-15502008D02*
X7508158Y-15511531D01*
X7508158Y-15511531D02*
X7517682Y-15530579D01*
X7517682Y-15530579D02*
X7527205Y-15568674D01*
X7527205Y-15568674D02*
X7527205Y-15616293D01*
X7527205Y-15616293D02*
X7517682Y-15654388D01*
X7517682Y-15654388D02*
X7508158Y-15673436D01*
X7508158Y-15673436D02*
X7498634Y-15682960D01*
X7498634Y-15682960D02*
X7479586Y-15692484D01*
X7479586Y-15692484D02*
X7460539Y-15692484D01*
X7460539Y-15692484D02*
X7441491Y-15682960D01*
X7441491Y-15682960D02*
X7431967Y-15673436D01*
X7431967Y-15673436D02*
X7422443Y-15654388D01*
X7422443Y-15654388D02*
X7412920Y-15616293D01*
X7412920Y-15616293D02*
X7412920Y-15568674D01*
X7412920Y-15568674D02*
X7422443Y-15530579D01*
X7422443Y-15530579D02*
X7431967Y-15511531D01*
X7431967Y-15511531D02*
X7441491Y-15502008D01*
X7441491Y-15502008D02*
X7460539Y-15492484D01*
X7612920Y-15692484D02*
X7612920Y-15559150D01*
X7612920Y-15578198D02*
X7622443Y-15568674D01*
X7622443Y-15568674D02*
X7641491Y-15559150D01*
X7641491Y-15559150D02*
X7670063Y-15559150D01*
X7670063Y-15559150D02*
X7689110Y-15568674D01*
X7689110Y-15568674D02*
X7698634Y-15587722D01*
X7698634Y-15587722D02*
X7698634Y-15692484D01*
X7698634Y-15587722D02*
X7708158Y-15568674D01*
X7708158Y-15568674D02*
X7727205Y-15559150D01*
X7727205Y-15559150D02*
X7755777Y-15559150D01*
X7755777Y-15559150D02*
X7774824Y-15568674D01*
X7774824Y-15568674D02*
X7784348Y-15587722D01*
X7784348Y-15587722D02*
X7784348Y-15692484D01*
X7879586Y-15692484D02*
X7879586Y-15559150D01*
X7879586Y-15578198D02*
X7889110Y-15568674D01*
X7889110Y-15568674D02*
X7908158Y-15559150D01*
X7908158Y-15559150D02*
X7936729Y-15559150D01*
X7936729Y-15559150D02*
X7955777Y-15568674D01*
X7955777Y-15568674D02*
X7965301Y-15587722D01*
X7965301Y-15587722D02*
X7965301Y-15692484D01*
X7965301Y-15587722D02*
X7974824Y-15568674D01*
X7974824Y-15568674D02*
X7993872Y-15559150D01*
X7993872Y-15559150D02*
X8022443Y-15559150D01*
X8022443Y-15559150D02*
X8041491Y-15568674D01*
X8041491Y-15568674D02*
X8051015Y-15587722D01*
X8051015Y-15587722D02*
X8051015Y-15692484D01*
X8441491Y-15482960D02*
X8270063Y-15740103D01*
X8698634Y-15492484D02*
X8717682Y-15492484D01*
X8717682Y-15492484D02*
X8736729Y-15502008D01*
X8736729Y-15502008D02*
X8746253Y-15511531D01*
X8746253Y-15511531D02*
X8755777Y-15530579D01*
X8755777Y-15530579D02*
X8765301Y-15568674D01*
X8765301Y-15568674D02*
X8765301Y-15616293D01*
X8765301Y-15616293D02*
X8755777Y-15654388D01*
X8755777Y-15654388D02*
X8746253Y-15673436D01*
X8746253Y-15673436D02*
X8736729Y-15682960D01*
X8736729Y-15682960D02*
X8717682Y-15692484D01*
X8717682Y-15692484D02*
X8698634Y-15692484D01*
X8698634Y-15692484D02*
X8679587Y-15682960D01*
X8679587Y-15682960D02*
X8670063Y-15673436D01*
X8670063Y-15673436D02*
X8660539Y-15654388D01*
X8660539Y-15654388D02*
X8651015Y-15616293D01*
X8651015Y-15616293D02*
X8651015Y-15568674D01*
X8651015Y-15568674D02*
X8660539Y-15530579D01*
X8660539Y-15530579D02*
X8670063Y-15511531D01*
X8670063Y-15511531D02*
X8679587Y-15502008D01*
X8679587Y-15502008D02*
X8698634Y-15492484D01*
X8851015Y-15673436D02*
X8860539Y-15682960D01*
X8860539Y-15682960D02*
X8851015Y-15692484D01*
X8851015Y-15692484D02*
X8841491Y-15682960D01*
X8841491Y-15682960D02*
X8851015Y-15673436D01*
X8851015Y-15673436D02*
X8851015Y-15692484D01*
X8984348Y-15492484D02*
X9003396Y-15492484D01*
X9003396Y-15492484D02*
X9022444Y-15502008D01*
X9022444Y-15502008D02*
X9031968Y-15511531D01*
X9031968Y-15511531D02*
X9041491Y-15530579D01*
X9041491Y-15530579D02*
X9051015Y-15568674D01*
X9051015Y-15568674D02*
X9051015Y-15616293D01*
X9051015Y-15616293D02*
X9041491Y-15654388D01*
X9041491Y-15654388D02*
X9031968Y-15673436D01*
X9031968Y-15673436D02*
X9022444Y-15682960D01*
X9022444Y-15682960D02*
X9003396Y-15692484D01*
X9003396Y-15692484D02*
X8984348Y-15692484D01*
X8984348Y-15692484D02*
X8965301Y-15682960D01*
X8965301Y-15682960D02*
X8955777Y-15673436D01*
X8955777Y-15673436D02*
X8946253Y-15654388D01*
X8946253Y-15654388D02*
X8936729Y-15616293D01*
X8936729Y-15616293D02*
X8936729Y-15568674D01*
X8936729Y-15568674D02*
X8946253Y-15530579D01*
X8946253Y-15530579D02*
X8955777Y-15511531D01*
X8955777Y-15511531D02*
X8965301Y-15502008D01*
X8965301Y-15502008D02*
X8984348Y-15492484D01*
X9222444Y-15559150D02*
X9222444Y-15692484D01*
X9174825Y-15482960D02*
X9127206Y-15625817D01*
X9127206Y-15625817D02*
X9251015Y-15625817D01*
X9308158Y-15492484D02*
X9431968Y-15492484D01*
X9431968Y-15492484D02*
X9365301Y-15568674D01*
X9365301Y-15568674D02*
X9393872Y-15568674D01*
X9393872Y-15568674D02*
X9412920Y-15578198D01*
X9412920Y-15578198D02*
X9422444Y-15587722D01*
X9422444Y-15587722D02*
X9431968Y-15606769D01*
X9431968Y-15606769D02*
X9431968Y-15654388D01*
X9431968Y-15654388D02*
X9422444Y-15673436D01*
X9422444Y-15673436D02*
X9412920Y-15682960D01*
X9412920Y-15682960D02*
X9393872Y-15692484D01*
X9393872Y-15692484D02*
X9336729Y-15692484D01*
X9336729Y-15692484D02*
X9317682Y-15682960D01*
X9317682Y-15682960D02*
X9308158Y-15673436D01*
X9498634Y-15492484D02*
X9622444Y-15492484D01*
X9622444Y-15492484D02*
X9555777Y-15568674D01*
X9555777Y-15568674D02*
X9584349Y-15568674D01*
X9584349Y-15568674D02*
X9603396Y-15578198D01*
X9603396Y-15578198D02*
X9612920Y-15587722D01*
X9612920Y-15587722D02*
X9622444Y-15606769D01*
X9622444Y-15606769D02*
X9622444Y-15654388D01*
X9622444Y-15654388D02*
X9612920Y-15673436D01*
X9612920Y-15673436D02*
X9603396Y-15682960D01*
X9603396Y-15682960D02*
X9584349Y-15692484D01*
X9584349Y-15692484D02*
X9527206Y-15692484D01*
X9527206Y-15692484D02*
X9508158Y-15682960D01*
X9508158Y-15682960D02*
X9498634Y-15673436D01*
X9698634Y-15492484D02*
X9698634Y-15530579D01*
X9774825Y-15492484D02*
X9774825Y-15530579D01*
X10070063Y-15768674D02*
X10060539Y-15759150D01*
X10060539Y-15759150D02*
X10041491Y-15730579D01*
X10041491Y-15730579D02*
X10031968Y-15711531D01*
X10031968Y-15711531D02*
X10022444Y-15682960D01*
X10022444Y-15682960D02*
X10012920Y-15635341D01*
X10012920Y-15635341D02*
X10012920Y-15597246D01*
X10012920Y-15597246D02*
X10022444Y-15549627D01*
X10022444Y-15549627D02*
X10031968Y-15521055D01*
X10031968Y-15521055D02*
X10041491Y-15502008D01*
X10041491Y-15502008D02*
X10060539Y-15473436D01*
X10060539Y-15473436D02*
X10070063Y-15463912D01*
X10155777Y-15692484D02*
X10193872Y-15692484D01*
X10193872Y-15692484D02*
X10212920Y-15682960D01*
X10212920Y-15682960D02*
X10222444Y-15673436D01*
X10222444Y-15673436D02*
X10241491Y-15644865D01*
X10241491Y-15644865D02*
X10251015Y-15606769D01*
X10251015Y-15606769D02*
X10251015Y-15530579D01*
X10251015Y-15530579D02*
X10241491Y-15511531D01*
X10241491Y-15511531D02*
X10231968Y-15502008D01*
X10231968Y-15502008D02*
X10212920Y-15492484D01*
X10212920Y-15492484D02*
X10174825Y-15492484D01*
X10174825Y-15492484D02*
X10155777Y-15502008D01*
X10155777Y-15502008D02*
X10146253Y-15511531D01*
X10146253Y-15511531D02*
X10136730Y-15530579D01*
X10136730Y-15530579D02*
X10136730Y-15578198D01*
X10136730Y-15578198D02*
X10146253Y-15597246D01*
X10146253Y-15597246D02*
X10155777Y-15606769D01*
X10155777Y-15606769D02*
X10174825Y-15616293D01*
X10174825Y-15616293D02*
X10212920Y-15616293D01*
X10212920Y-15616293D02*
X10231968Y-15606769D01*
X10231968Y-15606769D02*
X10241491Y-15597246D01*
X10241491Y-15597246D02*
X10251015Y-15578198D01*
X10489111Y-15692484D02*
X10489111Y-15492484D01*
X10574825Y-15692484D02*
X10574825Y-15587722D01*
X10574825Y-15587722D02*
X10565301Y-15568674D01*
X10565301Y-15568674D02*
X10546253Y-15559150D01*
X10546253Y-15559150D02*
X10517682Y-15559150D01*
X10517682Y-15559150D02*
X10498634Y-15568674D01*
X10498634Y-15568674D02*
X10489111Y-15578198D01*
X10698634Y-15692484D02*
X10679587Y-15682960D01*
X10679587Y-15682960D02*
X10670063Y-15673436D01*
X10670063Y-15673436D02*
X10660539Y-15654388D01*
X10660539Y-15654388D02*
X10660539Y-15597246D01*
X10660539Y-15597246D02*
X10670063Y-15578198D01*
X10670063Y-15578198D02*
X10679587Y-15568674D01*
X10679587Y-15568674D02*
X10698634Y-15559150D01*
X10698634Y-15559150D02*
X10727206Y-15559150D01*
X10727206Y-15559150D02*
X10746253Y-15568674D01*
X10746253Y-15568674D02*
X10755777Y-15578198D01*
X10755777Y-15578198D02*
X10765301Y-15597246D01*
X10765301Y-15597246D02*
X10765301Y-15654388D01*
X10765301Y-15654388D02*
X10755777Y-15673436D01*
X10755777Y-15673436D02*
X10746253Y-15682960D01*
X10746253Y-15682960D02*
X10727206Y-15692484D01*
X10727206Y-15692484D02*
X10698634Y-15692484D01*
X10879587Y-15692484D02*
X10860539Y-15682960D01*
X10860539Y-15682960D02*
X10851015Y-15663912D01*
X10851015Y-15663912D02*
X10851015Y-15492484D01*
X11031968Y-15682960D02*
X11012920Y-15692484D01*
X11012920Y-15692484D02*
X10974825Y-15692484D01*
X10974825Y-15692484D02*
X10955777Y-15682960D01*
X10955777Y-15682960D02*
X10946253Y-15663912D01*
X10946253Y-15663912D02*
X10946253Y-15587722D01*
X10946253Y-15587722D02*
X10955777Y-15568674D01*
X10955777Y-15568674D02*
X10974825Y-15559150D01*
X10974825Y-15559150D02*
X11012920Y-15559150D01*
X11012920Y-15559150D02*
X11031968Y-15568674D01*
X11031968Y-15568674D02*
X11041492Y-15587722D01*
X11041492Y-15587722D02*
X11041492Y-15606769D01*
X11041492Y-15606769D02*
X10946253Y-15625817D01*
X11117682Y-15682960D02*
X11136730Y-15692484D01*
X11136730Y-15692484D02*
X11174825Y-15692484D01*
X11174825Y-15692484D02*
X11193872Y-15682960D01*
X11193872Y-15682960D02*
X11203396Y-15663912D01*
X11203396Y-15663912D02*
X11203396Y-15654388D01*
X11203396Y-15654388D02*
X11193872Y-15635341D01*
X11193872Y-15635341D02*
X11174825Y-15625817D01*
X11174825Y-15625817D02*
X11146253Y-15625817D01*
X11146253Y-15625817D02*
X11127206Y-15616293D01*
X11127206Y-15616293D02*
X11117682Y-15597246D01*
X11117682Y-15597246D02*
X11117682Y-15587722D01*
X11117682Y-15587722D02*
X11127206Y-15568674D01*
X11127206Y-15568674D02*
X11146253Y-15559150D01*
X11146253Y-15559150D02*
X11174825Y-15559150D01*
X11174825Y-15559150D02*
X11193872Y-15568674D01*
X11270063Y-15768674D02*
X11279587Y-15759150D01*
X11279587Y-15759150D02*
X11298634Y-15730579D01*
X11298634Y-15730579D02*
X11308158Y-15711531D01*
X11308158Y-15711531D02*
X11317682Y-15682960D01*
X11317682Y-15682960D02*
X11327206Y-15635341D01*
X11327206Y-15635341D02*
X11327206Y-15597246D01*
X11327206Y-15597246D02*
X11317682Y-15549627D01*
X11317682Y-15549627D02*
X11308158Y-15521055D01*
X11308158Y-15521055D02*
X11298634Y-15502008D01*
X11298634Y-15502008D02*
X11279587Y-15473436D01*
X11279587Y-15473436D02*
X11270063Y-15463912D01*
D14*
X6345000Y-15790000D02*
X6495000Y-15940000D01*
X6495000Y-15790000D02*
X6345000Y-15940000D01*
X6495000Y-15865000D02*
G75*
G03*
X6345000Y-15865000I-75000J0D01*
G01*
X6345000Y-15865000D02*
G75*
G03*
X6495000Y-15865000I75000J0D01*
G01*
D11*
X6860539Y-15956484D02*
X6746253Y-15956484D01*
X6803396Y-15956484D02*
X6803396Y-15756484D01*
X6803396Y-15756484D02*
X6784348Y-15785055D01*
X6784348Y-15785055D02*
X6765301Y-15804103D01*
X6765301Y-15804103D02*
X6746253Y-15813627D01*
X6946253Y-15937436D02*
X6955777Y-15946960D01*
X6955777Y-15946960D02*
X6946253Y-15956484D01*
X6946253Y-15956484D02*
X6936729Y-15946960D01*
X6936729Y-15946960D02*
X6946253Y-15937436D01*
X6946253Y-15937436D02*
X6946253Y-15956484D01*
X7136729Y-15756484D02*
X7041491Y-15756484D01*
X7041491Y-15756484D02*
X7031967Y-15851722D01*
X7031967Y-15851722D02*
X7041491Y-15842198D01*
X7041491Y-15842198D02*
X7060539Y-15832674D01*
X7060539Y-15832674D02*
X7108158Y-15832674D01*
X7108158Y-15832674D02*
X7127205Y-15842198D01*
X7127205Y-15842198D02*
X7136729Y-15851722D01*
X7136729Y-15851722D02*
X7146253Y-15870769D01*
X7146253Y-15870769D02*
X7146253Y-15918388D01*
X7146253Y-15918388D02*
X7136729Y-15937436D01*
X7136729Y-15937436D02*
X7127205Y-15946960D01*
X7127205Y-15946960D02*
X7108158Y-15956484D01*
X7108158Y-15956484D02*
X7060539Y-15956484D01*
X7060539Y-15956484D02*
X7041491Y-15946960D01*
X7041491Y-15946960D02*
X7031967Y-15937436D01*
X7270062Y-15756484D02*
X7289110Y-15756484D01*
X7289110Y-15756484D02*
X7308158Y-15766008D01*
X7308158Y-15766008D02*
X7317682Y-15775531D01*
X7317682Y-15775531D02*
X7327205Y-15794579D01*
X7327205Y-15794579D02*
X7336729Y-15832674D01*
X7336729Y-15832674D02*
X7336729Y-15880293D01*
X7336729Y-15880293D02*
X7327205Y-15918388D01*
X7327205Y-15918388D02*
X7317682Y-15937436D01*
X7317682Y-15937436D02*
X7308158Y-15946960D01*
X7308158Y-15946960D02*
X7289110Y-15956484D01*
X7289110Y-15956484D02*
X7270062Y-15956484D01*
X7270062Y-15956484D02*
X7251015Y-15946960D01*
X7251015Y-15946960D02*
X7241491Y-15937436D01*
X7241491Y-15937436D02*
X7231967Y-15918388D01*
X7231967Y-15918388D02*
X7222443Y-15880293D01*
X7222443Y-15880293D02*
X7222443Y-15832674D01*
X7222443Y-15832674D02*
X7231967Y-15794579D01*
X7231967Y-15794579D02*
X7241491Y-15775531D01*
X7241491Y-15775531D02*
X7251015Y-15766008D01*
X7251015Y-15766008D02*
X7270062Y-15756484D01*
X7460539Y-15756484D02*
X7479586Y-15756484D01*
X7479586Y-15756484D02*
X7498634Y-15766008D01*
X7498634Y-15766008D02*
X7508158Y-15775531D01*
X7508158Y-15775531D02*
X7517682Y-15794579D01*
X7517682Y-15794579D02*
X7527205Y-15832674D01*
X7527205Y-15832674D02*
X7527205Y-15880293D01*
X7527205Y-15880293D02*
X7517682Y-15918388D01*
X7517682Y-15918388D02*
X7508158Y-15937436D01*
X7508158Y-15937436D02*
X7498634Y-15946960D01*
X7498634Y-15946960D02*
X7479586Y-15956484D01*
X7479586Y-15956484D02*
X7460539Y-15956484D01*
X7460539Y-15956484D02*
X7441491Y-15946960D01*
X7441491Y-15946960D02*
X7431967Y-15937436D01*
X7431967Y-15937436D02*
X7422443Y-15918388D01*
X7422443Y-15918388D02*
X7412920Y-15880293D01*
X7412920Y-15880293D02*
X7412920Y-15832674D01*
X7412920Y-15832674D02*
X7422443Y-15794579D01*
X7422443Y-15794579D02*
X7431967Y-15775531D01*
X7431967Y-15775531D02*
X7441491Y-15766008D01*
X7441491Y-15766008D02*
X7460539Y-15756484D01*
X7612920Y-15956484D02*
X7612920Y-15823150D01*
X7612920Y-15842198D02*
X7622443Y-15832674D01*
X7622443Y-15832674D02*
X7641491Y-15823150D01*
X7641491Y-15823150D02*
X7670063Y-15823150D01*
X7670063Y-15823150D02*
X7689110Y-15832674D01*
X7689110Y-15832674D02*
X7698634Y-15851722D01*
X7698634Y-15851722D02*
X7698634Y-15956484D01*
X7698634Y-15851722D02*
X7708158Y-15832674D01*
X7708158Y-15832674D02*
X7727205Y-15823150D01*
X7727205Y-15823150D02*
X7755777Y-15823150D01*
X7755777Y-15823150D02*
X7774824Y-15832674D01*
X7774824Y-15832674D02*
X7784348Y-15851722D01*
X7784348Y-15851722D02*
X7784348Y-15956484D01*
X7879586Y-15956484D02*
X7879586Y-15823150D01*
X7879586Y-15842198D02*
X7889110Y-15832674D01*
X7889110Y-15832674D02*
X7908158Y-15823150D01*
X7908158Y-15823150D02*
X7936729Y-15823150D01*
X7936729Y-15823150D02*
X7955777Y-15832674D01*
X7955777Y-15832674D02*
X7965301Y-15851722D01*
X7965301Y-15851722D02*
X7965301Y-15956484D01*
X7965301Y-15851722D02*
X7974824Y-15832674D01*
X7974824Y-15832674D02*
X7993872Y-15823150D01*
X7993872Y-15823150D02*
X8022443Y-15823150D01*
X8022443Y-15823150D02*
X8041491Y-15832674D01*
X8041491Y-15832674D02*
X8051015Y-15851722D01*
X8051015Y-15851722D02*
X8051015Y-15956484D01*
X8441491Y-15746960D02*
X8270063Y-16004103D01*
X8698634Y-15756484D02*
X8717682Y-15756484D01*
X8717682Y-15756484D02*
X8736729Y-15766008D01*
X8736729Y-15766008D02*
X8746253Y-15775531D01*
X8746253Y-15775531D02*
X8755777Y-15794579D01*
X8755777Y-15794579D02*
X8765301Y-15832674D01*
X8765301Y-15832674D02*
X8765301Y-15880293D01*
X8765301Y-15880293D02*
X8755777Y-15918388D01*
X8755777Y-15918388D02*
X8746253Y-15937436D01*
X8746253Y-15937436D02*
X8736729Y-15946960D01*
X8736729Y-15946960D02*
X8717682Y-15956484D01*
X8717682Y-15956484D02*
X8698634Y-15956484D01*
X8698634Y-15956484D02*
X8679587Y-15946960D01*
X8679587Y-15946960D02*
X8670063Y-15937436D01*
X8670063Y-15937436D02*
X8660539Y-15918388D01*
X8660539Y-15918388D02*
X8651015Y-15880293D01*
X8651015Y-15880293D02*
X8651015Y-15832674D01*
X8651015Y-15832674D02*
X8660539Y-15794579D01*
X8660539Y-15794579D02*
X8670063Y-15775531D01*
X8670063Y-15775531D02*
X8679587Y-15766008D01*
X8679587Y-15766008D02*
X8698634Y-15756484D01*
X8851015Y-15937436D02*
X8860539Y-15946960D01*
X8860539Y-15946960D02*
X8851015Y-15956484D01*
X8851015Y-15956484D02*
X8841491Y-15946960D01*
X8841491Y-15946960D02*
X8851015Y-15937436D01*
X8851015Y-15937436D02*
X8851015Y-15956484D01*
X8984348Y-15756484D02*
X9003396Y-15756484D01*
X9003396Y-15756484D02*
X9022444Y-15766008D01*
X9022444Y-15766008D02*
X9031968Y-15775531D01*
X9031968Y-15775531D02*
X9041491Y-15794579D01*
X9041491Y-15794579D02*
X9051015Y-15832674D01*
X9051015Y-15832674D02*
X9051015Y-15880293D01*
X9051015Y-15880293D02*
X9041491Y-15918388D01*
X9041491Y-15918388D02*
X9031968Y-15937436D01*
X9031968Y-15937436D02*
X9022444Y-15946960D01*
X9022444Y-15946960D02*
X9003396Y-15956484D01*
X9003396Y-15956484D02*
X8984348Y-15956484D01*
X8984348Y-15956484D02*
X8965301Y-15946960D01*
X8965301Y-15946960D02*
X8955777Y-15937436D01*
X8955777Y-15937436D02*
X8946253Y-15918388D01*
X8946253Y-15918388D02*
X8936729Y-15880293D01*
X8936729Y-15880293D02*
X8936729Y-15832674D01*
X8936729Y-15832674D02*
X8946253Y-15794579D01*
X8946253Y-15794579D02*
X8955777Y-15775531D01*
X8955777Y-15775531D02*
X8965301Y-15766008D01*
X8965301Y-15766008D02*
X8984348Y-15756484D01*
X9231968Y-15756484D02*
X9136729Y-15756484D01*
X9136729Y-15756484D02*
X9127206Y-15851722D01*
X9127206Y-15851722D02*
X9136729Y-15842198D01*
X9136729Y-15842198D02*
X9155777Y-15832674D01*
X9155777Y-15832674D02*
X9203396Y-15832674D01*
X9203396Y-15832674D02*
X9222444Y-15842198D01*
X9222444Y-15842198D02*
X9231968Y-15851722D01*
X9231968Y-15851722D02*
X9241491Y-15870769D01*
X9241491Y-15870769D02*
X9241491Y-15918388D01*
X9241491Y-15918388D02*
X9231968Y-15937436D01*
X9231968Y-15937436D02*
X9222444Y-15946960D01*
X9222444Y-15946960D02*
X9203396Y-15956484D01*
X9203396Y-15956484D02*
X9155777Y-15956484D01*
X9155777Y-15956484D02*
X9136729Y-15946960D01*
X9136729Y-15946960D02*
X9127206Y-15937436D01*
X9336729Y-15956484D02*
X9374825Y-15956484D01*
X9374825Y-15956484D02*
X9393872Y-15946960D01*
X9393872Y-15946960D02*
X9403396Y-15937436D01*
X9403396Y-15937436D02*
X9422444Y-15908865D01*
X9422444Y-15908865D02*
X9431968Y-15870769D01*
X9431968Y-15870769D02*
X9431968Y-15794579D01*
X9431968Y-15794579D02*
X9422444Y-15775531D01*
X9422444Y-15775531D02*
X9412920Y-15766008D01*
X9412920Y-15766008D02*
X9393872Y-15756484D01*
X9393872Y-15756484D02*
X9355777Y-15756484D01*
X9355777Y-15756484D02*
X9336729Y-15766008D01*
X9336729Y-15766008D02*
X9327206Y-15775531D01*
X9327206Y-15775531D02*
X9317682Y-15794579D01*
X9317682Y-15794579D02*
X9317682Y-15842198D01*
X9317682Y-15842198D02*
X9327206Y-15861246D01*
X9327206Y-15861246D02*
X9336729Y-15870769D01*
X9336729Y-15870769D02*
X9355777Y-15880293D01*
X9355777Y-15880293D02*
X9393872Y-15880293D01*
X9393872Y-15880293D02*
X9412920Y-15870769D01*
X9412920Y-15870769D02*
X9422444Y-15861246D01*
X9422444Y-15861246D02*
X9431968Y-15842198D01*
X9622444Y-15956484D02*
X9508158Y-15956484D01*
X9565301Y-15956484D02*
X9565301Y-15756484D01*
X9565301Y-15756484D02*
X9546253Y-15785055D01*
X9546253Y-15785055D02*
X9527206Y-15804103D01*
X9527206Y-15804103D02*
X9508158Y-15813627D01*
X9698634Y-15756484D02*
X9698634Y-15794579D01*
X9774825Y-15756484D02*
X9774825Y-15794579D01*
X10070063Y-16032674D02*
X10060539Y-16023150D01*
X10060539Y-16023150D02*
X10041491Y-15994579D01*
X10041491Y-15994579D02*
X10031968Y-15975531D01*
X10031968Y-15975531D02*
X10022444Y-15946960D01*
X10022444Y-15946960D02*
X10012920Y-15899341D01*
X10012920Y-15899341D02*
X10012920Y-15861246D01*
X10012920Y-15861246D02*
X10022444Y-15813627D01*
X10022444Y-15813627D02*
X10031968Y-15785055D01*
X10031968Y-15785055D02*
X10041491Y-15766008D01*
X10041491Y-15766008D02*
X10060539Y-15737436D01*
X10060539Y-15737436D02*
X10070063Y-15727912D01*
X10184349Y-15756484D02*
X10203396Y-15756484D01*
X10203396Y-15756484D02*
X10222444Y-15766008D01*
X10222444Y-15766008D02*
X10231968Y-15775531D01*
X10231968Y-15775531D02*
X10241491Y-15794579D01*
X10241491Y-15794579D02*
X10251015Y-15832674D01*
X10251015Y-15832674D02*
X10251015Y-15880293D01*
X10251015Y-15880293D02*
X10241491Y-15918388D01*
X10241491Y-15918388D02*
X10231968Y-15937436D01*
X10231968Y-15937436D02*
X10222444Y-15946960D01*
X10222444Y-15946960D02*
X10203396Y-15956484D01*
X10203396Y-15956484D02*
X10184349Y-15956484D01*
X10184349Y-15956484D02*
X10165301Y-15946960D01*
X10165301Y-15946960D02*
X10155777Y-15937436D01*
X10155777Y-15937436D02*
X10146253Y-15918388D01*
X10146253Y-15918388D02*
X10136730Y-15880293D01*
X10136730Y-15880293D02*
X10136730Y-15832674D01*
X10136730Y-15832674D02*
X10146253Y-15794579D01*
X10146253Y-15794579D02*
X10155777Y-15775531D01*
X10155777Y-15775531D02*
X10165301Y-15766008D01*
X10165301Y-15766008D02*
X10184349Y-15756484D01*
X10489111Y-15956484D02*
X10489111Y-15756484D01*
X10574825Y-15956484D02*
X10574825Y-15851722D01*
X10574825Y-15851722D02*
X10565301Y-15832674D01*
X10565301Y-15832674D02*
X10546253Y-15823150D01*
X10546253Y-15823150D02*
X10517682Y-15823150D01*
X10517682Y-15823150D02*
X10498634Y-15832674D01*
X10498634Y-15832674D02*
X10489111Y-15842198D01*
X10698634Y-15956484D02*
X10679587Y-15946960D01*
X10679587Y-15946960D02*
X10670063Y-15937436D01*
X10670063Y-15937436D02*
X10660539Y-15918388D01*
X10660539Y-15918388D02*
X10660539Y-15861246D01*
X10660539Y-15861246D02*
X10670063Y-15842198D01*
X10670063Y-15842198D02*
X10679587Y-15832674D01*
X10679587Y-15832674D02*
X10698634Y-15823150D01*
X10698634Y-15823150D02*
X10727206Y-15823150D01*
X10727206Y-15823150D02*
X10746253Y-15832674D01*
X10746253Y-15832674D02*
X10755777Y-15842198D01*
X10755777Y-15842198D02*
X10765301Y-15861246D01*
X10765301Y-15861246D02*
X10765301Y-15918388D01*
X10765301Y-15918388D02*
X10755777Y-15937436D01*
X10755777Y-15937436D02*
X10746253Y-15946960D01*
X10746253Y-15946960D02*
X10727206Y-15956484D01*
X10727206Y-15956484D02*
X10698634Y-15956484D01*
X10879587Y-15956484D02*
X10860539Y-15946960D01*
X10860539Y-15946960D02*
X10851015Y-15927912D01*
X10851015Y-15927912D02*
X10851015Y-15756484D01*
X11031968Y-15946960D02*
X11012920Y-15956484D01*
X11012920Y-15956484D02*
X10974825Y-15956484D01*
X10974825Y-15956484D02*
X10955777Y-15946960D01*
X10955777Y-15946960D02*
X10946253Y-15927912D01*
X10946253Y-15927912D02*
X10946253Y-15851722D01*
X10946253Y-15851722D02*
X10955777Y-15832674D01*
X10955777Y-15832674D02*
X10974825Y-15823150D01*
X10974825Y-15823150D02*
X11012920Y-15823150D01*
X11012920Y-15823150D02*
X11031968Y-15832674D01*
X11031968Y-15832674D02*
X11041492Y-15851722D01*
X11041492Y-15851722D02*
X11041492Y-15870769D01*
X11041492Y-15870769D02*
X10946253Y-15889817D01*
X11117682Y-15946960D02*
X11136730Y-15956484D01*
X11136730Y-15956484D02*
X11174825Y-15956484D01*
X11174825Y-15956484D02*
X11193872Y-15946960D01*
X11193872Y-15946960D02*
X11203396Y-15927912D01*
X11203396Y-15927912D02*
X11203396Y-15918388D01*
X11203396Y-15918388D02*
X11193872Y-15899341D01*
X11193872Y-15899341D02*
X11174825Y-15889817D01*
X11174825Y-15889817D02*
X11146253Y-15889817D01*
X11146253Y-15889817D02*
X11127206Y-15880293D01*
X11127206Y-15880293D02*
X11117682Y-15861246D01*
X11117682Y-15861246D02*
X11117682Y-15851722D01*
X11117682Y-15851722D02*
X11127206Y-15832674D01*
X11127206Y-15832674D02*
X11146253Y-15823150D01*
X11146253Y-15823150D02*
X11174825Y-15823150D01*
X11174825Y-15823150D02*
X11193872Y-15832674D01*
X11441492Y-15880293D02*
X11593873Y-15880293D01*
X11517682Y-15956484D02*
X11517682Y-15804103D01*
X11831968Y-15775531D02*
X11841492Y-15766008D01*
X11841492Y-15766008D02*
X11860539Y-15756484D01*
X11860539Y-15756484D02*
X11908158Y-15756484D01*
X11908158Y-15756484D02*
X11927206Y-15766008D01*
X11927206Y-15766008D02*
X11936730Y-15775531D01*
X11936730Y-15775531D02*
X11946253Y-15794579D01*
X11946253Y-15794579D02*
X11946253Y-15813627D01*
X11946253Y-15813627D02*
X11936730Y-15842198D01*
X11936730Y-15842198D02*
X11822444Y-15956484D01*
X11822444Y-15956484D02*
X11946253Y-15956484D01*
X12174825Y-15946960D02*
X12193873Y-15956484D01*
X12193873Y-15956484D02*
X12231968Y-15956484D01*
X12231968Y-15956484D02*
X12251015Y-15946960D01*
X12251015Y-15946960D02*
X12260539Y-15927912D01*
X12260539Y-15927912D02*
X12260539Y-15918388D01*
X12260539Y-15918388D02*
X12251015Y-15899341D01*
X12251015Y-15899341D02*
X12231968Y-15889817D01*
X12231968Y-15889817D02*
X12203396Y-15889817D01*
X12203396Y-15889817D02*
X12184349Y-15880293D01*
X12184349Y-15880293D02*
X12174825Y-15861246D01*
X12174825Y-15861246D02*
X12174825Y-15851722D01*
X12174825Y-15851722D02*
X12184349Y-15832674D01*
X12184349Y-15832674D02*
X12203396Y-15823150D01*
X12203396Y-15823150D02*
X12231968Y-15823150D01*
X12231968Y-15823150D02*
X12251015Y-15832674D01*
X12374825Y-15956484D02*
X12355777Y-15946960D01*
X12355777Y-15946960D02*
X12346254Y-15927912D01*
X12346254Y-15927912D02*
X12346254Y-15756484D01*
X12479587Y-15956484D02*
X12460539Y-15946960D01*
X12460539Y-15946960D02*
X12451015Y-15937436D01*
X12451015Y-15937436D02*
X12441492Y-15918388D01*
X12441492Y-15918388D02*
X12441492Y-15861246D01*
X12441492Y-15861246D02*
X12451015Y-15842198D01*
X12451015Y-15842198D02*
X12460539Y-15832674D01*
X12460539Y-15832674D02*
X12479587Y-15823150D01*
X12479587Y-15823150D02*
X12508158Y-15823150D01*
X12508158Y-15823150D02*
X12527206Y-15832674D01*
X12527206Y-15832674D02*
X12536730Y-15842198D01*
X12536730Y-15842198D02*
X12546254Y-15861246D01*
X12546254Y-15861246D02*
X12546254Y-15918388D01*
X12546254Y-15918388D02*
X12536730Y-15937436D01*
X12536730Y-15937436D02*
X12527206Y-15946960D01*
X12527206Y-15946960D02*
X12508158Y-15956484D01*
X12508158Y-15956484D02*
X12479587Y-15956484D01*
X12603396Y-15823150D02*
X12679587Y-15823150D01*
X12631968Y-15756484D02*
X12631968Y-15927912D01*
X12631968Y-15927912D02*
X12641492Y-15946960D01*
X12641492Y-15946960D02*
X12660539Y-15956484D01*
X12660539Y-15956484D02*
X12679587Y-15956484D01*
X12736730Y-15946960D02*
X12755777Y-15956484D01*
X12755777Y-15956484D02*
X12793873Y-15956484D01*
X12793873Y-15956484D02*
X12812920Y-15946960D01*
X12812920Y-15946960D02*
X12822444Y-15927912D01*
X12822444Y-15927912D02*
X12822444Y-15918388D01*
X12822444Y-15918388D02*
X12812920Y-15899341D01*
X12812920Y-15899341D02*
X12793873Y-15889817D01*
X12793873Y-15889817D02*
X12765301Y-15889817D01*
X12765301Y-15889817D02*
X12746254Y-15880293D01*
X12746254Y-15880293D02*
X12736730Y-15861246D01*
X12736730Y-15861246D02*
X12736730Y-15851722D01*
X12736730Y-15851722D02*
X12746254Y-15832674D01*
X12746254Y-15832674D02*
X12765301Y-15823150D01*
X12765301Y-15823150D02*
X12793873Y-15823150D01*
X12793873Y-15823150D02*
X12812920Y-15832674D01*
X12889111Y-16032674D02*
X12898635Y-16023150D01*
X12898635Y-16023150D02*
X12917682Y-15994579D01*
X12917682Y-15994579D02*
X12927206Y-15975531D01*
X12927206Y-15975531D02*
X12936730Y-15946960D01*
X12936730Y-15946960D02*
X12946254Y-15899341D01*
X12946254Y-15899341D02*
X12946254Y-15861246D01*
X12946254Y-15861246D02*
X12936730Y-15813627D01*
X12936730Y-15813627D02*
X12927206Y-15785055D01*
X12927206Y-15785055D02*
X12917682Y-15766008D01*
X12917682Y-15766008D02*
X12898635Y-15737436D01*
X12898635Y-15737436D02*
X12889111Y-15727912D01*
X6295000Y-16035000D02*
X6495000Y-16235000D01*
X6495000Y-16035000D02*
X6295000Y-16235000D01*
X6395000Y-16035000D02*
X6395000Y-16235000D01*
X6295000Y-16135000D02*
X6495000Y-16135000D01*
X6736729Y-16026484D02*
X6860539Y-16026484D01*
X6860539Y-16026484D02*
X6793872Y-16102674D01*
X6793872Y-16102674D02*
X6822443Y-16102674D01*
X6822443Y-16102674D02*
X6841491Y-16112198D01*
X6841491Y-16112198D02*
X6851015Y-16121722D01*
X6851015Y-16121722D02*
X6860539Y-16140769D01*
X6860539Y-16140769D02*
X6860539Y-16188388D01*
X6860539Y-16188388D02*
X6851015Y-16207436D01*
X6851015Y-16207436D02*
X6841491Y-16216960D01*
X6841491Y-16216960D02*
X6822443Y-16226484D01*
X6822443Y-16226484D02*
X6765301Y-16226484D01*
X6765301Y-16226484D02*
X6746253Y-16216960D01*
X6746253Y-16216960D02*
X6736729Y-16207436D01*
X6946253Y-16207436D02*
X6955777Y-16216960D01*
X6955777Y-16216960D02*
X6946253Y-16226484D01*
X6946253Y-16226484D02*
X6936729Y-16216960D01*
X6936729Y-16216960D02*
X6946253Y-16207436D01*
X6946253Y-16207436D02*
X6946253Y-16226484D01*
X7031967Y-16045531D02*
X7041491Y-16036008D01*
X7041491Y-16036008D02*
X7060539Y-16026484D01*
X7060539Y-16026484D02*
X7108158Y-16026484D01*
X7108158Y-16026484D02*
X7127205Y-16036008D01*
X7127205Y-16036008D02*
X7136729Y-16045531D01*
X7136729Y-16045531D02*
X7146253Y-16064579D01*
X7146253Y-16064579D02*
X7146253Y-16083627D01*
X7146253Y-16083627D02*
X7136729Y-16112198D01*
X7136729Y-16112198D02*
X7022443Y-16226484D01*
X7022443Y-16226484D02*
X7146253Y-16226484D01*
X7270062Y-16026484D02*
X7289110Y-16026484D01*
X7289110Y-16026484D02*
X7308158Y-16036008D01*
X7308158Y-16036008D02*
X7317682Y-16045531D01*
X7317682Y-16045531D02*
X7327205Y-16064579D01*
X7327205Y-16064579D02*
X7336729Y-16102674D01*
X7336729Y-16102674D02*
X7336729Y-16150293D01*
X7336729Y-16150293D02*
X7327205Y-16188388D01*
X7327205Y-16188388D02*
X7317682Y-16207436D01*
X7317682Y-16207436D02*
X7308158Y-16216960D01*
X7308158Y-16216960D02*
X7289110Y-16226484D01*
X7289110Y-16226484D02*
X7270062Y-16226484D01*
X7270062Y-16226484D02*
X7251015Y-16216960D01*
X7251015Y-16216960D02*
X7241491Y-16207436D01*
X7241491Y-16207436D02*
X7231967Y-16188388D01*
X7231967Y-16188388D02*
X7222443Y-16150293D01*
X7222443Y-16150293D02*
X7222443Y-16102674D01*
X7222443Y-16102674D02*
X7231967Y-16064579D01*
X7231967Y-16064579D02*
X7241491Y-16045531D01*
X7241491Y-16045531D02*
X7251015Y-16036008D01*
X7251015Y-16036008D02*
X7270062Y-16026484D01*
X7460539Y-16026484D02*
X7479586Y-16026484D01*
X7479586Y-16026484D02*
X7498634Y-16036008D01*
X7498634Y-16036008D02*
X7508158Y-16045531D01*
X7508158Y-16045531D02*
X7517682Y-16064579D01*
X7517682Y-16064579D02*
X7527205Y-16102674D01*
X7527205Y-16102674D02*
X7527205Y-16150293D01*
X7527205Y-16150293D02*
X7517682Y-16188388D01*
X7517682Y-16188388D02*
X7508158Y-16207436D01*
X7508158Y-16207436D02*
X7498634Y-16216960D01*
X7498634Y-16216960D02*
X7479586Y-16226484D01*
X7479586Y-16226484D02*
X7460539Y-16226484D01*
X7460539Y-16226484D02*
X7441491Y-16216960D01*
X7441491Y-16216960D02*
X7431967Y-16207436D01*
X7431967Y-16207436D02*
X7422443Y-16188388D01*
X7422443Y-16188388D02*
X7412920Y-16150293D01*
X7412920Y-16150293D02*
X7412920Y-16102674D01*
X7412920Y-16102674D02*
X7422443Y-16064579D01*
X7422443Y-16064579D02*
X7431967Y-16045531D01*
X7431967Y-16045531D02*
X7441491Y-16036008D01*
X7441491Y-16036008D02*
X7460539Y-16026484D01*
X7612920Y-16226484D02*
X7612920Y-16093150D01*
X7612920Y-16112198D02*
X7622443Y-16102674D01*
X7622443Y-16102674D02*
X7641491Y-16093150D01*
X7641491Y-16093150D02*
X7670063Y-16093150D01*
X7670063Y-16093150D02*
X7689110Y-16102674D01*
X7689110Y-16102674D02*
X7698634Y-16121722D01*
X7698634Y-16121722D02*
X7698634Y-16226484D01*
X7698634Y-16121722D02*
X7708158Y-16102674D01*
X7708158Y-16102674D02*
X7727205Y-16093150D01*
X7727205Y-16093150D02*
X7755777Y-16093150D01*
X7755777Y-16093150D02*
X7774824Y-16102674D01*
X7774824Y-16102674D02*
X7784348Y-16121722D01*
X7784348Y-16121722D02*
X7784348Y-16226484D01*
X7879586Y-16226484D02*
X7879586Y-16093150D01*
X7879586Y-16112198D02*
X7889110Y-16102674D01*
X7889110Y-16102674D02*
X7908158Y-16093150D01*
X7908158Y-16093150D02*
X7936729Y-16093150D01*
X7936729Y-16093150D02*
X7955777Y-16102674D01*
X7955777Y-16102674D02*
X7965301Y-16121722D01*
X7965301Y-16121722D02*
X7965301Y-16226484D01*
X7965301Y-16121722D02*
X7974824Y-16102674D01*
X7974824Y-16102674D02*
X7993872Y-16093150D01*
X7993872Y-16093150D02*
X8022443Y-16093150D01*
X8022443Y-16093150D02*
X8041491Y-16102674D01*
X8041491Y-16102674D02*
X8051015Y-16121722D01*
X8051015Y-16121722D02*
X8051015Y-16226484D01*
X8441491Y-16016960D02*
X8270063Y-16274103D01*
X8698634Y-16026484D02*
X8717682Y-16026484D01*
X8717682Y-16026484D02*
X8736729Y-16036008D01*
X8736729Y-16036008D02*
X8746253Y-16045531D01*
X8746253Y-16045531D02*
X8755777Y-16064579D01*
X8755777Y-16064579D02*
X8765301Y-16102674D01*
X8765301Y-16102674D02*
X8765301Y-16150293D01*
X8765301Y-16150293D02*
X8755777Y-16188388D01*
X8755777Y-16188388D02*
X8746253Y-16207436D01*
X8746253Y-16207436D02*
X8736729Y-16216960D01*
X8736729Y-16216960D02*
X8717682Y-16226484D01*
X8717682Y-16226484D02*
X8698634Y-16226484D01*
X8698634Y-16226484D02*
X8679587Y-16216960D01*
X8679587Y-16216960D02*
X8670063Y-16207436D01*
X8670063Y-16207436D02*
X8660539Y-16188388D01*
X8660539Y-16188388D02*
X8651015Y-16150293D01*
X8651015Y-16150293D02*
X8651015Y-16102674D01*
X8651015Y-16102674D02*
X8660539Y-16064579D01*
X8660539Y-16064579D02*
X8670063Y-16045531D01*
X8670063Y-16045531D02*
X8679587Y-16036008D01*
X8679587Y-16036008D02*
X8698634Y-16026484D01*
X8851015Y-16207436D02*
X8860539Y-16216960D01*
X8860539Y-16216960D02*
X8851015Y-16226484D01*
X8851015Y-16226484D02*
X8841491Y-16216960D01*
X8841491Y-16216960D02*
X8851015Y-16207436D01*
X8851015Y-16207436D02*
X8851015Y-16226484D01*
X9051015Y-16226484D02*
X8936729Y-16226484D01*
X8993872Y-16226484D02*
X8993872Y-16026484D01*
X8993872Y-16026484D02*
X8974825Y-16055055D01*
X8974825Y-16055055D02*
X8955777Y-16074103D01*
X8955777Y-16074103D02*
X8936729Y-16083627D01*
X9127206Y-16045531D02*
X9136729Y-16036008D01*
X9136729Y-16036008D02*
X9155777Y-16026484D01*
X9155777Y-16026484D02*
X9203396Y-16026484D01*
X9203396Y-16026484D02*
X9222444Y-16036008D01*
X9222444Y-16036008D02*
X9231968Y-16045531D01*
X9231968Y-16045531D02*
X9241491Y-16064579D01*
X9241491Y-16064579D02*
X9241491Y-16083627D01*
X9241491Y-16083627D02*
X9231968Y-16112198D01*
X9231968Y-16112198D02*
X9117682Y-16226484D01*
X9117682Y-16226484D02*
X9241491Y-16226484D01*
X9412920Y-16026484D02*
X9374825Y-16026484D01*
X9374825Y-16026484D02*
X9355777Y-16036008D01*
X9355777Y-16036008D02*
X9346253Y-16045531D01*
X9346253Y-16045531D02*
X9327206Y-16074103D01*
X9327206Y-16074103D02*
X9317682Y-16112198D01*
X9317682Y-16112198D02*
X9317682Y-16188388D01*
X9317682Y-16188388D02*
X9327206Y-16207436D01*
X9327206Y-16207436D02*
X9336729Y-16216960D01*
X9336729Y-16216960D02*
X9355777Y-16226484D01*
X9355777Y-16226484D02*
X9393872Y-16226484D01*
X9393872Y-16226484D02*
X9412920Y-16216960D01*
X9412920Y-16216960D02*
X9422444Y-16207436D01*
X9422444Y-16207436D02*
X9431968Y-16188388D01*
X9431968Y-16188388D02*
X9431968Y-16140769D01*
X9431968Y-16140769D02*
X9422444Y-16121722D01*
X9422444Y-16121722D02*
X9412920Y-16112198D01*
X9412920Y-16112198D02*
X9393872Y-16102674D01*
X9393872Y-16102674D02*
X9355777Y-16102674D01*
X9355777Y-16102674D02*
X9336729Y-16112198D01*
X9336729Y-16112198D02*
X9327206Y-16121722D01*
X9327206Y-16121722D02*
X9317682Y-16140769D01*
X9555777Y-16026484D02*
X9574825Y-16026484D01*
X9574825Y-16026484D02*
X9593872Y-16036008D01*
X9593872Y-16036008D02*
X9603396Y-16045531D01*
X9603396Y-16045531D02*
X9612920Y-16064579D01*
X9612920Y-16064579D02*
X9622444Y-16102674D01*
X9622444Y-16102674D02*
X9622444Y-16150293D01*
X9622444Y-16150293D02*
X9612920Y-16188388D01*
X9612920Y-16188388D02*
X9603396Y-16207436D01*
X9603396Y-16207436D02*
X9593872Y-16216960D01*
X9593872Y-16216960D02*
X9574825Y-16226484D01*
X9574825Y-16226484D02*
X9555777Y-16226484D01*
X9555777Y-16226484D02*
X9536729Y-16216960D01*
X9536729Y-16216960D02*
X9527206Y-16207436D01*
X9527206Y-16207436D02*
X9517682Y-16188388D01*
X9517682Y-16188388D02*
X9508158Y-16150293D01*
X9508158Y-16150293D02*
X9508158Y-16102674D01*
X9508158Y-16102674D02*
X9517682Y-16064579D01*
X9517682Y-16064579D02*
X9527206Y-16045531D01*
X9527206Y-16045531D02*
X9536729Y-16036008D01*
X9536729Y-16036008D02*
X9555777Y-16026484D01*
X9698634Y-16026484D02*
X9698634Y-16064579D01*
X9774825Y-16026484D02*
X9774825Y-16064579D01*
X10070063Y-16302674D02*
X10060539Y-16293150D01*
X10060539Y-16293150D02*
X10041491Y-16264579D01*
X10041491Y-16264579D02*
X10031968Y-16245531D01*
X10031968Y-16245531D02*
X10022444Y-16216960D01*
X10022444Y-16216960D02*
X10012920Y-16169341D01*
X10012920Y-16169341D02*
X10012920Y-16131246D01*
X10012920Y-16131246D02*
X10022444Y-16083627D01*
X10022444Y-16083627D02*
X10031968Y-16055055D01*
X10031968Y-16055055D02*
X10041491Y-16036008D01*
X10041491Y-16036008D02*
X10060539Y-16007436D01*
X10060539Y-16007436D02*
X10070063Y-15997912D01*
X10231968Y-16026484D02*
X10193872Y-16026484D01*
X10193872Y-16026484D02*
X10174825Y-16036008D01*
X10174825Y-16036008D02*
X10165301Y-16045531D01*
X10165301Y-16045531D02*
X10146253Y-16074103D01*
X10146253Y-16074103D02*
X10136730Y-16112198D01*
X10136730Y-16112198D02*
X10136730Y-16188388D01*
X10136730Y-16188388D02*
X10146253Y-16207436D01*
X10146253Y-16207436D02*
X10155777Y-16216960D01*
X10155777Y-16216960D02*
X10174825Y-16226484D01*
X10174825Y-16226484D02*
X10212920Y-16226484D01*
X10212920Y-16226484D02*
X10231968Y-16216960D01*
X10231968Y-16216960D02*
X10241491Y-16207436D01*
X10241491Y-16207436D02*
X10251015Y-16188388D01*
X10251015Y-16188388D02*
X10251015Y-16140769D01*
X10251015Y-16140769D02*
X10241491Y-16121722D01*
X10241491Y-16121722D02*
X10231968Y-16112198D01*
X10231968Y-16112198D02*
X10212920Y-16102674D01*
X10212920Y-16102674D02*
X10174825Y-16102674D01*
X10174825Y-16102674D02*
X10155777Y-16112198D01*
X10155777Y-16112198D02*
X10146253Y-16121722D01*
X10146253Y-16121722D02*
X10136730Y-16140769D01*
X10489111Y-16226484D02*
X10489111Y-16026484D01*
X10574825Y-16226484D02*
X10574825Y-16121722D01*
X10574825Y-16121722D02*
X10565301Y-16102674D01*
X10565301Y-16102674D02*
X10546253Y-16093150D01*
X10546253Y-16093150D02*
X10517682Y-16093150D01*
X10517682Y-16093150D02*
X10498634Y-16102674D01*
X10498634Y-16102674D02*
X10489111Y-16112198D01*
X10698634Y-16226484D02*
X10679587Y-16216960D01*
X10679587Y-16216960D02*
X10670063Y-16207436D01*
X10670063Y-16207436D02*
X10660539Y-16188388D01*
X10660539Y-16188388D02*
X10660539Y-16131246D01*
X10660539Y-16131246D02*
X10670063Y-16112198D01*
X10670063Y-16112198D02*
X10679587Y-16102674D01*
X10679587Y-16102674D02*
X10698634Y-16093150D01*
X10698634Y-16093150D02*
X10727206Y-16093150D01*
X10727206Y-16093150D02*
X10746253Y-16102674D01*
X10746253Y-16102674D02*
X10755777Y-16112198D01*
X10755777Y-16112198D02*
X10765301Y-16131246D01*
X10765301Y-16131246D02*
X10765301Y-16188388D01*
X10765301Y-16188388D02*
X10755777Y-16207436D01*
X10755777Y-16207436D02*
X10746253Y-16216960D01*
X10746253Y-16216960D02*
X10727206Y-16226484D01*
X10727206Y-16226484D02*
X10698634Y-16226484D01*
X10879587Y-16226484D02*
X10860539Y-16216960D01*
X10860539Y-16216960D02*
X10851015Y-16197912D01*
X10851015Y-16197912D02*
X10851015Y-16026484D01*
X11031968Y-16216960D02*
X11012920Y-16226484D01*
X11012920Y-16226484D02*
X10974825Y-16226484D01*
X10974825Y-16226484D02*
X10955777Y-16216960D01*
X10955777Y-16216960D02*
X10946253Y-16197912D01*
X10946253Y-16197912D02*
X10946253Y-16121722D01*
X10946253Y-16121722D02*
X10955777Y-16102674D01*
X10955777Y-16102674D02*
X10974825Y-16093150D01*
X10974825Y-16093150D02*
X11012920Y-16093150D01*
X11012920Y-16093150D02*
X11031968Y-16102674D01*
X11031968Y-16102674D02*
X11041492Y-16121722D01*
X11041492Y-16121722D02*
X11041492Y-16140769D01*
X11041492Y-16140769D02*
X10946253Y-16159817D01*
X11117682Y-16216960D02*
X11136730Y-16226484D01*
X11136730Y-16226484D02*
X11174825Y-16226484D01*
X11174825Y-16226484D02*
X11193872Y-16216960D01*
X11193872Y-16216960D02*
X11203396Y-16197912D01*
X11203396Y-16197912D02*
X11203396Y-16188388D01*
X11203396Y-16188388D02*
X11193872Y-16169341D01*
X11193872Y-16169341D02*
X11174825Y-16159817D01*
X11174825Y-16159817D02*
X11146253Y-16159817D01*
X11146253Y-16159817D02*
X11127206Y-16150293D01*
X11127206Y-16150293D02*
X11117682Y-16131246D01*
X11117682Y-16131246D02*
X11117682Y-16121722D01*
X11117682Y-16121722D02*
X11127206Y-16102674D01*
X11127206Y-16102674D02*
X11146253Y-16093150D01*
X11146253Y-16093150D02*
X11174825Y-16093150D01*
X11174825Y-16093150D02*
X11193872Y-16102674D01*
X11270063Y-16302674D02*
X11279587Y-16293150D01*
X11279587Y-16293150D02*
X11298634Y-16264579D01*
X11298634Y-16264579D02*
X11308158Y-16245531D01*
X11308158Y-16245531D02*
X11317682Y-16216960D01*
X11317682Y-16216960D02*
X11327206Y-16169341D01*
X11327206Y-16169341D02*
X11327206Y-16131246D01*
X11327206Y-16131246D02*
X11317682Y-16083627D01*
X11317682Y-16083627D02*
X11308158Y-16055055D01*
X11308158Y-16055055D02*
X11298634Y-16036008D01*
X11298634Y-16036008D02*
X11279587Y-16007436D01*
X11279587Y-16007436D02*
X11270063Y-15997912D01*
M02*
